<?xml version="1.0" encoding="utf-8"?>
<!-- Generator: Adobe Illustrator 21.1.0, SVG Export Plug-In . SVG Version: 6.00 Build 0)  -->
<svg version="1.1" id="Layer_1" xmlns="http://www.w3.org/2000/svg" xmlns:xlink="http://www.w3.org/1999/xlink" x="0px" y="0px"
	 viewBox="0 0 30 30" style="enable-background:new 0 0 30 30;" xml:space="preserve">
<style type="text/css">
	.st0{clip-path:url(#SVGID_2_);fill:none;stroke:#231F20;stroke-width:0.5918;}
	.st1{clip-path:url(#SVGID_2_);fill:#231F20;}
</style>
<g>
	<defs>
		<rect id="SVGID_1_" x="0.5" y="0.5" width="29" height="29"/>
	</defs>
	<clipPath id="SVGID_2_">
		<use xlink:href="#SVGID_1_"  style="overflow:visible;"/>
	</clipPath>
	<circle class="st0" cx="15" cy="15" r="14.2"/>
	<path class="st1" d="M21.7,11.5l-3.8-3.8c0.5-0.4,1.1-0.6,1.7-0.6c0.7,0,1.4,0.3,1.9,0.8c0.5,0.5,0.8,1.2,0.8,1.9
		C22.3,10.4,22.1,11,21.7,11.5 M12.4,20.8l-1.6-1.6l8.7-8.7l1.6,1.6L12.4,20.8z M17.2,8.3l1.6,1.6l-8.7,8.7L8.6,17L17.2,8.3z
		 M22.2,7.2c-1.4-1.4-3.8-1.4-5.2,0l-9.5,9.5c-0.1,0.1-0.1,0.2-0.1,0.3l-0.7,5.2c0,0.1,0,0.3,0.1,0.4c0.1,0.1,0.2,0.1,0.3,0.1
		c0,0,0,0,0.1,0l3.1-0.4c0.3,0,0.4-0.3,0.4-0.5c0-0.3-0.3-0.4-0.5-0.4l-2.5,0.3L8.2,18l3.8,3.8c0.1,0.1,0.2,0.1,0.3,0.1
		c0.1,0,0.2,0,0.3-0.1l9.5-9.5c0.7-0.7,1.1-1.6,1.1-2.6C23.3,8.8,22.9,7.9,22.2,7.2"/>
</g>
</svg>
