<?xml version="1.0" encoding="utf-8"?>
<!-- Generator: Adobe Illustrator 21.1.0, SVG Export Plug-In . SVG Version: 6.00 Build 0)  -->
<svg version="1.1" id="Layer_1" xmlns="http://www.w3.org/2000/svg" xmlns:xlink="http://www.w3.org/1999/xlink" x="0px" y="0px"
	 viewBox="0 0 30 30" style="enable-background:new 0 0 30 30;" xml:space="preserve">
<style type="text/css">
	.st0{clip-path:url(#SVGID_2_);fill:none;stroke:#231F20;stroke-width:0.5918;}
	.st1{clip-path:url(#SVGID_2_);fill:#231F20;}
</style>
<g>
	<defs>
		<rect id="SVGID_1_" x="0.5" y="0.5" width="29" height="29"/>
	</defs>
	<clipPath id="SVGID_2_">
		<use xlink:href="#SVGID_1_"  style="overflow:visible;"/>
	</clipPath>
	<circle class="st0" cx="15" cy="15" r="14.2"/>
	<path class="st1" d="M13.3,14.4c0.3,0.1,0.8,0.3,1.3,0.6l1.4,3.7c-0.3,0.3-0.5,0.6-0.4,0.9c0.1,0.3,0.4,0.4,0.8,0.4
		c0.4,1.7,1.8,5.2,2.9,4.8c1.6-0.7-0.8-4.7-1.2-5.7c0.1-0.2,0.2-0.4,0.1-0.6c-0.1-0.3-0.6-0.4-1.1-0.3c-0.2-0.5-0.5-1.3-0.7-2.1
		c0.8,0.5,1.6,0.9,2,1.3c-0.2,0.5-0.3,0.9,0,1.1c0.2,0.1,0.4,0.1,0.6,0c0.9,0.6,4.3,3.8,5.3,2.4c0.7-1-2.4-3.1-4-3.9
		c0.1-0.4,0.1-0.7-0.2-0.8c-0.3-0.1-0.6,0-1,0.2l-3.4-2.2c-0.2-0.6-0.3-1.1-0.3-1.5c-0.2-1.7,0.6-6.7-4.7-7.5l2.9,7.6L7,8.2
		C6.6,13.4,11.6,13.8,13.3,14.4"/>
</g>
</svg>
