<?xml version="1.0" encoding="utf-8"?>
<!-- Generator: Adobe Illustrator 21.1.0, SVG Export Plug-In . SVG Version: 6.00 Build 0)  -->
<svg version="1.1" id="Layer_1" xmlns="http://www.w3.org/2000/svg" xmlns:xlink="http://www.w3.org/1999/xlink" x="0px" y="0px"
	 viewBox="0 0 30 30" style="enable-background:new 0 0 30 30;" xml:space="preserve">
<style type="text/css">
	.st0{clip-path:url(#SVGID_2_);fill:none;stroke:#231F20;stroke-width:0.5918;}
	.st1{clip-path:url(#SVGID_2_);fill:#231F20;}
</style>
<g>
	<defs>
		<rect id="SVGID_1_" x="0.5" y="0.5" width="29" height="29"/>
	</defs>
	<clipPath id="SVGID_2_">
		<use xlink:href="#SVGID_1_"  style="overflow:visible;"/>
	</clipPath>
	<circle class="st0" cx="15" cy="15" r="14.2"/>
	<path class="st1" d="M16.4,18.2c-0.4,0.3-0.6-0.1-0.6-0.1s-2.9-5.9-3.2-6.5C12.4,11,12.9,11,12.9,11h0.9l-1-4.4
		c0,0-2.3,0.2-2.5,1.3c-0.1,0.3-0.2,1.5,0.2,3.7c0.3,1.9,1.3,4.8,2.6,6.6c1.2,1.6,2.5,2.8,4.3,3.9c1.5,0.9,2.5-1.1,2.5-1.1l-3-3.4
		C17,17.5,16.8,17.9,16.4,18.2"/>
</g>
</svg>
