<?xml version="1.0" encoding="utf-8"?>
<!-- Generator: Adobe Illustrator 21.1.0, SVG Export Plug-In . SVG Version: 6.00 Build 0)  -->
<svg version="1.1" id="Layer_1" xmlns="http://www.w3.org/2000/svg" xmlns:xlink="http://www.w3.org/1999/xlink" x="0px" y="0px"
	 viewBox="0 0 22 22" style="enable-background:new 0 0 22 22;" xml:space="preserve">
<style type="text/css">
	.st0{clip-path:url(#SVGID_2_);fill:#231F20;}
</style>
<g>
	<defs>
		<rect id="SVGID_1_" y="0" width="22" height="22"/>
	</defs>
	<clipPath id="SVGID_2_">
		<use xlink:href="#SVGID_1_"  style="overflow:visible;"/>
	</clipPath>
	<path class="st0" d="M11,0C4.9,0,0,4.9,0,11c0,4.5,2.7,8.4,6.6,10.1c0-0.8,0-1.7,0.2-2.5c0.2-0.9,1.4-6,1.4-6s-0.4-0.7-0.4-1.7
		C7.8,9.2,8.8,8,10,8c1,0,1.5,0.8,1.5,1.7c0,1-0.6,2.5-1,3.9c-0.3,1.2,0.6,2.1,1.7,2.1c2.1,0,3.5-2.7,3.5-5.8c0-2.4-1.6-4.2-4.6-4.2
		c-3.3,0-5.4,2.5-5.4,5.3c0,1,0.3,1.6,0.7,2.2c0.2,0.2,0.2,0.3,0.2,0.6c-0.1,0.2-0.2,0.7-0.2,0.9c-0.1,0.3-0.3,0.4-0.6,0.3
		c-1.5-0.6-2.3-2.3-2.3-4.2c0-3.1,2.6-6.9,7.9-6.9c4.2,0,7,3,7,6.3c0,4.3-2.4,7.5-5.9,7.5c-1.2,0-2.3-0.6-2.7-1.4c0,0-0.6,2.5-0.8,3
		c-0.2,0.8-0.7,1.7-1.1,2.4c1,0.3,2,0.4,3.1,0.4c6.1,0,11-4.9,11-11C22,4.9,17.1,0,11,0"/>
</g>
</svg>
