<?xml version="1.0" encoding="utf-8"?>
<!-- Generator: Adobe Illustrator 22.0.0, SVG Export Plug-In . SVG Version: 6.00 Build 0)  -->
<svg version="1.1" id="Layer_1" xmlns="http://www.w3.org/2000/svg" xmlns:xlink="http://www.w3.org/1999/xlink" x="0px" y="0px"
	 viewBox="0 0 30 30" style="enable-background:new 0 0 30 30;" xml:space="preserve">
<style type="text/css">
	.st0{fill:#231F20;}
	.st1{fill:none;stroke:#231F20;}
</style>
<g>
	<path class="st0" d="M18.1,19.1c0,0.1,0,0.1,0,0.1c-0.1,0.3-0.3,0.6-0.5,0.9s-0.5,0.7-0.8,1s-0.7,0.6-1.1,0.8
		c-0.4,0.2-1,0.3-1.5,0.3c-0.6,0-1.1,0-1.5-0.1s-0.8-0.2-1.1-0.5c-0.3-0.2-0.6-0.5-0.7-0.8c-0.2-0.3-0.2-0.8-0.2-1.3s0.1-1.2,0.3-2
		l1.4-5.2l-1.2,0.1l0.1-0.4l6.5-0.7l-2.4,9.1c0,0.1,0,0.2,0,0.3c0,0.3,0.1,0.5,0.4,0.5c0.2,0,0.6-0.2,0.9-0.5
		c0.4-0.3,0.8-0.9,1.1-1.7c0.1-0.1,0.1-0.1,0.2-0.1C18.1,18.9,18.1,19,18.1,19.1z M18.3,9.3C18.2,9.6,18,9.8,17.7,10
		c-0.3,0.2-0.6,0.4-1,0.5s-0.9,0.2-1.4,0.2c-0.9,0-1.6-0.2-2.1-0.6c-0.4-0.4-0.7-0.8-0.7-1.2c0-0.3,0.1-0.5,0.2-0.8
		c0.1-0.3,0.3-0.5,0.6-0.7s0.6-0.4,1-0.5s0.9-0.2,1.4-0.2c0.9,0,1.6,0.2,2.1,0.6c0.4,0.4,0.7,0.8,0.7,1.2
		C18.5,8.8,18.4,9.1,18.3,9.3z"/>
</g>
<g>
	<circle class="st1" cx="15" cy="15" r="14.2"/>
</g>
</svg>
