<?xml version="1.0" encoding="utf-8"?>
<!-- Generator: Adobe Illustrator 22.0.0, SVG Export Plug-In . SVG Version: 6.00 Build 0)  -->
<svg version="1.1" id="Layer_1" xmlns="http://www.w3.org/2000/svg" xmlns:xlink="http://www.w3.org/1999/xlink" x="0px" y="0px"
	 viewBox="0 0 30 30" style="enable-background:new 0 0 30 30;" xml:space="preserve">
<style type="text/css">
	.st0{fill:none;stroke:#231F20;}
	.st1{fill:#231F20;}
</style>
<g>
	<g>
		<circle class="st0" cx="15" cy="15" r="14.2"/>
	</g>
	<g>
		<path class="st1" d="M22.5,11.2l-4.2-4.2c0.6-0.4,1.2-0.7,1.9-0.7c0.8,0,1.6,0.3,2.1,0.9s0.9,1.3,0.9,2.1
			C23.1,9.9,22.9,10.6,22.5,11.2 M12.1,21.5l-1.8-1.8l9.7-9.7l1.8,1.8L12.1,21.5z M17.5,7.6l1.8,1.8l-9.7,9.7l-1.7-1.8L17.5,7.6z
			 M23,6.4c-1.6-1.6-4.2-1.6-5.8,0L6.7,17c-0.1,0.1-0.1,0.2-0.1,0.3l-0.8,5.8c0,0.1,0,0.3,0.1,0.4c0.1,0.1,0.2,0.1,0.3,0.1
			c0,0,0,0,0.1,0l3.5-0.4c0.3,0,0.4-0.3,0.4-0.6c0-0.3-0.3-0.4-0.6-0.4l-2.8,0.3l0.6-4.1l4.2,4.2c0.1,0.1,0.2,0.1,0.3,0.1
			s0.2,0,0.3-0.1l10.6-10.6c0.8-0.8,1.2-1.8,1.2-2.9C24.2,8.2,23.8,7.2,23,6.4"/>
	</g>
</g>
</svg>
