<?xml version="1.0" encoding="utf-8"?>
<!-- Generator: Adobe Illustrator 22.0.0, SVG Export Plug-In . SVG Version: 6.00 Build 0)  -->
<svg version="1.1" id="Layer_1" xmlns="http://www.w3.org/2000/svg" xmlns:xlink="http://www.w3.org/1999/xlink" x="0px" y="0px"
	 viewBox="0 0 30 30" style="enable-background:new 0 0 30 30;" xml:space="preserve">
<style type="text/css">
	.st0{fill:none;stroke:#231F20;}
	.st1{fill:#231F20;}
</style>
<g>
	<circle class="st0" cx="15" cy="15" r="14.2"/>
</g>
<path d="M21.3,22.6h-12V7h8.8v3.6h3.2V22.6z M21.1,10.1h-2.6V7.3L21.1,10.1z M21.6,10.1l-3.1-3.4V6.4H8.8V23h13V10h-0.2V10.1z"/>
<g>
	<path class="st1" d="M14.4,18v-1.6h0.9c0.5,0,0.5,0.5,0.5,0.5v1h1.1v-4.1h-1.1v1c0,0.5-0.5,0.5-0.5,0.5h-0.9v-4.1H10v1.7
		c1.1,0,1,0.8,1,0.8V18c0,0.8-1,0.7-1,0.7v1.8h4.4V18z"/>
	<path class="st1" d="M17.6,14.1v0.6h1.8v-3.6h-4.2v1.8h1.1C16.4,12.9,17.6,13,17.6,14.1"/>
	<path class="st1" d="M17.6,17.6c0,1.1-1.2,1.2-1.2,1.2h-1.1v1.8h4.2v-3.9h-1.8v0.9H17.6z"/>
</g>
</svg>
