<?xml version="1.0" encoding="utf-8"?>
<!-- Generator: Adobe Illustrator 22.0.0, SVG Export Plug-In . SVG Version: 6.00 Build 0)  -->
<svg version="1.1" id="Layer_1" xmlns="http://www.w3.org/2000/svg" xmlns:xlink="http://www.w3.org/1999/xlink" x="0px" y="0px"
	 viewBox="0 0 30 30" style="enable-background:new 0 0 30 30;" xml:space="preserve">
<style type="text/css">
	.st0{fill:none;stroke:#231F20;}
	.st1{fill:#231F20;}
</style>
<g>
	<circle class="st0" cx="15" cy="15" r="14.2"/>
</g>
<polygon class="st1" points="11,17.3 11.1,3.2 9.9,3.2 9.8,17.3 9.8,18.4 11,18.4 12.2,18.4 12.2,17.3 "/>
<rect x="11.1" y="4.4" transform="matrix(2.075520e-03 -1 1 2.075520e-03 6.6704 16.6162)" class="st1" width="1.2" height="1.1"/>
<rect x="12.1" y="5.5" transform="matrix(3.112273e-03 -1 1 3.112273e-03 6.5809 18.7838)" class="st1" width="1.2" height="1.1"/>
<polygon class="st1" points="13.3,7.9 14.5,7.9 14.5,6.7 13.3,6.7 "/>
<rect x="14.4" y="7.9" transform="matrix(2.073370e-03 -1 1 2.073370e-03 6.537 23.4368)" class="st1" width="1.2" height="1.1"/>
<rect x="15.6" y="9.1" transform="matrix(3.112273e-03 -1 1 3.112273e-03 6.4425 25.7999)" class="st1" width="1.2" height="1.1"/>
<rect x="16.7" y="10.3" transform="matrix(3.112273e-03 -1 1 3.112273e-03 6.428 28.1716)" class="st1" width="1.2" height="1.1"/>
<rect x="17.9" y="11.4" transform="matrix(3.112273e-03 -1 1 3.112273e-03 6.449 30.4439)" class="st1" width="1.2" height="1.1"/>
<rect x="17.8" y="13.8" transform="matrix(3.115506e-03 -1 1 3.115506e-03 4.0103 32.7244)" class="st1" width="1.2" height="1.1"/>
<rect x="16.7" y="13.9" transform="matrix(1.036688e-03 -1 1 1.036688e-03 2.8546 31.6721)" class="st1" width="1.2" height="1.1"/>
<rect x="17.9" y="23.3" transform="matrix(3.112273e-03 -1 1 3.112273e-03 -5.4624 42.2444)" class="st1" width="1.2" height="1.1"/>
<rect x="12.2" y="16.1" transform="matrix(3.109050e-03 -1 1 3.109050e-03 -3.9827 29.3934)" class="st1" width="1.2" height="1.1"/>
<polygon class="st1" points="15.6,15 15.6,16.2 16.7,16.2 16.7,15 16.7,13.8 15.6,13.8 "/>
<polygon class="st1" points="16.7,17.4 16.7,18.5 17.9,18.5 17.9,17.4 17.9,16.2 16.7,16.2 "/>
<polygon class="st1" points="17.9,19.7 17.9,20.9 19,20.9 19,19.7 19,18.5 17.9,18.5 "/>
<polygon class="st1" points="19,22.1 19,23.2 20.1,23.2 20.2,22.1 20.2,20.9 19,20.9 "/>
<polygon class="st1" points="16.7,23.2 16.7,24.4 17.9,24.4 17.9,23.2 17.9,22 16.7,22 "/>
<polygon class="st1" points="15.6,20.9 15.6,22 16.7,22 16.7,20.9 16.7,19.7 15.6,19.7 "/>
<polygon class="st1" points="14.5,18.5 14.5,19.7 15.6,19.7 15.6,18.5 15.6,17.3 14.5,17.3 "/>
<polygon class="st1" points="13.3,16.2 13.3,17.3 14.5,17.3 14.5,16.2 14.5,15 13.3,15 "/>
<polygon class="st1" points="19,13.8 19,15 20.2,15 20.2,13.8 20.2,12.6 19,12.6 "/>
</svg>
