<?xml version="1.0" encoding="utf-8"?>
<!-- Generator: Adobe Illustrator 21.1.0, SVG Export Plug-In . SVG Version: 6.00 Build 0)  -->
<svg version="1.1" id="Layer_1" xmlns="http://www.w3.org/2000/svg" xmlns:xlink="http://www.w3.org/1999/xlink" x="0px" y="0px"
	 viewBox="0 0 22 22" style="enable-background:new 0 0 22 22;" xml:space="preserve">
<style type="text/css">
	.st0{clip-path:url(#SVGID_2_);fill:#231F20;}
</style>
<g>
	<defs>
		<rect id="SVGID_1_" y="0" width="22" height="22"/>
	</defs>
	<clipPath id="SVGID_2_">
		<use xlink:href="#SVGID_1_"  style="overflow:visible;"/>
	</clipPath>
	<path class="st0" d="M11,6.7c-2.4,0-4.4,1.9-4.4,4.3c0,2.4,2,4.3,4.4,4.3c2.4,0,4.4-1.9,4.4-4.3C15.4,8.6,13.5,6.7,11,6.7
		 M19.5,9.3h-1.9c0.2,0.6,0.3,1.2,0.3,1.9c0,3.7-3.1,6.6-6.8,6.6c-3.8,0-6.8-3-6.8-6.6c0-0.7,0.1-1.3,0.3-1.9h-2v9.3
		c0,0.5,0.4,0.9,0.9,0.9h15.3c0.5,0,0.9-0.4,0.9-0.9V9.3z M16,2.4c-0.5,0-1,0.4-1,1v2.4c0,0.5,0.4,1,1,1h2.5c0.5,0,1-0.4,1-1V3.4
		c0-0.5-0.4-1-1-1H16z M2.8,0h16.4C20.7,0,22,1.3,22,2.8v16.4c0,1.6-1.3,2.8-2.8,2.8H2.8C1.3,22,0,20.7,0,19.2V2.8
		C0,1.3,1.3,0,2.8,0"/>
</g>
</svg>
