<?xml version="1.0" encoding="utf-8"?><svg id="Letterbox_LoadingCircle" image-rendering="auto" baseProfile="basic" version="1.1" x="0px" y="0px" width="64" height="64" xmlns="http://www.w3.org/2000/svg" xmlns:xlink="http://www.w3.org/1999/xlink"><g id="Scene-1-copy-copy-copy" overflow="visible"><g display="none" id="Layer226_0_FILL"><path fill="#BB1A30" stroke="none" d="M63.15 34.1Q64 33.2 64 32 64 30.75 63.15 29.9 62.3 29.05 61.05 29.05 59.85 29.05 59 29.9 58.1 30.75 58.1 32 58.1 33.2 59 34.1 59.85 34.95 61.05 34.95 62.3 34.95 63.15 34.1Z"/><path fill="#BB1A30" stroke="none" d="M44.5 61.2Q45.65 60.75 46.1 59.65 46.6 58.5 46.1 57.4 45.65 56.25 44.5 55.8 43.35 55.3 42.25 55.8 41.15 56.25 40.65 57.4 40.2 58.5 40.65 59.65 41.15 60.8 42.25 61.25 43.4 61.7 44.5 61.2Z"/><path fill="#BB1A30" stroke="none" d="M29.95 63.15Q30.8 64 32 64 33.25 64 34.1 63.15 34.95 62.25 34.95 61.05 34.95 59.8 34.1 58.95 33.25 58.1 32 58.1 30.8 58.1 29.95 58.95 29.05 59.8 29.05 61.05 29.05 62.25 29.95 63.15Z"/><path fill="#BB1A30" stroke="none" d="M55.75 52.35Q55.75 51.1 54.9 50.25 54.05 49.4 52.8 49.4 51.55 49.4 50.7 50.25 49.85 51.1 49.85 52.35 49.85 53.55 50.7 54.4 51.55 55.25 52.8 55.25 54.05 55.25 54.9 54.4 55.75 53.55 55.75 52.35Z"/><path fill="#BB1A30" stroke="none" d="M55.75 43.1Q55.75 44.3 56.6 45.15 57.45 46 58.7 46 59.9 46 60.75 45.15 61.6 44.3 61.6 43.1 61.6 41.85 60.75 41 59.9 40.15 58.7 40.15 57.45 40.15 56.6 41 55.75 41.85 55.75 43.1Z"/><path fill="#BB1A30" stroke="none" d="M0 32Q0 33.2 .85 34.1 1.7 34.95 2.95 34.95 4.15 34.95 5.05 34.1 5.9 33.2 5.9 32 5.9 30.75 5.05 29.9 4.15 29.05 2.95 29.05 1.7 29.05 .85 29.9 0 30.75 0 32Z"/><path fill="#BB1A30" stroke="none" d="M17.9 59.65Q18.4 60.75 19.5 61.2 20.6 61.7 21.75 61.25 22.85 60.8 23.35 59.65 23.8 58.5 23.35 57.4 22.85 56.25 21.75 55.8 20.65 55.3 19.5 55.8 18.35 56.25 17.9 57.4 17.45 58.55 17.9 59.65Z"/><path fill="#BB1A30" stroke="none" d="M9.15 54.4Q10 55.25 11.25 55.25 12.45 55.25 13.3 54.4 14.15 53.55 14.15 52.35 14.15 51.1 13.3 50.25 12.45 49.4 11.25 49.4 10 49.4 9.15 50.25 8.3 51.1 8.3 52.35 8.3 53.55 9.15 54.4Z"/><path fill="#BB1A30" stroke="none" d="M7.4 45.15Q8.25 44.3 8.25 43.1 8.25 41.85 7.4 41 6.55 40.15 5.35 40.15 4.1 40.15 3.25 41 2.4 41.85 2.4 43.1 2.4 44.3 3.25 45.15 4.1 46 5.35 46 6.55 46 7.4 45.15Z"/><path fill="#BB1A30" stroke="none" d="M46.1 4.35Q45.6 3.2 44.5 2.75 43.4 2.25 42.25 2.75 41.1 3.2 40.65 4.35 40.15 5.45 40.65 6.6 41.1 7.7 42.25 8.2 43.4 8.65 44.5 8.2 45.6 7.75 46.1 6.6 46.55 5.45 46.1 4.35Z"/><path fill="#BB1A30" stroke="none" d="M54.85 13.7Q55.7 12.85 55.7 11.65 55.7 10.4 54.85 9.55 54 8.7 52.8 8.7 51.55 8.7 50.7 9.55 49.85 10.4 49.85 11.65 49.85 12.85 50.7 13.7 51.55 14.55 52.8 14.55 54 14.55 54.85 13.7Z"/><path fill="#BB1A30" stroke="none" d="M60.75 18.85Q59.9 18 58.65 18 57.4 18 56.55 18.85 55.7 19.7 55.7 20.95 55.7 22.15 56.55 23 57.4 23.85 58.65 23.85 59.9 23.85 60.75 23 61.6 22.15 61.6 20.95 61.6 19.7 60.75 18.85Z"/><path fill="#BB1A30" stroke="none" d="M19.45 2.75Q18.35 3.2 17.85 4.35 17.4 5.45 17.85 6.6 18.35 7.75 19.45 8.2 20.6 8.65 21.7 8.2 22.85 7.7 23.3 6.6 23.8 5.45 23.3 4.35 22.85 3.2 21.7 2.75 20.55 2.25 19.45 2.75Z"/><path fill="#BB1A30" stroke="none" d="M11.2 8.7Q9.95 8.7 9.1 9.55 8.25 10.4 8.25 11.65 8.25 12.85 9.1 13.7 9.95 14.55 11.2 14.55 12.4 14.55 13.25 13.7 14.1 12.85 14.1 11.65 14.1 10.4 13.25 9.55 12.4 8.7 11.2 8.7Z"/><path fill="#BB1A30" stroke="none" d="M5.3 18Q4.05 18 3.2 18.85 2.35 19.7 2.35 20.95 2.35 22.15 3.2 23 4.05 23.85 5.3 23.85 6.55 23.85 7.4 23 8.25 22.15 8.25 20.95 8.25 19.7 7.4 18.85 6.55 18 5.3 18Z"/><animate attributeName="display" repeatCount="indefinite" dur="2s" keyTimes="0;.938;1" values="none;inline;inline"/></g><g display="none" id="Layer211_0_FILL"><path fill="#BB1A30" stroke="none" d="M63.15 34.1Q64 33.2 64 32 64 30.75 63.15 29.9 62.3 29.05 61.05 29.05 59.85 29.05 59 29.9 58.1 30.75 58.1 32 58.1 33.2 59 34.1 59.85 34.95 61.05 34.95 62.3 34.95 63.15 34.1Z"/><path fill="#BB1A30" stroke="none" d="M44.5 61.2Q45.65 60.75 46.1 59.65 46.6 58.5 46.1 57.4 45.65 56.25 44.5 55.8 43.35 55.3 42.25 55.8 41.15 56.25 40.65 57.4 40.2 58.5 40.65 59.65 41.15 60.8 42.25 61.25 43.4 61.7 44.5 61.2Z"/><path fill="#BB1A30" stroke="none" d="M29.95 63.15Q30.8 64 32 64 33.25 64 34.1 63.15 34.95 62.25 34.95 61.05 34.95 59.8 34.1 58.95 33.25 58.1 32 58.1 30.8 58.1 29.95 58.95 29.05 59.8 29.05 61.05 29.05 62.25 29.95 63.15Z"/><path fill="#BB1A30" stroke="none" d="M55.75 52.35Q55.75 51.1 54.9 50.25 54.05 49.4 52.8 49.4 51.55 49.4 50.7 50.25 49.85 51.1 49.85 52.35 49.85 53.55 50.7 54.4 51.55 55.25 52.8 55.25 54.05 55.25 54.9 54.4 55.75 53.55 55.75 52.35Z"/><path fill="#BB1A30" stroke="none" d="M55.75 43.1Q55.75 44.3 56.6 45.15 57.45 46 58.7 46 59.9 46 60.75 45.15 61.6 44.3 61.6 43.1 61.6 41.85 60.75 41 59.9 40.15 58.7 40.15 57.45 40.15 56.6 41 55.75 41.85 55.75 43.1Z"/><path fill="#BB1A30" stroke="none" d="M0 32Q0 33.2 .85 34.1 1.7 34.95 2.95 34.95 4.15 34.95 5.05 34.1 5.9 33.2 5.9 32 5.9 30.75 5.05 29.9 4.15 29.05 2.95 29.05 1.7 29.05 .85 29.9 0 30.75 0 32Z"/><path fill="#BB1A30" stroke="none" d="M17.9 59.65Q18.4 60.75 19.5 61.2 20.6 61.7 21.75 61.25 22.85 60.8 23.35 59.65 23.8 58.5 23.35 57.4 22.85 56.25 21.75 55.8 20.65 55.3 19.5 55.8 18.35 56.25 17.9 57.4 17.45 58.55 17.9 59.65Z"/><path fill="#BB1A30" stroke="none" d="M9.15 54.4Q10 55.25 11.25 55.25 12.45 55.25 13.3 54.4 14.15 53.55 14.15 52.35 14.15 51.1 13.3 50.25 12.45 49.4 11.25 49.4 10 49.4 9.15 50.25 8.3 51.1 8.3 52.35 8.3 53.55 9.15 54.4Z"/><path fill="#BB1A30" stroke="none" d="M7.4 45.15Q8.25 44.3 8.25 43.1 8.25 41.85 7.4 41 6.55 40.15 5.35 40.15 4.1 40.15 3.25 41 2.4 41.85 2.4 43.1 2.4 44.3 3.25 45.15 4.1 46 5.35 46 6.55 46 7.4 45.15Z"/><path fill="#BB1A30" stroke="none" d="M46.1 4.35Q45.6 3.2 44.5 2.75 43.4 2.25 42.25 2.75 41.1 3.2 40.65 4.35 40.15 5.45 40.65 6.6 41.1 7.7 42.25 8.2 43.4 8.65 44.5 8.2 45.6 7.75 46.1 6.6 46.55 5.45 46.1 4.35Z"/><path fill="#BB1A30" stroke="none" d="M31.95 0Q30.75 0 29.9 .85 29.05 1.7 29.05 2.95 29.05 4.15 29.9 5 30.75 5.85 31.95 5.85 33.2 5.85 34.05 5 34.9 4.15 34.9 2.95 34.9 1.7 34.05 .85 33.2 0 31.95 0Z"/><path fill="#BB1A30" stroke="none" d="M54.85 13.7Q55.7 12.85 55.7 11.65 55.7 10.4 54.85 9.55 54 8.7 52.8 8.7 51.55 8.7 50.7 9.55 49.85 10.4 49.85 11.65 49.85 12.85 50.7 13.7 51.55 14.55 52.8 14.55 54 14.55 54.85 13.7Z"/><path fill="#BB1A30" stroke="none" d="M60.75 18.85Q59.9 18 58.65 18 57.4 18 56.55 18.85 55.7 19.7 55.7 20.95 55.7 22.15 56.55 23 57.4 23.85 58.65 23.85 59.9 23.85 60.75 23 61.6 22.15 61.6 20.95 61.6 19.7 60.75 18.85Z"/><path fill="#BB1A30" stroke="none" d="M11.2 8.7Q9.95 8.7 9.1 9.55 8.25 10.4 8.25 11.65 8.25 12.85 9.1 13.7 9.95 14.55 11.2 14.55 12.4 14.55 13.25 13.7 14.1 12.85 14.1 11.65 14.1 10.4 13.25 9.55 12.4 8.7 11.2 8.7Z"/><path fill="#BB1A30" stroke="none" d="M5.3 18Q4.05 18 3.2 18.85 2.35 19.7 2.35 20.95 2.35 22.15 3.2 23 4.05 23.85 5.3 23.85 6.55 23.85 7.4 23 8.25 22.15 8.25 20.95 8.25 19.7 7.4 18.85 6.55 18 5.3 18Z"/><animate attributeName="display" repeatCount="indefinite" dur="2s" keyTimes="0;.875;.938;1" values="none;inline;none;none"/></g><g display="none" id="Layer196_0_FILL"><path fill="#BB1A30" stroke="none" d="M63.15 34.1Q64 33.2 64 32 64 30.75 63.15 29.9 62.3 29.05 61.05 29.05 59.85 29.05 59 29.9 58.1 30.75 58.1 32 58.1 33.2 59 34.1 59.85 34.95 61.05 34.95 62.3 34.95 63.15 34.1Z"/><path fill="#BB1A30" stroke="none" d="M44.5 61.2Q45.65 60.75 46.1 59.65 46.6 58.5 46.1 57.4 45.65 56.25 44.5 55.8 43.35 55.3 42.25 55.8 41.15 56.25 40.65 57.4 40.2 58.5 40.65 59.65 41.15 60.8 42.25 61.25 43.4 61.7 44.5 61.2Z"/><path fill="#BB1A30" stroke="none" d="M29.95 63.15Q30.8 64 32 64 33.25 64 34.1 63.15 34.95 62.25 34.95 61.05 34.95 59.8 34.1 58.95 33.25 58.1 32 58.1 30.8 58.1 29.95 58.95 29.05 59.8 29.05 61.05 29.05 62.25 29.95 63.15Z"/><path fill="#BB1A30" stroke="none" d="M55.75 52.35Q55.75 51.1 54.9 50.25 54.05 49.4 52.8 49.4 51.55 49.4 50.7 50.25 49.85 51.1 49.85 52.35 49.85 53.55 50.7 54.4 51.55 55.25 52.8 55.25 54.05 55.25 54.9 54.4 55.75 53.55 55.75 52.35Z"/><path fill="#BB1A30" stroke="none" d="M55.75 43.1Q55.75 44.3 56.6 45.15 57.45 46 58.7 46 59.9 46 60.75 45.15 61.6 44.3 61.6 43.1 61.6 41.85 60.75 41 59.9 40.15 58.7 40.15 57.45 40.15 56.6 41 55.75 41.85 55.75 43.1Z"/><path fill="#BB1A30" stroke="none" d="M0 32Q0 33.2 .85 34.1 1.7 34.95 2.95 34.95 4.15 34.95 5.05 34.1 5.9 33.2 5.9 32 5.9 30.75 5.05 29.9 4.15 29.05 2.95 29.05 1.7 29.05 .85 29.9 0 30.75 0 32Z"/><path fill="#BB1A30" stroke="none" d="M17.9 59.65Q18.4 60.75 19.5 61.2 20.6 61.7 21.75 61.25 22.85 60.8 23.35 59.65 23.8 58.5 23.35 57.4 22.85 56.25 21.75 55.8 20.65 55.3 19.5 55.8 18.35 56.25 17.9 57.4 17.45 58.55 17.9 59.65Z"/><path fill="#BB1A30" stroke="none" d="M9.15 54.4Q10 55.25 11.25 55.25 12.45 55.25 13.3 54.4 14.15 53.55 14.15 52.35 14.15 51.1 13.3 50.25 12.45 49.4 11.25 49.4 10 49.4 9.15 50.25 8.3 51.1 8.3 52.35 8.3 53.55 9.15 54.4Z"/><path fill="#BB1A30" stroke="none" d="M7.4 45.15Q8.25 44.3 8.25 43.1 8.25 41.85 7.4 41 6.55 40.15 5.35 40.15 4.1 40.15 3.25 41 2.4 41.85 2.4 43.1 2.4 44.3 3.25 45.15 4.1 46 5.35 46 6.55 46 7.4 45.15Z"/><path fill="#BB1A30" stroke="none" d="M46.1 4.35Q45.6 3.2 44.5 2.75 43.4 2.25 42.25 2.75 41.1 3.2 40.65 4.35 40.15 5.45 40.65 6.6 41.1 7.7 42.25 8.2 43.4 8.65 44.5 8.2 45.6 7.75 46.1 6.6 46.55 5.45 46.1 4.35Z"/><path fill="#BB1A30" stroke="none" d="M31.95 0Q30.75 0 29.9 .85 29.05 1.7 29.05 2.95 29.05 4.15 29.9 5 30.75 5.85 31.95 5.85 33.2 5.85 34.05 5 34.9 4.15 34.9 2.95 34.9 1.7 34.05 .85 33.2 0 31.95 0Z"/><path fill="#BB1A30" stroke="none" d="M54.85 13.7Q55.7 12.85 55.7 11.65 55.7 10.4 54.85 9.55 54 8.7 52.8 8.7 51.55 8.7 50.7 9.55 49.85 10.4 49.85 11.65 49.85 12.85 50.7 13.7 51.55 14.55 52.8 14.55 54 14.55 54.85 13.7Z"/><path fill="#BB1A30" stroke="none" d="M60.75 18.85Q59.9 18 58.65 18 57.4 18 56.55 18.85 55.7 19.7 55.7 20.95 55.7 22.15 56.55 23 57.4 23.85 58.65 23.85 59.9 23.85 60.75 23 61.6 22.15 61.6 20.95 61.6 19.7 60.75 18.85Z"/><path fill="#BB1A30" stroke="none" d="M19.45 2.75Q18.35 3.2 17.85 4.35 17.4 5.45 17.85 6.6 18.35 7.75 19.45 8.2 20.6 8.65 21.7 8.2 22.85 7.7 23.3 6.6 23.8 5.45 23.3 4.35 22.85 3.2 21.7 2.75 20.55 2.25 19.45 2.75Z"/><path fill="#BB1A30" stroke="none" d="M5.3 18Q4.05 18 3.2 18.85 2.35 19.7 2.35 20.95 2.35 22.15 3.2 23 4.05 23.85 5.3 23.85 6.55 23.85 7.4 23 8.25 22.15 8.25 20.95 8.25 19.7 7.4 18.85 6.55 18 5.3 18Z"/><animate attributeName="display" repeatCount="indefinite" dur="2s" keyTimes="0;.813;.875;1" values="none;inline;none;none"/></g><g display="none" id="Layer181_0_FILL"><path fill="#BB1A30" stroke="none" d="M63.15 34.1Q64 33.2 64 32 64 30.75 63.15 29.9 62.3 29.05 61.05 29.05 59.85 29.05 59 29.9 58.1 30.75 58.1 32 58.1 33.2 59 34.1 59.85 34.95 61.05 34.95 62.3 34.95 63.15 34.1Z"/><path fill="#BB1A30" stroke="none" d="M44.5 61.2Q45.65 60.75 46.1 59.65 46.6 58.5 46.1 57.4 45.65 56.25 44.5 55.8 43.35 55.3 42.25 55.8 41.15 56.25 40.65 57.4 40.2 58.5 40.65 59.65 41.15 60.8 42.25 61.25 43.4 61.7 44.5 61.2Z"/><path fill="#BB1A30" stroke="none" d="M29.95 63.15Q30.8 64 32 64 33.25 64 34.1 63.15 34.95 62.25 34.95 61.05 34.95 59.8 34.1 58.95 33.25 58.1 32 58.1 30.8 58.1 29.95 58.95 29.05 59.8 29.05 61.05 29.05 62.25 29.95 63.15Z"/><path fill="#BB1A30" stroke="none" d="M55.75 52.35Q55.75 51.1 54.9 50.25 54.05 49.4 52.8 49.4 51.55 49.4 50.7 50.25 49.85 51.1 49.85 52.35 49.85 53.55 50.7 54.4 51.55 55.25 52.8 55.25 54.05 55.25 54.9 54.4 55.75 53.55 55.75 52.35Z"/><path fill="#BB1A30" stroke="none" d="M55.75 43.1Q55.75 44.3 56.6 45.15 57.45 46 58.7 46 59.9 46 60.75 45.15 61.6 44.3 61.6 43.1 61.6 41.85 60.75 41 59.9 40.15 58.7 40.15 57.45 40.15 56.6 41 55.75 41.85 55.75 43.1Z"/><path fill="#BB1A30" stroke="none" d="M0 32Q0 33.2 .85 34.1 1.7 34.95 2.95 34.95 4.15 34.95 5.05 34.1 5.9 33.2 5.9 32 5.9 30.75 5.05 29.9 4.15 29.05 2.95 29.05 1.7 29.05 .85 29.9 0 30.75 0 32Z"/><path fill="#BB1A30" stroke="none" d="M17.9 59.65Q18.4 60.75 19.5 61.2 20.6 61.7 21.75 61.25 22.85 60.8 23.35 59.65 23.8 58.5 23.35 57.4 22.85 56.25 21.75 55.8 20.65 55.3 19.5 55.8 18.35 56.25 17.9 57.4 17.45 58.55 17.9 59.65Z"/><path fill="#BB1A30" stroke="none" d="M9.15 54.4Q10 55.25 11.25 55.25 12.45 55.25 13.3 54.4 14.15 53.55 14.15 52.35 14.15 51.1 13.3 50.25 12.45 49.4 11.25 49.4 10 49.4 9.15 50.25 8.3 51.1 8.3 52.35 8.3 53.55 9.15 54.4Z"/><path fill="#BB1A30" stroke="none" d="M7.4 45.15Q8.25 44.3 8.25 43.1 8.25 41.85 7.4 41 6.55 40.15 5.35 40.15 4.1 40.15 3.25 41 2.4 41.85 2.4 43.1 2.4 44.3 3.25 45.15 4.1 46 5.35 46 6.55 46 7.4 45.15Z"/><path fill="#BB1A30" stroke="none" d="M46.1 4.35Q45.6 3.2 44.5 2.75 43.4 2.25 42.25 2.75 41.1 3.2 40.65 4.35 40.15 5.45 40.65 6.6 41.1 7.7 42.25 8.2 43.4 8.65 44.5 8.2 45.6 7.75 46.1 6.6 46.55 5.45 46.1 4.35Z"/><path fill="#BB1A30" stroke="none" d="M31.95 0Q30.75 0 29.9 .85 29.05 1.7 29.05 2.95 29.05 4.15 29.9 5 30.75 5.85 31.95 5.85 33.2 5.85 34.05 5 34.9 4.15 34.9 2.95 34.9 1.7 34.05 .85 33.2 0 31.95 0Z"/><path fill="#BB1A30" stroke="none" d="M54.85 13.7Q55.7 12.85 55.7 11.65 55.7 10.4 54.85 9.55 54 8.7 52.8 8.7 51.55 8.7 50.7 9.55 49.85 10.4 49.85 11.65 49.85 12.85 50.7 13.7 51.55 14.55 52.8 14.55 54 14.55 54.85 13.7Z"/><path fill="#BB1A30" stroke="none" d="M60.75 18.85Q59.9 18 58.65 18 57.4 18 56.55 18.85 55.7 19.7 55.7 20.95 55.7 22.15 56.55 23 57.4 23.85 58.65 23.85 59.9 23.85 60.75 23 61.6 22.15 61.6 20.95 61.6 19.7 60.75 18.85Z"/><path fill="#BB1A30" stroke="none" d="M19.45 2.75Q18.35 3.2 17.85 4.35 17.4 5.45 17.85 6.6 18.35 7.75 19.45 8.2 20.6 8.65 21.7 8.2 22.85 7.7 23.3 6.6 23.8 5.45 23.3 4.35 22.85 3.2 21.7 2.75 20.55 2.25 19.45 2.75Z"/><path fill="#BB1A30" stroke="none" d="M11.2 8.7Q9.95 8.7 9.1 9.55 8.25 10.4 8.25 11.65 8.25 12.85 9.1 13.7 9.95 14.55 11.2 14.55 12.4 14.55 13.25 13.7 14.1 12.85 14.1 11.65 14.1 10.4 13.25 9.55 12.4 8.7 11.2 8.7Z"/><animate attributeName="display" repeatCount="indefinite" dur="2s" keyTimes="0;.75;.813;1" values="none;inline;none;none"/></g><g display="none" id="Layer166_0_FILL"><path fill="#BB1A30" stroke="none" d="M63.1 34.1Q63.95 33.2 63.95 32 63.95 30.75 63.1 29.9 62.25 29.05 61 29.05 59.8 29.05 58.95 29.9 58.05 30.75 58.05 32 58.05 33.2 58.95 34.1 59.8 34.95 61 34.95 62.25 34.95 63.1 34.1Z"/><path fill="#BB1A30" stroke="none" d="M44.45 61.2Q45.6 60.75 46.05 59.65 46.55 58.5 46.05 57.4 45.6 56.25 44.45 55.8 43.3 55.3 42.2 55.8 41.1 56.25 40.6 57.4 40.15 58.5 40.6 59.65 41.1 60.8 42.2 61.25 43.35 61.7 44.45 61.2Z"/><path fill="#BB1A30" stroke="none" d="M29.9 63.15Q30.75 64 31.95 64 33.2 64 34.05 63.15 34.9 62.25 34.9 61.05 34.9 59.8 34.05 58.95 33.2 58.1 31.95 58.1 30.75 58.1 29.9 58.95 29 59.8 29 61.05 29 62.25 29.9 63.15Z"/><path fill="#BB1A30" stroke="none" d="M55.7 52.35Q55.7 51.1 54.85 50.25 54 49.4 52.75 49.4 51.5 49.4 50.65 50.25 49.8 51.1 49.8 52.35 49.8 53.55 50.65 54.4 51.5 55.25 52.75 55.25 54 55.25 54.85 54.4 55.7 53.55 55.7 52.35Z"/><path fill="#BB1A30" stroke="none" d="M55.7 43.1Q55.7 44.3 56.55 45.15 57.4 46 58.65 46 59.85 46 60.7 45.15 61.55 44.3 61.55 43.1 61.55 41.85 60.7 41 59.85 40.15 58.65 40.15 57.4 40.15 56.55 41 55.7 41.85 55.7 43.1Z"/><path fill="#BB1A30" stroke="none" d="M17.9 59.65Q18.4 60.75 19.5 61.2 20.6 61.7 21.75 61.25 22.85 60.8 23.35 59.65 23.8 58.5 23.35 57.4 22.85 56.25 21.75 55.8 20.65 55.3 19.5 55.8 18.35 56.25 17.9 57.4 17.45 58.55 17.9 59.65Z"/><path fill="#BB1A30" stroke="none" d="M9.1 54.4Q9.95 55.25 11.2 55.25 12.4 55.25 13.25 54.4 14.1 53.55 14.1 52.35 14.1 51.1 13.25 50.25 12.4 49.4 11.2 49.4 9.95 49.4 9.1 50.25 8.25 51.1 8.25 52.35 8.25 53.55 9.1 54.4Z"/><path fill="#BB1A30" stroke="none" d="M7.35 45.15Q8.2 44.3 8.2 43.1 8.2 41.85 7.35 41 6.5 40.15 5.3 40.15 4.05 40.15 3.2 41 2.35 41.85 2.35 43.1 2.35 44.3 3.2 45.15 4.05 46 5.3 46 6.5 46 7.35 45.15Z"/><path fill="#BB1A30" stroke="none" d="M46.05 4.35Q45.55 3.2 44.45 2.75 43.35 2.25 42.2 2.75 41.05 3.2 40.6 4.35 40.1 5.45 40.6 6.6 41.05 7.7 42.2 8.2 43.35 8.65 44.45 8.2 45.55 7.75 46.05 6.6 46.5 5.45 46.05 4.35Z"/><path fill="#BB1A30" stroke="none" d="M31.9 0Q30.7 0 29.85 .85 29 1.7 29 2.95 29 4.15 29.85 5 30.7 5.85 31.9 5.85 33.15 5.85 34 5 34.85 4.15 34.85 2.95 34.85 1.7 34 .85 33.15 0 31.9 0Z"/><path fill="#BB1A30" stroke="none" d="M54.8 13.7Q55.65 12.85 55.65 11.65 55.65 10.4 54.8 9.55 53.95 8.7 52.75 8.7 51.5 8.7 50.65 9.55 49.8 10.4 49.8 11.65 49.8 12.85 50.65 13.7 51.5 14.55 52.75 14.55 53.95 14.55 54.8 13.7Z"/><path fill="#BB1A30" stroke="none" d="M60.7 18.85Q59.85 18 58.6 18 57.35 18 56.5 18.85 55.65 19.7 55.65 20.95 55.65 22.15 56.5 23 57.35 23.85 58.6 23.85 59.85 23.85 60.7 23 61.55 22.15 61.55 20.95 61.55 19.7 60.7 18.85Z"/><path fill="#BB1A30" stroke="none" d="M19.45 2.75Q18.35 3.2 17.85 4.35 17.4 5.45 17.85 6.6 18.35 7.75 19.45 8.2 20.6 8.65 21.7 8.2 22.85 7.7 23.3 6.6 23.8 5.45 23.3 4.35 22.85 3.2 21.7 2.75 20.55 2.25 19.45 2.75Z"/><path fill="#BB1A30" stroke="none" d="M11.2 8.7Q9.95 8.7 9.1 9.55 8.25 10.4 8.25 11.65 8.25 12.85 9.1 13.7 9.95 14.55 11.2 14.55 12.4 14.55 13.25 13.7 14.1 12.85 14.1 11.65 14.1 10.4 13.25 9.55 12.4 8.7 11.2 8.7Z"/><path fill="#BB1A30" stroke="none" d="M5.25 18Q4 18 3.15 18.85 2.3 19.7 2.3 20.95 2.3 22.15 3.15 23 4 23.85 5.25 23.85 6.5 23.85 7.35 23 8.2 22.15 8.2 20.95 8.2 19.7 7.35 18.85 6.5 18 5.25 18Z"/><animate attributeName="display" repeatCount="indefinite" dur="2s" keyTimes="0;.688;.75;1" values="none;inline;none;none"/></g><g display="none" id="Layer151_0_FILL"><path fill="#BB1A30" stroke="none" d="M63.15 34.1Q64 33.2 64 32 64 30.75 63.15 29.9 62.3 29.05 61.05 29.05 59.85 29.05 59 29.9 58.1 30.75 58.1 32 58.1 33.2 59 34.1 59.85 34.95 61.05 34.95 62.3 34.95 63.15 34.1Z"/><path fill="#BB1A30" stroke="none" d="M44.5 61.2Q45.65 60.75 46.1 59.65 46.6 58.5 46.1 57.4 45.65 56.25 44.5 55.8 43.35 55.3 42.25 55.8 41.15 56.25 40.65 57.4 40.2 58.5 40.65 59.65 41.15 60.8 42.25 61.25 43.4 61.7 44.5 61.2Z"/><path fill="#BB1A30" stroke="none" d="M29.95 63.15Q30.8 64 32 64 33.25 64 34.1 63.15 34.95 62.25 34.95 61.05 34.95 59.8 34.1 58.95 33.25 58.1 32 58.1 30.8 58.1 29.95 58.95 29.05 59.8 29.05 61.05 29.05 62.25 29.95 63.15Z"/><path fill="#BB1A30" stroke="none" d="M55.75 52.35Q55.75 51.1 54.9 50.25 54.05 49.4 52.8 49.4 51.55 49.4 50.7 50.25 49.85 51.1 49.85 52.35 49.85 53.55 50.7 54.4 51.55 55.25 52.8 55.25 54.05 55.25 54.9 54.4 55.75 53.55 55.75 52.35Z"/><path fill="#BB1A30" stroke="none" d="M55.75 43.1Q55.75 44.3 56.6 45.15 57.45 46 58.7 46 59.9 46 60.75 45.15 61.6 44.3 61.6 43.1 61.6 41.85 60.75 41 59.9 40.15 58.7 40.15 57.45 40.15 56.6 41 55.75 41.85 55.75 43.1Z"/><path fill="#BB1A30" stroke="none" d="M0 32Q0 33.2 .85 34.1 1.7 34.95 2.95 34.95 4.15 34.95 5.05 34.1 5.9 33.2 5.9 32 5.9 30.75 5.05 29.9 4.15 29.05 2.95 29.05 1.7 29.05 .85 29.9 0 30.75 0 32Z"/><path fill="#BB1A30" stroke="none" d="M17.9 59.65Q18.4 60.75 19.5 61.2 20.6 61.7 21.75 61.25 22.85 60.8 23.35 59.65 23.8 58.5 23.35 57.4 22.85 56.25 21.75 55.8 20.65 55.3 19.5 55.8 18.35 56.25 17.9 57.4 17.45 58.55 17.9 59.65Z"/><path fill="#BB1A30" stroke="none" d="M9.15 54.4Q10 55.25 11.25 55.25 12.45 55.25 13.3 54.4 14.15 53.55 14.15 52.35 14.15 51.1 13.3 50.25 12.45 49.4 11.25 49.4 10 49.4 9.15 50.25 8.3 51.1 8.3 52.35 8.3 53.55 9.15 54.4Z"/><path fill="#BB1A30" stroke="none" d="M46.1 4.35Q45.6 3.2 44.5 2.75 43.4 2.25 42.25 2.75 41.1 3.2 40.65 4.35 40.15 5.45 40.65 6.6 41.1 7.7 42.25 8.2 43.4 8.65 44.5 8.2 45.6 7.75 46.1 6.6 46.55 5.45 46.1 4.35Z"/><path fill="#BB1A30" stroke="none" d="M31.95 0Q30.75 0 29.9 .85 29.05 1.7 29.05 2.95 29.05 4.15 29.9 5 30.75 5.85 31.95 5.85 33.2 5.85 34.05 5 34.9 4.15 34.9 2.95 34.9 1.7 34.05 .85 33.2 0 31.95 0Z"/><path fill="#BB1A30" stroke="none" d="M54.85 13.7Q55.7 12.85 55.7 11.65 55.7 10.4 54.85 9.55 54 8.7 52.8 8.7 51.55 8.7 50.7 9.55 49.85 10.4 49.85 11.65 49.85 12.85 50.7 13.7 51.55 14.55 52.8 14.55 54 14.55 54.85 13.7Z"/><path fill="#BB1A30" stroke="none" d="M60.75 18.85Q59.9 18 58.65 18 57.4 18 56.55 18.85 55.7 19.7 55.7 20.95 55.7 22.15 56.55 23 57.4 23.85 58.65 23.85 59.9 23.85 60.75 23 61.6 22.15 61.6 20.95 61.6 19.7 60.75 18.85Z"/><path fill="#BB1A30" stroke="none" d="M19.45 2.75Q18.35 3.2 17.85 4.35 17.4 5.45 17.85 6.6 18.35 7.75 19.45 8.2 20.6 8.65 21.7 8.2 22.85 7.7 23.3 6.6 23.8 5.45 23.3 4.35 22.85 3.2 21.7 2.75 20.55 2.25 19.45 2.75Z"/><path fill="#BB1A30" stroke="none" d="M11.2 8.7Q9.95 8.7 9.1 9.55 8.25 10.4 8.25 11.65 8.25 12.85 9.1 13.7 9.95 14.55 11.2 14.55 12.4 14.55 13.25 13.7 14.1 12.85 14.1 11.65 14.1 10.4 13.25 9.55 12.4 8.7 11.2 8.7Z"/><path fill="#BB1A30" stroke="none" d="M5.3 18Q4.05 18 3.2 18.85 2.35 19.7 2.35 20.95 2.35 22.15 3.2 23 4.05 23.85 5.3 23.85 6.55 23.85 7.4 23 8.25 22.15 8.25 20.95 8.25 19.7 7.4 18.85 6.55 18 5.3 18Z"/><animate attributeName="display" repeatCount="indefinite" dur="2s" keyTimes="0;.625;.688;1" values="none;inline;none;none"/></g><g display="none" id="Layer136_0_FILL"><path fill="#BB1A30" stroke="none" d="M63.15 34.1Q64 33.2 64 32 64 30.75 63.15 29.9 62.3 29.05 61.05 29.05 59.85 29.05 59 29.9 58.1 30.75 58.1 32 58.1 33.2 59 34.1 59.85 34.95 61.05 34.95 62.3 34.95 63.15 34.1Z"/><path fill="#BB1A30" stroke="none" d="M44.5 61.2Q45.65 60.75 46.1 59.65 46.6 58.5 46.1 57.4 45.65 56.25 44.5 55.8 43.35 55.3 42.25 55.8 41.15 56.25 40.65 57.4 40.2 58.5 40.65 59.65 41.15 60.8 42.25 61.25 43.4 61.7 44.5 61.2Z"/><path fill="#BB1A30" stroke="none" d="M29.95 63.15Q30.8 64 32 64 33.25 64 34.1 63.15 34.95 62.25 34.95 61.05 34.95 59.8 34.1 58.95 33.25 58.1 32 58.1 30.8 58.1 29.95 58.95 29.05 59.8 29.05 61.05 29.05 62.25 29.95 63.15Z"/><path fill="#BB1A30" stroke="none" d="M55.75 52.35Q55.75 51.1 54.9 50.25 54.05 49.4 52.8 49.4 51.55 49.4 50.7 50.25 49.85 51.1 49.85 52.35 49.85 53.55 50.7 54.4 51.55 55.25 52.8 55.25 54.05 55.25 54.9 54.4 55.75 53.55 55.75 52.35Z"/><path fill="#BB1A30" stroke="none" d="M55.75 43.1Q55.75 44.3 56.6 45.15 57.45 46 58.7 46 59.9 46 60.75 45.15 61.6 44.3 61.6 43.1 61.6 41.85 60.75 41 59.9 40.15 58.7 40.15 57.45 40.15 56.6 41 55.75 41.85 55.75 43.1Z"/><path fill="#BB1A30" stroke="none" d="M0 32Q0 33.2 .85 34.1 1.7 34.95 2.95 34.95 4.15 34.95 5.05 34.1 5.9 33.2 5.9 32 5.9 30.75 5.05 29.9 4.15 29.05 2.95 29.05 1.7 29.05 .85 29.9 0 30.75 0 32Z"/><path fill="#BB1A30" stroke="none" d="M17.9 59.65Q18.4 60.75 19.5 61.2 20.6 61.7 21.75 61.25 22.85 60.8 23.35 59.65 23.8 58.5 23.35 57.4 22.85 56.25 21.75 55.8 20.65 55.3 19.5 55.8 18.35 56.25 17.9 57.4 17.45 58.55 17.9 59.65Z"/><path fill="#BB1A30" stroke="none" d="M7.4 45.15Q8.25 44.3 8.25 43.1 8.25 41.85 7.4 41 6.55 40.15 5.35 40.15 4.1 40.15 3.25 41 2.4 41.85 2.4 43.1 2.4 44.3 3.25 45.15 4.1 46 5.35 46 6.55 46 7.4 45.15Z"/><path fill="#BB1A30" stroke="none" d="M46.1 4.35Q45.6 3.2 44.5 2.75 43.4 2.25 42.25 2.75 41.1 3.2 40.65 4.35 40.15 5.45 40.65 6.6 41.1 7.7 42.25 8.2 43.4 8.65 44.5 8.2 45.6 7.75 46.1 6.6 46.55 5.45 46.1 4.35Z"/><path fill="#BB1A30" stroke="none" d="M31.95 0Q30.75 0 29.9 .85 29.05 1.7 29.05 2.95 29.05 4.15 29.9 5 30.75 5.85 31.95 5.85 33.2 5.85 34.05 5 34.9 4.15 34.9 2.95 34.9 1.7 34.05 .85 33.2 0 31.95 0Z"/><path fill="#BB1A30" stroke="none" d="M54.85 13.7Q55.7 12.85 55.7 11.65 55.7 10.4 54.85 9.55 54 8.7 52.8 8.7 51.55 8.7 50.7 9.55 49.85 10.4 49.85 11.65 49.85 12.85 50.7 13.7 51.55 14.55 52.8 14.55 54 14.55 54.85 13.7Z"/><path fill="#BB1A30" stroke="none" d="M60.75 18.85Q59.9 18 58.65 18 57.4 18 56.55 18.85 55.7 19.7 55.7 20.95 55.7 22.15 56.55 23 57.4 23.85 58.65 23.85 59.9 23.85 60.75 23 61.6 22.15 61.6 20.95 61.6 19.7 60.75 18.85Z"/><path fill="#BB1A30" stroke="none" d="M19.45 2.75Q18.35 3.2 17.85 4.35 17.4 5.45 17.85 6.6 18.35 7.75 19.45 8.2 20.6 8.65 21.7 8.2 22.85 7.7 23.3 6.6 23.8 5.45 23.3 4.35 22.85 3.2 21.7 2.75 20.55 2.25 19.45 2.75Z"/><path fill="#BB1A30" stroke="none" d="M11.2 8.7Q9.95 8.7 9.1 9.55 8.25 10.4 8.25 11.65 8.25 12.85 9.1 13.7 9.95 14.55 11.2 14.55 12.4 14.55 13.25 13.7 14.1 12.85 14.1 11.65 14.1 10.4 13.25 9.55 12.4 8.7 11.2 8.7Z"/><path fill="#BB1A30" stroke="none" d="M5.3 18Q4.05 18 3.2 18.85 2.35 19.7 2.35 20.95 2.35 22.15 3.2 23 4.05 23.85 5.3 23.85 6.55 23.85 7.4 23 8.25 22.15 8.25 20.95 8.25 19.7 7.4 18.85 6.55 18 5.3 18Z"/><animate attributeName="display" repeatCount="indefinite" dur="2s" keyTimes="0;.563;.625;1" values="none;inline;none;none"/></g><g display="none" id="Layer121_0_FILL"><path fill="#BB1A30" stroke="none" d="M63.15 34.1Q64 33.2 64 32 64 30.75 63.15 29.9 62.3 29.05 61.05 29.05 59.85 29.05 59 29.9 58.1 30.75 58.1 32 58.1 33.2 59 34.1 59.85 34.95 61.05 34.95 62.3 34.95 63.15 34.1Z"/><path fill="#BB1A30" stroke="none" d="M44.5 61.2Q45.65 60.75 46.1 59.65 46.6 58.5 46.1 57.4 45.65 56.25 44.5 55.8 43.35 55.3 42.25 55.8 41.15 56.25 40.65 57.4 40.2 58.5 40.65 59.65 41.15 60.8 42.25 61.25 43.4 61.7 44.5 61.2Z"/><path fill="#BB1A30" stroke="none" d="M29.95 63.15Q30.8 64 32 64 33.25 64 34.1 63.15 34.95 62.25 34.95 61.05 34.95 59.8 34.1 58.95 33.25 58.1 32 58.1 30.8 58.1 29.95 58.95 29.05 59.8 29.05 61.05 29.05 62.25 29.95 63.15Z"/><path fill="#BB1A30" stroke="none" d="M55.75 52.35Q55.75 51.1 54.9 50.25 54.05 49.4 52.8 49.4 51.55 49.4 50.7 50.25 49.85 51.1 49.85 52.35 49.85 53.55 50.7 54.4 51.55 55.25 52.8 55.25 54.05 55.25 54.9 54.4 55.75 53.55 55.75 52.35Z"/><path fill="#BB1A30" stroke="none" d="M55.75 43.1Q55.75 44.3 56.6 45.15 57.45 46 58.7 46 59.9 46 60.75 45.15 61.6 44.3 61.6 43.1 61.6 41.85 60.75 41 59.9 40.15 58.7 40.15 57.45 40.15 56.6 41 55.75 41.85 55.75 43.1Z"/><path fill="#BB1A30" stroke="none" d="M0 32Q0 33.2 .85 34.1 1.7 34.95 2.95 34.95 4.15 34.95 5.05 34.1 5.9 33.2 5.9 32 5.9 30.75 5.05 29.9 4.15 29.05 2.95 29.05 1.7 29.05 .85 29.9 0 30.75 0 32Z"/><path fill="#BB1A30" stroke="none" d="M9.15 54.4Q10 55.25 11.25 55.25 12.45 55.25 13.3 54.4 14.15 53.55 14.15 52.35 14.15 51.1 13.3 50.25 12.45 49.4 11.25 49.4 10 49.4 9.15 50.25 8.3 51.1 8.3 52.35 8.3 53.55 9.15 54.4Z"/><path fill="#BB1A30" stroke="none" d="M7.4 45.15Q8.25 44.3 8.25 43.1 8.25 41.85 7.4 41 6.55 40.15 5.35 40.15 4.1 40.15 3.25 41 2.4 41.85 2.4 43.1 2.4 44.3 3.25 45.15 4.1 46 5.35 46 6.55 46 7.4 45.15Z"/><path fill="#BB1A30" stroke="none" d="M46.1 4.35Q45.6 3.2 44.5 2.75 43.4 2.25 42.25 2.75 41.1 3.2 40.65 4.35 40.15 5.45 40.65 6.6 41.1 7.7 42.25 8.2 43.4 8.65 44.5 8.2 45.6 7.75 46.1 6.6 46.55 5.45 46.1 4.35Z"/><path fill="#BB1A30" stroke="none" d="M31.95 0Q30.75 0 29.9 .85 29.05 1.7 29.05 2.95 29.05 4.15 29.9 5 30.75 5.85 31.95 5.85 33.2 5.85 34.05 5 34.9 4.15 34.9 2.95 34.9 1.7 34.05 .85 33.2 0 31.95 0Z"/><path fill="#BB1A30" stroke="none" d="M54.85 13.7Q55.7 12.85 55.7 11.65 55.7 10.4 54.85 9.55 54 8.7 52.8 8.7 51.55 8.7 50.7 9.55 49.85 10.4 49.85 11.65 49.85 12.85 50.7 13.7 51.55 14.55 52.8 14.55 54 14.55 54.85 13.7Z"/><path fill="#BB1A30" stroke="none" d="M60.75 18.85Q59.9 18 58.65 18 57.4 18 56.55 18.85 55.7 19.7 55.7 20.95 55.7 22.15 56.55 23 57.4 23.85 58.65 23.85 59.9 23.85 60.75 23 61.6 22.15 61.6 20.95 61.6 19.7 60.75 18.85Z"/><path fill="#BB1A30" stroke="none" d="M19.45 2.75Q18.35 3.2 17.85 4.35 17.4 5.45 17.85 6.6 18.35 7.75 19.45 8.2 20.6 8.65 21.7 8.2 22.85 7.7 23.3 6.6 23.8 5.45 23.3 4.35 22.85 3.2 21.7 2.75 20.55 2.25 19.45 2.75Z"/><path fill="#BB1A30" stroke="none" d="M11.2 8.7Q9.95 8.7 9.1 9.55 8.25 10.4 8.25 11.65 8.25 12.85 9.1 13.7 9.95 14.55 11.2 14.55 12.4 14.55 13.25 13.7 14.1 12.85 14.1 11.65 14.1 10.4 13.25 9.55 12.4 8.7 11.2 8.7Z"/><path fill="#BB1A30" stroke="none" d="M5.3 18Q4.05 18 3.2 18.85 2.35 19.7 2.35 20.95 2.35 22.15 3.2 23 4.05 23.85 5.3 23.85 6.55 23.85 7.4 23 8.25 22.15 8.25 20.95 8.25 19.7 7.4 18.85 6.55 18 5.3 18Z"/><animate attributeName="display" repeatCount="indefinite" dur="2s" keyTimes="0;.5;.563;1" values="none;inline;none;none"/></g><g display="none" id="Layer106_0_FILL"><path fill="#BB1A30" stroke="none" d="M63.15 34.15Q64 33.25 64 32.05 64 30.8 63.15 29.95 62.3 29.1 61.05 29.1 59.85 29.1 59 29.95 58.1 30.8 58.1 32.05 58.1 33.25 59 34.15 59.85 35 61.05 35 62.3 35 63.15 34.15Z"/><path fill="#BB1A30" stroke="none" d="M44.5 61.25Q45.65 60.8 46.1 59.7 46.6 58.55 46.1 57.45 45.65 56.3 44.5 55.85 43.35 55.35 42.25 55.85 41.15 56.3 40.65 57.45 40.2 58.55 40.65 59.7 41.15 60.85 42.25 61.3 43.4 61.75 44.5 61.25Z"/><path fill="#BB1A30" stroke="none" d="M55.75 52.35Q55.75 51.1 54.9 50.25 54.05 49.4 52.8 49.4 51.55 49.4 50.7 50.25 49.85 51.1 49.85 52.35 49.85 53.55 50.7 54.4 51.55 55.25 52.8 55.25 54.05 55.25 54.9 54.4 55.75 53.55 55.75 52.35Z"/><path fill="#BB1A30" stroke="none" d="M55.75 43.1Q55.75 44.3 56.6 45.15 57.45 46 58.7 46 59.9 46 60.75 45.15 61.6 44.3 61.6 43.1 61.6 41.85 60.75 41 59.9 40.15 58.7 40.15 57.45 40.15 56.6 41 55.75 41.85 55.75 43.1Z"/><path fill="#BB1A30" stroke="none" d="M0 32.05Q0 33.25 .85 34.15 1.7 35 2.95 35 4.15 35 5.05 34.15 5.9 33.25 5.9 32.05 5.9 30.8 5.05 29.95 4.15 29.1 2.95 29.1 1.7 29.1 .85 29.95 0 30.8 0 32.05Z"/><path fill="#BB1A30" stroke="none" d="M17.9 59.7Q18.4 60.8 19.5 61.25 20.6 61.75 21.75 61.3 22.85 60.85 23.35 59.7 23.8 58.55 23.35 57.45 22.85 56.3 21.75 55.85 20.65 55.35 19.5 55.85 18.35 56.3 17.9 57.45 17.45 58.6 17.9 59.7Z"/><path fill="#BB1A30" stroke="none" d="M9.15 54.4Q10 55.25 11.25 55.25 12.45 55.25 13.3 54.4 14.15 53.55 14.15 52.35 14.15 51.1 13.3 50.25 12.45 49.4 11.25 49.4 10 49.4 9.15 50.25 8.3 51.1 8.3 52.35 8.3 53.55 9.15 54.4Z"/><path fill="#BB1A30" stroke="none" d="M7.4 45.15Q8.25 44.3 8.25 43.1 8.25 41.85 7.4 41 6.55 40.15 5.35 40.15 4.1 40.15 3.25 41 2.4 41.85 2.4 43.1 2.4 44.3 3.25 45.15 4.1 46 5.35 46 6.55 46 7.4 45.15Z"/><path fill="#BB1A30" stroke="none" d="M46.1 4.35Q45.6 3.2 44.5 2.75 43.4 2.25 42.25 2.75 41.1 3.2 40.65 4.35 40.15 5.45 40.65 6.6 41.1 7.7 42.25 8.2 43.4 8.65 44.5 8.2 45.6 7.75 46.1 6.6 46.55 5.45 46.1 4.35Z"/><path fill="#BB1A30" stroke="none" d="M31.95 0Q30.75 0 29.9 .85 29.05 1.7 29.05 2.95 29.05 4.15 29.9 5 30.75 5.85 31.95 5.85 33.2 5.85 34.05 5 34.9 4.15 34.9 2.95 34.9 1.7 34.05 .85 33.2 0 31.95 0Z"/><path fill="#BB1A30" stroke="none" d="M54.85 13.7Q55.7 12.85 55.7 11.65 55.7 10.4 54.85 9.55 54 8.7 52.8 8.7 51.55 8.7 50.7 9.55 49.85 10.4 49.85 11.65 49.85 12.85 50.7 13.7 51.55 14.55 52.8 14.55 54 14.55 54.85 13.7Z"/><path fill="#BB1A30" stroke="none" d="M60.75 18.85Q59.9 18 58.65 18 57.4 18 56.55 18.85 55.7 19.7 55.7 20.95 55.7 22.15 56.55 23 57.4 23.85 58.65 23.85 59.9 23.85 60.75 23 61.6 22.15 61.6 20.95 61.6 19.7 60.75 18.85Z"/><path fill="#BB1A30" stroke="none" d="M19.45 2.75Q18.35 3.2 17.85 4.35 17.4 5.45 17.85 6.6 18.35 7.75 19.45 8.2 20.6 8.65 21.7 8.2 22.85 7.7 23.3 6.6 23.8 5.45 23.3 4.35 22.85 3.2 21.7 2.75 20.55 2.25 19.45 2.75Z"/><path fill="#BB1A30" stroke="none" d="M11.2 8.7Q9.95 8.7 9.1 9.55 8.25 10.4 8.25 11.65 8.25 12.85 9.1 13.7 9.95 14.55 11.2 14.55 12.4 14.55 13.25 13.7 14.1 12.85 14.1 11.65 14.1 10.4 13.25 9.55 12.4 8.7 11.2 8.7Z"/><path fill="#BB1A30" stroke="none" d="M5.3 18Q4.05 18 3.2 18.85 2.35 19.7 2.35 20.95 2.35 22.15 3.2 23 4.05 23.85 5.3 23.85 6.55 23.85 7.4 23 8.25 22.15 8.25 20.95 8.25 19.7 7.4 18.85 6.55 18 5.3 18Z"/><animate attributeName="display" repeatCount="indefinite" dur="2s" keyTimes="0;.438;.5;1" values="none;inline;none;none"/></g><g display="none" id="Layer91_0_FILL"><path fill="#BB1A30" stroke="none" d="M63.15 34.1Q64 33.2 64 32 64 30.75 63.15 29.9 62.3 29.05 61.05 29.05 59.85 29.05 59 29.9 58.1 30.75 58.1 32 58.1 33.2 59 34.1 59.85 34.95 61.05 34.95 62.3 34.95 63.15 34.1Z"/><path fill="#BB1A30" stroke="none" d="M29.95 63.15Q30.8 64 32 64 33.25 64 34.1 63.15 34.95 62.25 34.95 61.05 34.95 59.8 34.1 58.95 33.25 58.1 32 58.1 30.8 58.1 29.95 58.95 29.05 59.8 29.05 61.05 29.05 62.25 29.95 63.15Z"/><path fill="#BB1A30" stroke="none" d="M55.75 52.35Q55.75 51.1 54.9 50.25 54.05 49.4 52.8 49.4 51.55 49.4 50.7 50.25 49.85 51.1 49.85 52.35 49.85 53.55 50.7 54.4 51.55 55.25 52.8 55.25 54.05 55.25 54.9 54.4 55.75 53.55 55.75 52.35Z"/><path fill="#BB1A30" stroke="none" d="M55.75 43.1Q55.75 44.3 56.6 45.15 57.45 46 58.7 46 59.9 46 60.75 45.15 61.6 44.3 61.6 43.1 61.6 41.85 60.75 41 59.9 40.15 58.7 40.15 57.45 40.15 56.6 41 55.75 41.85 55.75 43.1Z"/><path fill="#BB1A30" stroke="none" d="M0 32Q0 33.2 .85 34.1 1.7 34.95 2.95 34.95 4.15 34.95 5.05 34.1 5.9 33.2 5.9 32 5.9 30.75 5.05 29.9 4.15 29.05 2.95 29.05 1.7 29.05 .85 29.9 0 30.75 0 32Z"/><path fill="#BB1A30" stroke="none" d="M17.9 59.65Q18.4 60.75 19.5 61.2 20.6 61.7 21.75 61.25 22.85 60.8 23.35 59.65 23.8 58.5 23.35 57.4 22.85 56.25 21.75 55.8 20.65 55.3 19.5 55.8 18.35 56.25 17.9 57.4 17.45 58.55 17.9 59.65Z"/><path fill="#BB1A30" stroke="none" d="M9.15 54.4Q10 55.25 11.25 55.25 12.45 55.25 13.3 54.4 14.15 53.55 14.15 52.35 14.15 51.1 13.3 50.25 12.45 49.4 11.25 49.4 10 49.4 9.15 50.25 8.3 51.1 8.3 52.35 8.3 53.55 9.15 54.4Z"/><path fill="#BB1A30" stroke="none" d="M7.4 45.15Q8.25 44.3 8.25 43.1 8.25 41.85 7.4 41 6.55 40.15 5.35 40.15 4.1 40.15 3.25 41 2.4 41.85 2.4 43.1 2.4 44.3 3.25 45.15 4.1 46 5.35 46 6.55 46 7.4 45.15Z"/><path fill="#BB1A30" stroke="none" d="M46.1 4.35Q45.6 3.2 44.5 2.75 43.4 2.25 42.25 2.75 41.1 3.2 40.65 4.35 40.15 5.45 40.65 6.6 41.1 7.7 42.25 8.2 43.4 8.65 44.5 8.2 45.6 7.75 46.1 6.6 46.55 5.45 46.1 4.35Z"/><path fill="#BB1A30" stroke="none" d="M31.95 0Q30.75 0 29.9 .85 29.05 1.7 29.05 2.95 29.05 4.15 29.9 5 30.75 5.85 31.95 5.85 33.2 5.85 34.05 5 34.9 4.15 34.9 2.95 34.9 1.7 34.05 .85 33.2 0 31.95 0Z"/><path fill="#BB1A30" stroke="none" d="M54.85 13.7Q55.7 12.85 55.7 11.65 55.7 10.4 54.85 9.55 54 8.7 52.8 8.7 51.55 8.7 50.7 9.55 49.85 10.4 49.85 11.65 49.85 12.85 50.7 13.7 51.55 14.55 52.8 14.55 54 14.55 54.85 13.7Z"/><path fill="#BB1A30" stroke="none" d="M60.75 18.85Q59.9 18 58.65 18 57.4 18 56.55 18.85 55.7 19.7 55.7 20.95 55.7 22.15 56.55 23 57.4 23.85 58.65 23.85 59.9 23.85 60.75 23 61.6 22.15 61.6 20.95 61.6 19.7 60.75 18.85Z"/><path fill="#BB1A30" stroke="none" d="M19.45 2.75Q18.35 3.2 17.85 4.35 17.4 5.45 17.85 6.6 18.35 7.75 19.45 8.2 20.6 8.65 21.7 8.2 22.85 7.7 23.3 6.6 23.8 5.45 23.3 4.35 22.85 3.2 21.7 2.75 20.55 2.25 19.45 2.75Z"/><path fill="#BB1A30" stroke="none" d="M11.2 8.7Q9.95 8.7 9.1 9.55 8.25 10.4 8.25 11.65 8.25 12.85 9.1 13.7 9.95 14.55 11.2 14.55 12.4 14.55 13.25 13.7 14.1 12.85 14.1 11.65 14.1 10.4 13.25 9.55 12.4 8.7 11.2 8.7Z"/><path fill="#BB1A30" stroke="none" d="M5.3 18Q4.05 18 3.2 18.85 2.35 19.7 2.35 20.95 2.35 22.15 3.2 23 4.05 23.85 5.3 23.85 6.55 23.85 7.4 23 8.25 22.15 8.25 20.95 8.25 19.7 7.4 18.85 6.55 18 5.3 18Z"/><animate attributeName="display" repeatCount="indefinite" dur="2s" keyTimes="0;.375;.438;1" values="none;inline;none;none"/></g><g display="none" id="Layer76_0_FILL"><path fill="#BB1A30" stroke="none" d="M63.15 34.1Q64 33.2 64 32 64 30.75 63.15 29.9 62.3 29.05 61.05 29.05 59.85 29.05 59 29.9 58.1 30.75 58.1 32 58.1 33.2 59 34.1 59.85 34.95 61.05 34.95 62.3 34.95 63.15 34.1Z"/><path fill="#BB1A30" stroke="none" d="M44.5 61.2Q45.65 60.75 46.1 59.65 46.6 58.5 46.1 57.4 45.65 56.25 44.5 55.8 43.35 55.3 42.25 55.8 41.15 56.25 40.65 57.4 40.2 58.5 40.65 59.65 41.15 60.8 42.25 61.25 43.4 61.7 44.5 61.2Z"/><path fill="#BB1A30" stroke="none" d="M29.95 63.15Q30.8 64 32 64 33.25 64 34.1 63.15 34.95 62.25 34.95 61.05 34.95 59.8 34.1 58.95 33.25 58.1 32 58.1 30.8 58.1 29.95 58.95 29.05 59.8 29.05 61.05 29.05 62.25 29.95 63.15Z"/><path fill="#BB1A30" stroke="none" d="M55.75 43.1Q55.75 44.3 56.6 45.15 57.45 46 58.7 46 59.9 46 60.75 45.15 61.6 44.3 61.6 43.1 61.6 41.85 60.75 41 59.9 40.15 58.7 40.15 57.45 40.15 56.6 41 55.75 41.85 55.75 43.1Z"/><path fill="#BB1A30" stroke="none" d="M0 32Q0 33.2 .85 34.1 1.7 34.95 2.95 34.95 4.15 34.95 5.05 34.1 5.9 33.2 5.9 32 5.9 30.75 5.05 29.9 4.15 29.05 2.95 29.05 1.7 29.05 .85 29.9 0 30.75 0 32Z"/><path fill="#BB1A30" stroke="none" d="M17.9 59.65Q18.4 60.75 19.5 61.2 20.6 61.7 21.75 61.25 22.85 60.8 23.35 59.65 23.8 58.5 23.35 57.4 22.85 56.25 21.75 55.8 20.65 55.3 19.5 55.8 18.35 56.25 17.9 57.4 17.45 58.55 17.9 59.65Z"/><path fill="#BB1A30" stroke="none" d="M9.15 54.4Q10 55.25 11.25 55.25 12.45 55.25 13.3 54.4 14.15 53.55 14.15 52.35 14.15 51.1 13.3 50.25 12.45 49.4 11.25 49.4 10 49.4 9.15 50.25 8.3 51.1 8.3 52.35 8.3 53.55 9.15 54.4Z"/><path fill="#BB1A30" stroke="none" d="M7.4 45.15Q8.25 44.3 8.25 43.1 8.25 41.85 7.4 41 6.55 40.15 5.35 40.15 4.1 40.15 3.25 41 2.4 41.85 2.4 43.1 2.4 44.3 3.25 45.15 4.1 46 5.35 46 6.55 46 7.4 45.15Z"/><path fill="#BB1A30" stroke="none" d="M46.1 4.35Q45.6 3.2 44.5 2.75 43.4 2.25 42.25 2.75 41.1 3.2 40.65 4.35 40.15 5.45 40.65 6.6 41.1 7.7 42.25 8.2 43.4 8.65 44.5 8.2 45.6 7.75 46.1 6.6 46.55 5.45 46.1 4.35Z"/><path fill="#BB1A30" stroke="none" d="M31.95 0Q30.75 0 29.9 .85 29.05 1.7 29.05 2.95 29.05 4.15 29.9 5 30.75 5.85 31.95 5.85 33.2 5.85 34.05 5 34.9 4.15 34.9 2.95 34.9 1.7 34.05 .85 33.2 0 31.95 0Z"/><path fill="#BB1A30" stroke="none" d="M54.85 13.7Q55.7 12.85 55.7 11.65 55.7 10.4 54.85 9.55 54 8.7 52.8 8.7 51.55 8.7 50.7 9.55 49.85 10.4 49.85 11.65 49.85 12.85 50.7 13.7 51.55 14.55 52.8 14.55 54 14.55 54.85 13.7Z"/><path fill="#BB1A30" stroke="none" d="M60.75 18.85Q59.9 18 58.65 18 57.4 18 56.55 18.85 55.7 19.7 55.7 20.95 55.7 22.15 56.55 23 57.4 23.85 58.65 23.85 59.9 23.85 60.75 23 61.6 22.15 61.6 20.95 61.6 19.7 60.75 18.85Z"/><path fill="#BB1A30" stroke="none" d="M19.45 2.75Q18.35 3.2 17.85 4.35 17.4 5.45 17.85 6.6 18.35 7.75 19.45 8.2 20.6 8.65 21.7 8.2 22.85 7.7 23.3 6.6 23.8 5.45 23.3 4.35 22.85 3.2 21.7 2.75 20.55 2.25 19.45 2.75Z"/><path fill="#BB1A30" stroke="none" d="M11.2 8.7Q9.95 8.7 9.1 9.55 8.25 10.4 8.25 11.65 8.25 12.85 9.1 13.7 9.95 14.55 11.2 14.55 12.4 14.55 13.25 13.7 14.1 12.85 14.1 11.65 14.1 10.4 13.25 9.55 12.4 8.7 11.2 8.7Z"/><path fill="#BB1A30" stroke="none" d="M5.3 18Q4.05 18 3.2 18.85 2.35 19.7 2.35 20.95 2.35 22.15 3.2 23 4.05 23.85 5.3 23.85 6.55 23.85 7.4 23 8.25 22.15 8.25 20.95 8.25 19.7 7.4 18.85 6.55 18 5.3 18Z"/><animate attributeName="display" repeatCount="indefinite" dur="2s" keyTimes="0;.313;.375;1" values="none;inline;none;none"/></g><g display="none" id="Layer61_0_FILL"><path fill="#BB1A30" stroke="none" d="M63.15 34.1Q64 33.2 64 32 64 30.75 63.15 29.9 62.3 29.05 61.05 29.05 59.85 29.05 59 29.9 58.1 30.75 58.1 32 58.1 33.2 59 34.1 59.85 34.95 61.05 34.95 62.3 34.95 63.15 34.1Z"/><path fill="#BB1A30" stroke="none" d="M44.5 61.2Q45.65 60.75 46.1 59.65 46.6 58.5 46.1 57.4 45.65 56.25 44.5 55.8 43.35 55.3 42.25 55.8 41.15 56.25 40.65 57.4 40.2 58.5 40.65 59.65 41.15 60.8 42.25 61.25 43.4 61.7 44.5 61.2Z"/><path fill="#BB1A30" stroke="none" d="M29.95 63.15Q30.8 64 32 64 33.25 64 34.1 63.15 34.95 62.25 34.95 61.05 34.95 59.8 34.1 58.95 33.25 58.1 32 58.1 30.8 58.1 29.95 58.95 29.05 59.8 29.05 61.05 29.05 62.25 29.95 63.15Z"/><path fill="#BB1A30" stroke="none" d="M55.75 52.35Q55.75 51.1 54.9 50.25 54.05 49.4 52.8 49.4 51.55 49.4 50.7 50.25 49.85 51.1 49.85 52.35 49.85 53.55 50.7 54.4 51.55 55.25 52.8 55.25 54.05 55.25 54.9 54.4 55.75 53.55 55.75 52.35Z"/><path fill="#BB1A30" stroke="none" d="M0 32Q0 33.2 .85 34.1 1.7 34.95 2.95 34.95 4.15 34.95 5.05 34.1 5.9 33.2 5.9 32 5.9 30.75 5.05 29.9 4.15 29.05 2.95 29.05 1.7 29.05 .85 29.9 0 30.75 0 32Z"/><path fill="#BB1A30" stroke="none" d="M17.9 59.65Q18.4 60.75 19.5 61.2 20.6 61.7 21.75 61.25 22.85 60.8 23.35 59.65 23.8 58.5 23.35 57.4 22.85 56.25 21.75 55.8 20.65 55.3 19.5 55.8 18.35 56.25 17.9 57.4 17.45 58.55 17.9 59.65Z"/><path fill="#BB1A30" stroke="none" d="M9.15 54.4Q10 55.25 11.25 55.25 12.45 55.25 13.3 54.4 14.15 53.55 14.15 52.35 14.15 51.1 13.3 50.25 12.45 49.4 11.25 49.4 10 49.4 9.15 50.25 8.3 51.1 8.3 52.35 8.3 53.55 9.15 54.4Z"/><path fill="#BB1A30" stroke="none" d="M7.4 45.15Q8.25 44.3 8.25 43.1 8.25 41.85 7.4 41 6.55 40.15 5.35 40.15 4.1 40.15 3.25 41 2.4 41.85 2.4 43.1 2.4 44.3 3.25 45.15 4.1 46 5.35 46 6.55 46 7.4 45.15Z"/><path fill="#BB1A30" stroke="none" d="M46.1 4.35Q45.6 3.2 44.5 2.75 43.4 2.25 42.25 2.75 41.1 3.2 40.65 4.35 40.15 5.45 40.65 6.6 41.1 7.7 42.25 8.2 43.4 8.65 44.5 8.2 45.6 7.75 46.1 6.6 46.55 5.45 46.1 4.35Z"/><path fill="#BB1A30" stroke="none" d="M31.95 0Q30.75 0 29.9 .85 29.05 1.7 29.05 2.95 29.05 4.15 29.9 5 30.75 5.85 31.95 5.85 33.2 5.85 34.05 5 34.9 4.15 34.9 2.95 34.9 1.7 34.05 .85 33.2 0 31.95 0Z"/><path fill="#BB1A30" stroke="none" d="M54.85 13.7Q55.7 12.85 55.7 11.65 55.7 10.4 54.85 9.55 54 8.7 52.8 8.7 51.55 8.7 50.7 9.55 49.85 10.4 49.85 11.65 49.85 12.85 50.7 13.7 51.55 14.55 52.8 14.55 54 14.55 54.85 13.7Z"/><path fill="#BB1A30" stroke="none" d="M60.75 18.85Q59.9 18 58.65 18 57.4 18 56.55 18.85 55.7 19.7 55.7 20.95 55.7 22.15 56.55 23 57.4 23.85 58.65 23.85 59.9 23.85 60.75 23 61.6 22.15 61.6 20.95 61.6 19.7 60.75 18.85Z"/><path fill="#BB1A30" stroke="none" d="M19.45 2.75Q18.35 3.2 17.85 4.35 17.4 5.45 17.85 6.6 18.35 7.75 19.45 8.2 20.6 8.65 21.7 8.2 22.85 7.7 23.3 6.6 23.8 5.45 23.3 4.35 22.85 3.2 21.7 2.75 20.55 2.25 19.45 2.75Z"/><path fill="#BB1A30" stroke="none" d="M11.2 8.7Q9.95 8.7 9.1 9.55 8.25 10.4 8.25 11.65 8.25 12.85 9.1 13.7 9.95 14.55 11.2 14.55 12.4 14.55 13.25 13.7 14.1 12.85 14.1 11.65 14.1 10.4 13.25 9.55 12.4 8.7 11.2 8.7Z"/><path fill="#BB1A30" stroke="none" d="M5.3 18Q4.05 18 3.2 18.85 2.35 19.7 2.35 20.95 2.35 22.15 3.2 23 4.05 23.85 5.3 23.85 6.55 23.85 7.4 23 8.25 22.15 8.25 20.95 8.25 19.7 7.4 18.85 6.55 18 5.3 18Z"/><animate attributeName="display" repeatCount="indefinite" dur="2s" keyTimes="0;.25;.313;1" values="none;inline;none;none"/></g><g display="none" id="Layer46_0_FILL"><path fill="#BB1A30" stroke="none" d="M44.55 61.2Q45.7 60.75 46.15 59.65 46.65 58.5 46.15 57.4 45.7 56.25 44.55 55.8 43.4 55.3 42.3 55.8 41.2 56.25 40.7 57.4 40.25 58.5 40.7 59.65 41.2 60.8 42.3 61.25 43.45 61.7 44.55 61.2Z"/><path fill="#BB1A30" stroke="none" d="M29.95 63.15Q30.8 64 32 64 33.25 64 34.1 63.15 34.95 62.25 34.95 61.05 34.95 59.8 34.1 58.95 33.25 58.1 32 58.1 30.8 58.1 29.95 58.95 29.05 59.8 29.05 61.05 29.05 62.25 29.95 63.15Z"/><path fill="#BB1A30" stroke="none" d="M55.75 52.35Q55.75 51.1 54.9 50.25 54.05 49.4 52.8 49.4 51.55 49.4 50.7 50.25 49.85 51.1 49.85 52.35 49.85 53.55 50.7 54.4 51.55 55.25 52.8 55.25 54.05 55.25 54.9 54.4 55.75 53.55 55.75 52.35Z"/><path fill="#BB1A30" stroke="none" d="M55.75 43.1Q55.75 44.3 56.6 45.15 57.45 46 58.7 46 59.9 46 60.75 45.15 61.6 44.3 61.6 43.1 61.6 41.85 60.75 41 59.9 40.15 58.7 40.15 57.45 40.15 56.6 41 55.75 41.85 55.75 43.1Z"/><path fill="#BB1A30" stroke="none" d="M0 32Q0 33.2 .85 34.1 1.7 34.95 2.95 34.95 4.15 34.95 5.05 34.1 5.9 33.2 5.9 32 5.9 30.75 5.05 29.9 4.15 29.05 2.95 29.05 1.7 29.05 .85 29.9 0 30.75 0 32Z"/><path fill="#BB1A30" stroke="none" d="M17.95 59.65Q18.45 60.75 19.55 61.2 20.65 61.7 21.8 61.25 22.9 60.8 23.4 59.65 23.85 58.5 23.4 57.4 22.9 56.25 21.8 55.8 20.7 55.3 19.55 55.8 18.4 56.25 17.95 57.4 17.5 58.55 17.95 59.65Z"/><path fill="#BB1A30" stroke="none" d="M9.15 54.4Q10 55.25 11.25 55.25 12.45 55.25 13.3 54.4 14.15 53.55 14.15 52.35 14.15 51.1 13.3 50.25 12.45 49.4 11.25 49.4 10 49.4 9.15 50.25 8.3 51.1 8.3 52.35 8.3 53.55 9.15 54.4Z"/><path fill="#BB1A30" stroke="none" d="M7.4 45.15Q8.25 44.3 8.25 43.1 8.25 41.85 7.4 41 6.55 40.15 5.35 40.15 4.1 40.15 3.25 41 2.4 41.85 2.4 43.1 2.4 44.3 3.25 45.15 4.1 46 5.35 46 6.55 46 7.4 45.15Z"/><path fill="#BB1A30" stroke="none" d="M46.15 4.35Q45.65 3.2 44.55 2.75 43.45 2.25 42.3 2.75 41.15 3.2 40.7 4.35 40.2 5.45 40.7 6.6 41.15 7.7 42.3 8.2 43.45 8.65 44.55 8.2 45.65 7.75 46.15 6.6 46.6 5.45 46.15 4.35Z"/><path fill="#BB1A30" stroke="none" d="M32 0Q30.8 0 29.95 .85 29.1 1.7 29.1 2.95 29.1 4.15 29.95 5 30.8 5.85 32 5.85 33.25 5.85 34.1 5 34.95 4.15 34.95 2.95 34.95 1.7 34.1 .85 33.25 0 32 0Z"/><path fill="#BB1A30" stroke="none" d="M54.85 13.7Q55.7 12.85 55.7 11.65 55.7 10.4 54.85 9.55 54 8.7 52.8 8.7 51.55 8.7 50.7 9.55 49.85 10.4 49.85 11.65 49.85 12.85 50.7 13.7 51.55 14.55 52.8 14.55 54 14.55 54.85 13.7Z"/><path fill="#BB1A30" stroke="none" d="M60.75 18.85Q59.9 18 58.65 18 57.4 18 56.55 18.85 55.7 19.7 55.7 20.95 55.7 22.15 56.55 23 57.4 23.85 58.65 23.85 59.9 23.85 60.75 23 61.6 22.15 61.6 20.95 61.6 19.7 60.75 18.85Z"/><path fill="#BB1A30" stroke="none" d="M19.5 2.75Q18.4 3.2 17.9 4.35 17.45 5.45 17.9 6.6 18.4 7.75 19.5 8.2 20.65 8.65 21.75 8.2 22.9 7.7 23.35 6.6 23.85 5.45 23.35 4.35 22.9 3.2 21.75 2.75 20.6 2.25 19.5 2.75Z"/><path fill="#BB1A30" stroke="none" d="M11.25 8.7Q10 8.7 9.15 9.55 8.3 10.4 8.3 11.65 8.3 12.85 9.15 13.7 10 14.55 11.25 14.55 12.45 14.55 13.3 13.7 14.15 12.85 14.15 11.65 14.15 10.4 13.3 9.55 12.45 8.7 11.25 8.7Z"/><path fill="#BB1A30" stroke="none" d="M5.3 18Q4.05 18 3.2 18.85 2.35 19.7 2.35 20.95 2.35 22.15 3.2 23 4.05 23.85 5.3 23.85 6.55 23.85 7.4 23 8.25 22.15 8.25 20.95 8.25 19.7 7.4 18.85 6.55 18 5.3 18Z"/><animate attributeName="display" repeatCount="indefinite" dur="2s" keyTimes="0;.188;.25;1" values="none;inline;none;none"/></g><g display="none" id="Layer31_0_FILL"><path fill="#BB1A30" stroke="none" d="M63.15 34.1Q64 33.2 64 32 64 30.75 63.15 29.9 62.3 29.05 61.05 29.05 59.85 29.05 59 29.9 58.1 30.75 58.1 32 58.1 33.2 59 34.1 59.85 34.95 61.05 34.95 62.3 34.95 63.15 34.1Z"/><path fill="#BB1A30" stroke="none" d="M44.5 61.2Q45.65 60.75 46.1 59.65 46.6 58.5 46.1 57.4 45.65 56.25 44.5 55.8 43.35 55.3 42.25 55.8 41.15 56.25 40.65 57.4 40.2 58.5 40.65 59.65 41.15 60.8 42.25 61.25 43.4 61.7 44.5 61.2Z"/><path fill="#BB1A30" stroke="none" d="M29.95 63.15Q30.8 64 32 64 33.25 64 34.1 63.15 34.95 62.25 34.95 61.05 34.95 59.8 34.1 58.95 33.25 58.1 32 58.1 30.8 58.1 29.95 58.95 29.05 59.8 29.05 61.05 29.05 62.25 29.95 63.15Z"/><path fill="#BB1A30" stroke="none" d="M55.75 52.35Q55.75 51.1 54.9 50.25 54.05 49.4 52.8 49.4 51.55 49.4 50.7 50.25 49.85 51.1 49.85 52.35 49.85 53.55 50.7 54.4 51.55 55.25 52.8 55.25 54.05 55.25 54.9 54.4 55.75 53.55 55.75 52.35Z"/><path fill="#BB1A30" stroke="none" d="M55.75 43.1Q55.75 44.3 56.6 45.15 57.45 46 58.7 46 59.9 46 60.75 45.15 61.6 44.3 61.6 43.1 61.6 41.85 60.75 41 59.9 40.15 58.7 40.15 57.45 40.15 56.6 41 55.75 41.85 55.75 43.1Z"/><path fill="#BB1A30" stroke="none" d="M0 32Q0 33.2 .85 34.1 1.7 34.95 2.95 34.95 4.15 34.95 5.05 34.1 5.9 33.2 5.9 32 5.9 30.75 5.05 29.9 4.15 29.05 2.95 29.05 1.7 29.05 .85 29.9 0 30.75 0 32Z"/><path fill="#BB1A30" stroke="none" d="M17.9 59.65Q18.4 60.75 19.5 61.2 20.6 61.7 21.75 61.25 22.85 60.8 23.35 59.65 23.8 58.5 23.35 57.4 22.85 56.25 21.75 55.8 20.65 55.3 19.5 55.8 18.35 56.25 17.9 57.4 17.45 58.55 17.9 59.65Z"/><path fill="#BB1A30" stroke="none" d="M9.15 54.4Q10 55.25 11.25 55.25 12.45 55.25 13.3 54.4 14.15 53.55 14.15 52.35 14.15 51.1 13.3 50.25 12.45 49.4 11.25 49.4 10 49.4 9.15 50.25 8.3 51.1 8.3 52.35 8.3 53.55 9.15 54.4Z"/><path fill="#BB1A30" stroke="none" d="M7.4 45.15Q8.25 44.3 8.25 43.1 8.25 41.85 7.4 41 6.55 40.15 5.35 40.15 4.1 40.15 3.25 41 2.4 41.85 2.4 43.1 2.4 44.3 3.25 45.15 4.1 46 5.35 46 6.55 46 7.4 45.15Z"/><path fill="#BB1A30" stroke="none" d="M46.1 4.35Q45.6 3.2 44.5 2.75 43.4 2.25 42.25 2.75 41.1 3.2 40.65 4.35 40.15 5.45 40.65 6.6 41.1 7.7 42.25 8.2 43.4 8.65 44.5 8.2 45.6 7.75 46.1 6.6 46.55 5.45 46.1 4.35Z"/><path fill="#BB1A30" stroke="none" d="M31.95 0Q30.75 0 29.9 .85 29.05 1.7 29.05 2.95 29.05 4.15 29.9 5 30.75 5.85 31.95 5.85 33.2 5.85 34.05 5 34.9 4.15 34.9 2.95 34.9 1.7 34.05 .85 33.2 0 31.95 0Z"/><path fill="#BB1A30" stroke="none" d="M54.85 13.7Q55.7 12.85 55.7 11.65 55.7 10.4 54.85 9.55 54 8.7 52.8 8.7 51.55 8.7 50.7 9.55 49.85 10.4 49.85 11.65 49.85 12.85 50.7 13.7 51.55 14.55 52.8 14.55 54 14.55 54.85 13.7Z"/><path fill="#BB1A30" stroke="none" d="M19.45 2.75Q18.35 3.2 17.85 4.35 17.4 5.45 17.85 6.6 18.35 7.75 19.45 8.2 20.6 8.65 21.7 8.2 22.85 7.7 23.3 6.6 23.8 5.45 23.3 4.35 22.85 3.2 21.7 2.75 20.55 2.25 19.45 2.75Z"/><path fill="#BB1A30" stroke="none" d="M11.2 8.7Q9.95 8.7 9.1 9.55 8.25 10.4 8.25 11.65 8.25 12.85 9.1 13.7 9.95 14.55 11.2 14.55 12.4 14.55 13.25 13.7 14.1 12.85 14.1 11.65 14.1 10.4 13.25 9.55 12.4 8.7 11.2 8.7Z"/><path fill="#BB1A30" stroke="none" d="M5.3 18Q4.05 18 3.2 18.85 2.35 19.7 2.35 20.95 2.35 22.15 3.2 23 4.05 23.85 5.3 23.85 6.55 23.85 7.4 23 8.25 22.15 8.25 20.95 8.25 19.7 7.4 18.85 6.55 18 5.3 18Z"/><animate attributeName="display" repeatCount="indefinite" dur="2s" keyTimes="0;.125;.188;1" values="none;inline;none;none"/></g><g display="none" id="Layer16_0_FILL"><path fill="#BB1A30" stroke="none" d="M63.15 34.1Q64 33.2 64 32 64 30.75 63.15 29.9 62.3 29.05 61.05 29.05 59.85 29.05 59 29.9 58.1 30.75 58.1 32 58.1 33.2 59 34.1 59.85 34.95 61.05 34.95 62.3 34.95 63.15 34.1Z"/><path fill="#BB1A30" stroke="none" d="M44.5 61.2Q45.65 60.75 46.1 59.65 46.6 58.5 46.1 57.4 45.65 56.25 44.5 55.8 43.35 55.3 42.25 55.8 41.15 56.25 40.65 57.4 40.2 58.5 40.65 59.65 41.15 60.8 42.25 61.25 43.4 61.7 44.5 61.2Z"/><path fill="#BB1A30" stroke="none" d="M29.95 63.15Q30.8 64 32 64 33.25 64 34.1 63.15 34.95 62.25 34.95 61.05 34.95 59.8 34.1 58.95 33.25 58.1 32 58.1 30.8 58.1 29.95 58.95 29.05 59.8 29.05 61.05 29.05 62.25 29.95 63.15Z"/><path fill="#BB1A30" stroke="none" d="M55.75 52.35Q55.75 51.1 54.9 50.25 54.05 49.4 52.8 49.4 51.55 49.4 50.7 50.25 49.85 51.1 49.85 52.35 49.85 53.55 50.7 54.4 51.55 55.25 52.8 55.25 54.05 55.25 54.9 54.4 55.75 53.55 55.75 52.35Z"/><path fill="#BB1A30" stroke="none" d="M55.75 43.1Q55.75 44.3 56.6 45.15 57.45 46 58.7 46 59.9 46 60.75 45.15 61.6 44.3 61.6 43.1 61.6 41.85 60.75 41 59.9 40.15 58.7 40.15 57.45 40.15 56.6 41 55.75 41.85 55.75 43.1Z"/><path fill="#BB1A30" stroke="none" d="M0 32Q0 33.2 .85 34.1 1.7 34.95 2.95 34.95 4.15 34.95 5.05 34.1 5.9 33.2 5.9 32 5.9 30.75 5.05 29.9 4.15 29.05 2.95 29.05 1.7 29.05 .85 29.9 0 30.75 0 32Z"/><path fill="#BB1A30" stroke="none" d="M17.9 59.65Q18.4 60.75 19.5 61.2 20.6 61.7 21.75 61.25 22.85 60.8 23.35 59.65 23.8 58.5 23.35 57.4 22.85 56.25 21.75 55.8 20.65 55.3 19.5 55.8 18.35 56.25 17.9 57.4 17.45 58.55 17.9 59.65Z"/><path fill="#BB1A30" stroke="none" d="M9.15 54.4Q10 55.25 11.25 55.25 12.45 55.25 13.3 54.4 14.15 53.55 14.15 52.35 14.15 51.1 13.3 50.25 12.45 49.4 11.25 49.4 10 49.4 9.15 50.25 8.3 51.1 8.3 52.35 8.3 53.55 9.15 54.4Z"/><path fill="#BB1A30" stroke="none" d="M7.4 45.15Q8.25 44.3 8.25 43.1 8.25 41.85 7.4 41 6.55 40.15 5.35 40.15 4.1 40.15 3.25 41 2.4 41.85 2.4 43.1 2.4 44.3 3.25 45.15 4.1 46 5.35 46 6.55 46 7.4 45.15Z"/><path fill="#BB1A30" stroke="none" d="M46.1 4.35Q45.6 3.2 44.5 2.75 43.4 2.25 42.25 2.75 41.1 3.2 40.65 4.35 40.15 5.45 40.65 6.6 41.1 7.7 42.25 8.2 43.4 8.65 44.5 8.2 45.6 7.75 46.1 6.6 46.55 5.45 46.1 4.35Z"/><path fill="#BB1A30" stroke="none" d="M31.95 0Q30.75 0 29.9 .85 29.05 1.7 29.05 2.95 29.05 4.15 29.9 5 30.75 5.85 31.95 5.85 33.2 5.85 34.05 5 34.9 4.15 34.9 2.95 34.9 1.7 34.05 .85 33.2 0 31.95 0Z"/><path fill="#BB1A30" stroke="none" d="M60.75 18.85Q59.9 18 58.65 18 57.4 18 56.55 18.85 55.7 19.7 55.7 20.95 55.7 22.15 56.55 23 57.4 23.85 58.65 23.85 59.9 23.85 60.75 23 61.6 22.15 61.6 20.95 61.6 19.7 60.75 18.85Z"/><path fill="#BB1A30" stroke="none" d="M19.45 2.75Q18.35 3.2 17.85 4.35 17.4 5.45 17.85 6.6 18.35 7.75 19.45 8.2 20.6 8.65 21.7 8.2 22.85 7.7 23.3 6.6 23.8 5.45 23.3 4.35 22.85 3.2 21.7 2.75 20.55 2.25 19.45 2.75Z"/><path fill="#BB1A30" stroke="none" d="M11.2 8.7Q9.95 8.7 9.1 9.55 8.25 10.4 8.25 11.65 8.25 12.85 9.1 13.7 9.95 14.55 11.2 14.55 12.4 14.55 13.25 13.7 14.1 12.85 14.1 11.65 14.1 10.4 13.25 9.55 12.4 8.7 11.2 8.7Z"/><path fill="#BB1A30" stroke="none" d="M5.3 18Q4.05 18 3.2 18.85 2.35 19.7 2.35 20.95 2.35 22.15 3.2 23 4.05 23.85 5.3 23.85 6.55 23.85 7.4 23 8.25 22.15 8.25 20.95 8.25 19.7 7.4 18.85 6.55 18 5.3 18Z"/><animate attributeName="display" repeatCount="indefinite" dur="2s" keyTimes="0;.063;.125;1" values="none;inline;none;none"/></g><g id="Layer1_0_FILL"><path fill="#BB1A30" stroke="none" d="M63.15 34.1Q64 33.2 64 32 64 30.75 63.15 29.9 62.3 29.05 61.05 29.05 59.85 29.05 59 29.9 58.1 30.75 58.1 32 58.1 33.2 59 34.1 59.85 34.95 61.05 34.95 62.3 34.95 63.15 34.1Z"/><path fill="#BB1A30" stroke="none" d="M44.55 61.2Q45.7 60.75 46.15 59.65 46.65 58.5 46.15 57.4 45.7 56.25 44.55 55.8 43.4 55.3 42.3 55.8 41.2 56.25 40.7 57.4 40.25 58.5 40.7 59.65 41.2 60.8 42.3 61.25 43.45 61.7 44.55 61.2Z"/><path fill="#BB1A30" stroke="none" d="M29.95 63.15Q30.8 64 32 64 33.25 64 34.1 63.15 34.95 62.25 34.95 61.05 34.95 59.8 34.1 58.95 33.25 58.1 32 58.1 30.8 58.1 29.95 58.95 29.05 59.8 29.05 61.05 29.05 62.25 29.95 63.15Z"/><path fill="#BB1A30" stroke="none" d="M55.75 52.35Q55.75 51.1 54.9 50.25 54.05 49.4 52.8 49.4 51.55 49.4 50.7 50.25 49.85 51.1 49.85 52.35 49.85 53.55 50.7 54.4 51.55 55.25 52.8 55.25 54.05 55.25 54.9 54.4 55.75 53.55 55.75 52.35Z"/><path fill="#BB1A30" stroke="none" d="M55.75 43.1Q55.75 44.3 56.6 45.15 57.45 46 58.7 46 59.9 46 60.75 45.15 61.6 44.3 61.6 43.1 61.6 41.85 60.75 41 59.9 40.15 58.7 40.15 57.45 40.15 56.6 41 55.75 41.85 55.75 43.1Z"/><path fill="#BB1A30" stroke="none" d="M0 32Q0 33.2 .85 34.1 1.7 34.95 2.95 34.95 4.15 34.95 5.05 34.1 5.9 33.2 5.9 32 5.9 30.75 5.05 29.9 4.15 29.05 2.95 29.05 1.7 29.05 .85 29.9 0 30.75 0 32Z"/><path fill="#BB1A30" stroke="none" d="M17.9 59.65Q18.4 60.75 19.5 61.2 20.6 61.7 21.75 61.25 22.85 60.8 23.35 59.65 23.8 58.5 23.35 57.4 22.85 56.25 21.75 55.8 20.65 55.3 19.5 55.8 18.35 56.25 17.9 57.4 17.45 58.55 17.9 59.65Z"/><path fill="#BB1A30" stroke="none" d="M9.15 54.4Q10 55.25 11.25 55.25 12.45 55.25 13.3 54.4 14.15 53.55 14.15 52.35 14.15 51.1 13.3 50.25 12.45 49.4 11.25 49.4 10 49.4 9.15 50.25 8.3 51.1 8.3 52.35 8.3 53.55 9.15 54.4Z"/><path fill="#BB1A30" stroke="none" d="M7.4 45.15Q8.25 44.3 8.25 43.1 8.25 41.85 7.4 41 6.55 40.15 5.35 40.15 4.1 40.15 3.25 41 2.4 41.85 2.4 43.1 2.4 44.3 3.25 45.15 4.1 46 5.35 46 6.55 46 7.4 45.15Z"/><path fill="#BB1A30" stroke="none" d="M31.95 .05Q30.75 .05 29.9 .9 29.05 1.75 29.05 3 29.05 4.2 29.9 5.05 30.75 5.9 31.95 5.9 33.2 5.9 34.05 5.05 34.9 4.2 34.9 3 34.9 1.75 34.05 .9 33.2 .05 31.95 .05Z"/><path fill="#BB1A30" stroke="none" d="M54.85 13.7Q55.7 12.85 55.7 11.65 55.7 10.4 54.85 9.55 54 8.7 52.8 8.7 51.55 8.7 50.7 9.55 49.85 10.4 49.85 11.65 49.85 12.85 50.7 13.7 51.55 14.55 52.8 14.55 54 14.55 54.85 13.7Z"/><path fill="#BB1A30" stroke="none" d="M60.75 18.85Q59.9 18 58.65 18 57.4 18 56.55 18.85 55.7 19.7 55.7 20.95 55.7 22.15 56.55 23 57.4 23.85 58.65 23.85 59.9 23.85 60.75 23 61.6 22.15 61.6 20.95 61.6 19.7 60.75 18.85Z"/><path fill="#BB1A30" stroke="none" d="M19.45 2.75Q18.35 3.2 17.85 4.35 17.4 5.45 17.85 6.6 18.35 7.75 19.45 8.2 20.6 8.65 21.7 8.2 22.85 7.7 23.3 6.6 23.8 5.45 23.3 4.35 22.85 3.2 21.7 2.75 20.55 2.25 19.45 2.75Z"/><path fill="#BB1A30" stroke="none" d="M11.2 8.7Q9.95 8.7 9.1 9.55 8.25 10.4 8.25 11.65 8.25 12.85 9.1 13.7 9.95 14.55 11.2 14.55 12.4 14.55 13.25 13.7 14.1 12.85 14.1 11.65 14.1 10.4 13.25 9.55 12.4 8.7 11.2 8.7Z"/><path fill="#BB1A30" stroke="none" d="M5.3 18Q4.05 18 3.2 18.85 2.35 19.7 2.35 20.95 2.35 22.15 3.2 23 4.05 23.85 5.3 23.85 6.55 23.85 7.4 23 8.25 22.15 8.25 20.95 8.25 19.7 7.4 18.85 6.55 18 5.3 18Z"/><animate attributeName="display" repeatCount="indefinite" dur="2s" keyTimes="0;.063;1" values="inline;none;none"/></g><g id="L" transform="matrix(.659 .273 -.273 .659 28.2 14.45)"><animateTransform attributeName="transform" additive="replace" type="translate" repeatCount="indefinite" dur="2s" keyTimes="0;.063;.125;.188;.25;.313;.375;.438;.5;.563;.625;.688;.75;.813;.875;.938;1" values="32.007,29.724;31,29.817;32.026,29.843;31.994,29.723;31.903,29.784;31.914,29.725;31.928,29.731;32.008,29.665;31.937,29.599;32.006,29.639;32.04,29.631;32.066,29.738;32.096,29.709;32.089,29.731;32.151,29.686;32.007,29.75;32.007,29.75"/><animateTransform attributeName="transform" additive="sum" type="rotate" repeatCount="indefinite" dur="2s" keyTimes="0;.063;.125;.188;.25;.313;.375;.438;.5;.563;.625;.688;.75;.813;.875;.938;1" values="22.535,0,0;45,0,0;67.71,0,0;90,0,0;112.537,0,0;135,0,0;157.71,0,0;180,0,0;202.537,0,0;225,0,0;247.71,0,0;270,0,0;292.537,0,0;315,0,0;337.71,0,0;360,0,0;360,0,0"/><animateTransform attributeName="transform" additive="sum" type="scale" repeatCount="indefinite" dur="2s" keyTimes="0;.063;.125;.188;.25;.313;.375;.438;.5;.563;.625;.688;.75;.813;.875;.938;1" values=".713,.713;.716,.716;.713,.713;.716,.716;.713,.713;.716,.716;.713,.713;.716,.716;.713,.713;.716,.716;.713,.713;.716,.716;.713,.713;.716,.716;.713,.713;.716,.716;.716,.716"/><animateTransform attributeName="transform" additive="sum" type="translate" repeatCount="indefinite" dur="2s" keyTimes="0;.063;.125;.188;.25;.313;.375;.438;.5;.563;.625;.688;.75;.813;.875;.938;1" values="-13.15,-17.75;-13.5,-17.65;-13.25,-17.6;-13.3,-17.4;-13.1,-17.35;-13.1,-17.2;-12.9,-17.45;-12.7,-17.3;-13,-17.55;-12.6,-17.65;-13,-17.75;-12.8,-17.9;-13.05,-17.75;-12.85,-17.95;-13.2,-17.75;-13.35,-17.95;-13.35,-17.95"/><path fill="#BB1A30" stroke="none" d="M17.5 2.05Q17.6 1.8 17.6 1 17.6 -.25 16.45 .05 13.95 .65 12.45 2.5 10.45 4.95 10.45 9.2 10.45 26.85 10.35 27.9 6.85 27.3 5.75 27.3 3.4 27.3 1.85 28.3 0 29.5 0 31.7 0 33.55 1.4 34.8 2.95 36.1 5.45 36.1 10.65 36.1 12.4 31 19.1 32.95 25.55 36 26.4 36.45 26.95 35.35 27.2 34.9 27.05 34.45 26.9 34 26.45 33.85 19.55 30.3 12.75 28.5 13 27.45 13 21.4 13 13.4 13 9.2 13 5.75 14.4 4.2 15 3.5 16.9 2.6 17.4 2.35 17.5 2.05M5.75 29.85Q7.9 29.85 9.95 30.35 8.85 33.55 5.45 33.55 3.9 33.55 3.15 32.85 2.65 32.35 2.65 31.7 2.65 29.85 5.75 29.85Z"/></g></g></svg>