<?xml version="1.0" encoding="utf-8"?>
<!-- Generator: Adobe Illustrator 22.0.0, SVG Export Plug-In . SVG Version: 6.00 Build 0)  -->
<svg version="1.1" id="Layer_1" xmlns="http://www.w3.org/2000/svg" xmlns:xlink="http://www.w3.org/1999/xlink" x="0px" y="0px"
	 viewBox="0 0 30 30" style="enable-background:new 0 0 30 30;" xml:space="preserve">
<style type="text/css">
	.st0{fill:none;stroke:#231F20;}
	.st1{fill:#231F20;}
</style>
<g>
	<circle class="st0" cx="15" cy="15" r="14.2"/>
</g>
<g>
	<path class="st1" d="M14.7,17.2c-2.6,0-4.6-2.1-4.6-4.6c0-2.6,2.1-4.6,4.6-4.6c2.6,0,4.6,2.1,4.6,4.6
		C19.4,15.1,17.3,17.2,14.7,17.2 M14.3,6c-3.3,0.2-6,3-6.1,6.3c-0.1,2.1,0.8,4,2.3,5.2c0.4,0.3,0.7,0.7,1.1,1.1
		c1,1.2,2.6,3.6,3.2,6.7c0.6-3.2,2.2-5.5,3.2-6.7c0.3-0.4,0.7-0.8,1.1-1.1c1.4-1.2,2.3-3,2.3-5C21.3,8.8,18.1,5.8,14.3,6"/>
</g>
</svg>
