<?xml version="1.0" encoding="utf-8"?>
<!-- Generator: Adobe Illustrator 21.1.0, SVG Export Plug-In . SVG Version: 6.00 Build 0)  -->
<svg version="1.1" id="Layer_1" xmlns="http://www.w3.org/2000/svg" xmlns:xlink="http://www.w3.org/1999/xlink" x="0px" y="0px"
	 viewBox="0 0 30 30" style="enable-background:new 0 0 30 30;" xml:space="preserve">
<style type="text/css">
	.st0{clip-path:url(#SVGID_2_);fill:#231F20;}
	.st1{clip-path:url(#SVGID_2_);fill:none;stroke:#231F20;stroke-width:0.5785;}
	.st2{fill:#FFFFFF;}
</style>
<g>
	<defs>
		<rect id="SVGID_1_" x="0.9" y="0.9" width="28.3" height="28.3"/>
	</defs>
	<clipPath id="SVGID_2_">
		<use xlink:href="#SVGID_1_"  style="overflow:visible;"/>
	</clipPath>
	<path class="st0" d="M15,28.9c7.7,0,13.9-6.2,13.9-13.9S22.7,1.1,15,1.1S1.1,7.4,1.1,15S7.4,28.9,15,28.9"/>
	<circle class="st1" cx="15" cy="15" r="13.9"/>
</g>
<g id="XMLID_12_">
	<path id="XMLID_199_" class="st2" d="M7.2,6.1v4.1H4.4V22c0,1.6,1.3,2.9,2.9,2.9h0.2h14.1c1.9,0,3.5-1.6,3.5-3.5V6.1H7.2z
		 M6.3,10.7h0.9v12.2h0.5V6.6h16.8v14.8c0,1.7-1.4,3-3,3H7.5H7.3c-1.3,0-2.4-1.1-2.4-2.4V10.7h0.9V21h0.5V10.7L6.3,10.7z"/>
	<path id="XMLID_206_" class="st2" d="M17.7,13.9h6.1V7.6h-6.1V13.9z M18.1,8.1h5.1v5.3h-5.1V8.1z"/>
	<rect id="XMLID_202_" x="8.7" y="7.6" class="st2" width="7.7" height="0.5"/>
	<rect id="XMLID_203_" x="8.7" y="9.1" class="st2" width="7.7" height="0.5"/>
	<rect id="XMLID_207_" x="8.7" y="10.5" class="st2" width="7.7" height="0.5"/>
	<rect id="XMLID_208_" x="8.7" y="12" class="st2" width="7.7" height="0.5"/>
	<rect id="XMLID_209_" x="8.7" y="13.4" class="st2" width="7.7" height="0.5"/>
	<rect id="XMLID_210_" x="8.8" y="14.9" class="st2" width="14.8" height="0.5"/>
	<rect id="XMLID_211_" x="8.8" y="16.3" class="st2" width="14.8" height="0.5"/>
	<rect id="XMLID_212_" x="8.8" y="17.6" class="st2" width="14.8" height="0.5"/>
</g>
<rect id="XMLID_3_" x="8.8" y="19" class="st2" width="14.8" height="0.5"/>
<rect id="XMLID_2_" x="8.8" y="20.3" class="st2" width="14.8" height="0.5"/>
<rect id="XMLID_1_" x="8.8" y="21.7" class="st2" width="14.8" height="0.5"/>
</svg>
