<?xml version="1.0" encoding="utf-8"?>
<!-- Generator: Adobe Illustrator 21.1.0, SVG Export Plug-In . SVG Version: 6.00 Build 0)  -->
<svg version="1.1" id="Layer_1" xmlns="http://www.w3.org/2000/svg" xmlns:xlink="http://www.w3.org/1999/xlink" x="0px" y="0px"
	 viewBox="0 0 316 460" style="enable-background:new 0 0 316 460;" xml:space="preserve">
<style type="text/css">
	.st0{clip-path:url(#SVGID_2_);fill:#FFFFFF;}
	.st1{clip-path:url(#SVGID_2_);fill:#78B771;}
</style>
<g>
	<defs>
		<rect id="SVGID_1_" x="0.3" y="0.5" width="315.4" height="459"/>
	</defs>
	<clipPath id="SVGID_2_">
		<use xlink:href="#SVGID_1_"  style="overflow:visible;"/>
	</clipPath>
	<path class="st0" d="M3.5,26.3V0.6h65.3v101.1c0,0,0,10.4,16.1,10.4v27.1H3.2V112c0,0,15,0.8,15-10.7V38.5
		C18.2,38.5,19.9,26.3,3.5,26.3"/>
	<path class="st0" d="M236,101.7V0.6h-65.3v25.7c16.4,0,14.7,12.2,14.7,12.2v62.8c0,11.5-15,10.7-15,10.7v27.1h65.6L236,101.7z"/>
	<path class="st1" d="M81.9,29.3V0.6H111c0,0,42.7,1.1,42.7,42.7c0,38.2-24.8,52.3-42.9,52.3H81.9V73.4c0,0,20,2.9,20-26.1
		C101.9,26.5,81.9,29.3,81.9,29.3"/>
	<path class="st0" d="M165.5,187.7V162h65.3v101.1c0,0,0,10.4,16.1,10.4v27.1h-81.8v-27.1c0,0,15,0.8,15-10.7v-62.8
		C180.2,199.9,181.9,187.7,165.5,187.7"/>
	<path class="st1" d="M243.9,190.7V162H273c0,0,42.7,1.1,42.7,42.7c0,38.2-24.8,52.3-42.9,52.3h-28.9v-22.1c0,0,20,2.9,20-26.1
		C263.9,187.9,243.9,190.7,243.9,190.7"/>
	<path class="st1" d="M248.8,0.5v26h16.5c0,0,18,1.2,18,18v8.8h27.3V0.6L248.8,0.5z"/>
	<path class="st1" d="M248.9,139.5v-26h16.5c0,0,18-1.2,18-18V82h27.2v57.4L248.9,139.5z"/>
	<path class="st0" d="M20.9,320.6h65.3v25.7c-16.4,0-14.7,12.2-14.7,12.2l-0.7,100.6H5.7V432c0,0,15,0.8,15-10.7v-62.8
		c0,0,1.7-12.2-14.7-12.2v-25.7h65.3"/>
	<path class="st1" d="M83.5,459.5l50.2-0.1V402h-27.2v13.5c0,16.8-18,18-18,18h-4.9L83.5,459.5z"/>
	<path class="st1" d="M244.4,77.5V62h4.8c0,0,6.9,0.3,6.9-6.9V39.7h16.5V100h-16.4V84.8c0,0,0.1-7.3-7.3-7.3H244.4L244.4,77.5z"/>
	<path class="st0" d="M231.6,421.1V320h-65.3v25.7c16.4,0,14.7,12.2,14.7,12.2v62.8c0,11.5-15,10.7-15,10.7v27.1h65.6L231.6,421.1z"
		/>
	<path class="st1" d="M244.4,319.9v26h16.5c0,0,18,1.2,18,18v8.8h27.3V320L244.4,319.9z"/>
	<path class="st1" d="M244.4,458.9v-26h16.5c0,0,18-1.2,18-18v-13.5h27.2v57.4L244.4,458.9z"/>
	<path class="st1" d="M240,396.9v-15.5h4.8c0,0,6.9,0.3,6.9-6.9v-15.4h16.5v60.4h-16.4v-15.3c0,0,0.1-7.3-7.3-7.3H240L240,396.9z"/>
	<path class="st0" d="M81,273.6c0,0-23,4.6-23.6-23c-0.5-27.7,0-57.3,0-57.3s1.4-29.2,12-36.2c1.6-1.1-69.1-4.8-69.1,56.8
		c0,53.7,6.1,83.9,47.3,87C47.6,300.7,80.5,306.1,81,273.6"/>
	<path class="st1" d="M72.6,185.1c0,0,23-4.6,23.6,23c0.5,27.7,0,57.3,0,57.3s-1.4,29.2-12,36.2c-1.6,1.1,69.1,4.8,69.1-56.8
		c0-53.7-6.1-83.9-47.3-87C106,158,73.2,152.6,72.6,185.1"/>
</g>
</svg>
