<?xml version="1.0" encoding="utf-8"?><svg id="PepoLoader_03" image-rendering="auto" baseProfile="basic" version="1.1" preserveAspectRatio="xMidYMid meet" x="0px" y="0px" width="64" height="64" xmlns="http://www.w3.org/2000/svg" viewBox="0 0 64 64" xmlns:xlink="http://www.w3.org/1999/xlink"><g id="Scene-1" overflow="visible"><g display="none" id="Layer124_0_FILL"><path fill="#000" stroke="none" d="M35.15 62.5Q34.45 62.95 39.35 62.6 42.486 62.390 45.4 61.65 45.110 61.451 44.85 61.15L44.55 60.8Q44.35 60.65 44 60.65 43.472 60.609 42.55 60.4 41.527 60.5 40.2 60.5 38.426 60.558 36.95 60.5 36.135 61.842 35.15 62.5Z"/><animate attributeName="display" repeatCount="indefinite" dur="3.325s" keyTimes="0;.211;.226;1" values="none;inline;none;none"/></g><g display="none" id="Layer123_0_FILL"><path fill="#000" stroke="none" d="M35.15 62.5Q34.45 62.95 39.35 62.6 44.6 62.25 49.2 60.5 51.995 59.437 54.25 58 51.674 58.657 48.75 59.15 46.75 59.45 45.8 59.7L44.05 60.2Q42.55 60.5 40.2 60.5 38.426 60.558 36.95 60.5 36.135 61.842 35.15 62.5Z"/><animate attributeName="display" repeatCount="indefinite" dur="3.325s" keyTimes="0;.203;.211;1" values="none;inline;none;none"/></g><g display="none" id="Layer122_0_FILL"><path fill="#000" stroke="none" d="M35.15 62.5Q34.45 62.95 39.35 62.6 44.6 62.25 49.2 60.5 54.119 58.629 57.35 55.55 55.822 56.143 53.6 56.65L49.15 57.75Q43.319 58.986 37.4 59.65 36.426 61.649 35.15 62.5Z"/><animate attributeName="display" repeatCount="indefinite" dur="3.325s" keyTimes="0;.195;.203;1" values="none;inline;none;none"/></g><g display="none" id="Layer121_0_FILL"><path fill="#000" stroke="none" d="M35.15 62.5Q34.45 62.95 39.35 62.6 44.6 62.25 49.2 60.5 55.992 57.917 59.6 53.05 59.388 53.184 59.1 53.3 57.35 54.1 56 54.35L53.9 54.65Q53 54.8 50.65 55.7 45.4 57.7 38.25 58.2 38.151 58.206 38.05 58.2 36.862 61.358 35.15 62.5Z"/><animate attributeName="display" repeatCount="indefinite" dur="3.325s" keyTimes="0;.188;.195;1" values="none;inline;none;none"/></g><g display="none" id="Layer120_0_FILL"><path fill="#000" stroke="none" d="M35.15 62.5Q34.45 62.95 39.35 62.6 44.6 62.25 49.2 60.5 58.493 56.966 61.85 49.2 60.480 50.259 58.4 51 57.5 51.3 53.2 52.3 49.2 53.3 44.2 54.8L40.35 56.05Q39.369 56.448 38.6 56.55 37.275 61.082 35.15 62.5Z"/><animate attributeName="display" repeatCount="indefinite" dur="3.325s" keyTimes="0;.18;.188;1" values="none;inline;none;none"/></g><g display="none" id="Layer119_0_FILL"><path fill="#000" stroke="none" d="M62.95 45.9Q60.049 47.830 56.5 48.65L52.85 49.75Q52.75 49.8 51 50.05L49.3 50.55Q44.75 52.1 42.7 52.6 40.954 53.103 39.35 53.2L39.25 53.9Q37.85 60.7 35.15 62.5 34.45 62.95 39.35 62.6 44.6 62.25 49.2 60.5 60.348 56.261 62.95 45.9Z"/><animate attributeName="display" repeatCount="indefinite" dur="3.325s" keyTimes="0;.173;.18;1" values="none;inline;none;none"/></g><g display="none" id="Layer118_0_FILL"><path fill="#000" stroke="none" d="M63.55 42.85Q63.3 42.95 62.9 43.05 61.55 43.4 59.7 44.2 57.6 45.15 56.55 45.6 54.6 46.45 51.1 47.6 47.05 48.95 45.6 49.5 42.2 50.75 41.85 50.85 40.65 51.2 39.6 51.3L39.25 53.85Q37.85 60.65 35.15 62.45 34.45 62.9 39.35 62.55 44.6 62.2 49.2 60.45 61.9 55.6 63.55 42.85Z"/><animate attributeName="display" repeatCount="indefinite" dur="3.325s" keyTimes="0;.165;.173;1" values="none;inline;none;none"/></g><g display="none" id="Layer117_0_FILL"><path fill="#000" stroke="none" d="M63.75 39.95Q61.984 41.052 60.9 41.4L42.8 47.7Q41.128 48.266 39.95 48.4L39.25 53.9Q37.85 60.7 35.15 62.5 34.45 62.95 39.35 62.6 44.6 62.25 49.2 60.5 63.337 55.125 63.75 39.95Z"/><animate attributeName="display" repeatCount="indefinite" dur="3.325s" keyTimes="0;.158;.165;1" values="none;inline;none;none"/></g><g display="none" id="Layer116_0_FILL"><path fill="#000" stroke="none" d="M62.5 39.6Q61.9 39.85 60.6 40.15 56.15 41.25 52.25 42.75 49.25 43.8 48.7 43.9L46.75 44.35Q44 45.15 42.6 45.55 41.2 45.9 40.15 46 40.1 46.7 40.1 47.4L39.25 53.85Q37.85 60.65 35.15 62.45 34.45 62.9 39.35 62.55 44.6 62.2 49.2 60.45 63.8 54.9 63.8 38.9L63.8 38.85Q63.7 38.9 63.55 39L62.5 39.6Z"/><animate attributeName="display" repeatCount="indefinite" dur="3.325s" keyTimes="0;.15;.158;1" values="none;inline;none;none"/></g><g display="none" id="Layer115_0_FILL"><path fill="#000" stroke="none" d="M63.8 38.95Q63.8 37.733 63.75 36.55 63.605 36.631 63.4 36.7L62.2 37.05Q61.95 37.1 60.45 37.95 58.6 39.05 55.3 39.9 50.8 41.05 49.9 41.35L46.75 42.55 45.4 42.9Q42.376 43.618 40.15 43.65 40.131 45.541 40.1 47.45L39.25 53.9Q37.85 60.7 35.15 62.5 34.45 62.95 39.35 62.6 44.6 62.25 49.2 60.5 63.8 54.95 63.8 38.95Z"/><animate attributeName="display" repeatCount="indefinite" dur="3.325s" keyTimes="0;.143;.15;1" values="none;inline;none;none"/></g><g display="none" id="Layer114_0_FILL"><path fill="#000" stroke="none" d="M63.8 38.9Q63.8 35.7 63.7 32.85 60.95 34.35 59.25 35L57.45 35.7Q57.25 35.8 55.6 36.6 53.95 37.4 51.3 38.2 48.35 39.05 46.9 39.5 44.1 40.55 42.7 40.95 41.35 41.35 40.2 41.55 40.15 44.45 40.1 47.4L39.25 53.85Q37.85 60.65 35.15 62.45 34.45 62.9 39.35 62.55 44.6 62.2 49.2 60.45 63.8 54.9 63.8 38.9Z"/><animate attributeName="display" repeatCount="indefinite" dur="3.325s" keyTimes="0;.135;.143;1" values="none;inline;none;none"/></g><g display="none" id="Layer113_0_FILL"><path fill="#000" stroke="none" d="M63.8 38.95Q63.8 35.428 63.65 32.3 63.415 32.466 63.1 32.55 62.9 32.6 61.2 32.75 60.45 32.85 58.8 33.5 52.5 36.1 49.25 37.1 47.2 37.75 41.05 39.2 40.596 39.317 40.2 39.4 40.166 43.376 40.1 47.45L39.25 53.9Q37.85 60.7 35.15 62.5 34.45 62.95 39.35 62.6 44.6 62.25 49.2 60.5 63.8 54.95 63.8 38.95Z"/><animate attributeName="display" repeatCount="indefinite" dur="3.325s" keyTimes="0;.128;.135;1" values="none;inline;none;none"/></g><g display="none" id="Layer112_0_FILL"><path fill="#000" stroke="none" d="M60.55 30.85Q58.2 31.25 57.1 31.6L55.9 32.05Q53.6 32.45 52.5 32.75 50.55 33.45 49.6 33.75 49.15 33.9 46.9 34.4L41.2 36.2Q40.65 36.4 40.2 36.5 40.2 41.85 40.1 47.4L39.25 53.85Q37.85 60.65 35.15 62.45 34.45 62.9 39.35 62.55 44.6 62.2 49.2 60.45 63.8 54.9 63.8 38.9 63.8 33.7 63.55 29.35 63.25 29.5 62.75 29.8 61.5 30.6 60.55 30.85Z"/><animate attributeName="display" repeatCount="indefinite" dur="3.325s" keyTimes="0;.12;.128;1" values="none;inline;none;none"/></g><g display="none" id="Layer111_0_FILL"><path fill="#000" stroke="none" d="M63.8 38.9Q63.8 33.05 63.5 28.35L63.25 28.55Q62.75 29 61.75 29.25 60.6 29.45 60 29.55 58.25 30 57.4 30.2L43.9 32.7Q41.55 33.05 40.2 33.2 40.2 40.15 40.1 47.4L39.25 53.85Q37.85 60.65 35.15 62.45 34.45 62.9 39.35 62.55 44.6 62.2 49.2 60.45 63.8 54.9 63.8 38.9Z"/><animate attributeName="display" repeatCount="indefinite" dur="3.325s" keyTimes="0;.113;.12;1" values="none;inline;none;none"/></g><g display="none" id="Layer110_0_FILL"><path fill="#000" stroke="none" d="M63.8 38.95Q63.8 30.799 63.15 24.8 61.560 25 58.65 27 57.65 27.4 56.85 27.55L55.05 27.9Q53.9 28.15 52.1 28.7 50.55 29.2 47.95 29.85L45.25 30.5Q42.665 31.016 40.2 31.2 40.234 39.148 40.1 47.45L39.25 53.9Q37.85 60.7 35.15 62.5 34.45 62.95 39.35 62.6 44.6 62.25 49.2 60.5 63.8 54.95 63.8 38.95Z"/><animate attributeName="display" repeatCount="indefinite" dur="3.325s" keyTimes="0;.105;.113;1" values="none;inline;none;none"/></g><g display="none" id="Layer109_0_FILL"><path fill="#000" stroke="none" d="M63.8 38.9Q63.8 28.45 62.75 21.5 58.65 23.4 56.55 23.95 56 24.1 52.8 24.7 50.55 25.15 49.2 25.75L46.9 26.85 44.35 27.65Q41.9 28.5 40.65 28.85 40.4 28.9 40.2 29 40.25 37.95 40.1 47.4L39.25 53.85Q37.85 60.65 35.15 62.45 34.45 62.9 39.35 62.55 44.6 62.2 49.2 60.45 63.8 54.9 63.8 38.9Z"/><animate attributeName="display" repeatCount="indefinite" dur="3.325s" keyTimes="0;.098;.105;1" values="none;inline;none;none"/></g><g display="none" id="Layer108_0_FILL"><path fill="#000" stroke="none" d="M63.8 38.95Q63.8 26.647 62.3 19.2 61.650 19.510 60.8 19.7 59.2 20 58.4 20.2 57.7 20.4 54.3 21.75 48.95 23.45 46.4 24.55 44.2 25.65 43.05 26.2 41.417 27.016 40.15 27.4 40.267 37.121 40.1 47.45L39.25 53.9Q37.85 60.7 35.15 62.5 34.45 62.95 39.35 62.6 44.6 62.25 49.2 60.5 63.8 54.95 63.8 38.95Z"/><animate attributeName="display" repeatCount="indefinite" dur="3.325s" keyTimes="0;.09;.098;1" values="none;inline;none;none"/></g><g display="none" id="Layer107_0_FILL"><path fill="#000" stroke="none" d="M63.8 38.95Q63.8 24.911 61.85 17.2 61.800 17.268 61.75 17.3 61.3 17.55 60.2 17.75 58.55 18.1 57.15 18.5 53.65 19.5 48.55 21.75 41.151 25.005 40.1 25.4 40.285 36.055 40.1 47.45L39.25 53.9Q37.85 60.7 35.15 62.5 34.45 62.95 39.35 62.6 44.6 62.25 49.2 60.5 63.8 54.95 63.8 38.95Z"/><animate attributeName="display" repeatCount="indefinite" dur="3.325s" keyTimes="0;.083;.09;1" values="none;inline;none;none"/></g><g display="none" id="Layer106_0_FILL"><path fill="#000" stroke="none" d="M63.8 38.95Q63.8 23.542 61.45 15.8L57 17.55 55.6 17.85Q53.7 18.25 51.6 19L48.05 20.35Q45.5 21.4 42.55 22.45 41.119 22.926 40.05 23.1 40.093 23.405 40.1 23.7 40.3 35.15 40.1 47.45L39.25 53.9Q37.85 60.7 35.15 62.5 34.45 62.95 39.35 62.6 44.6 62.25 49.2 60.5 63.8 54.95 63.8 38.95Z"/><animate attributeName="display" repeatCount="indefinite" dur="3.325s" keyTimes="0;.075;.083;1" values="none;inline;none;none"/></g><g display="none" id="Layer105_0_FILL"><path fill="#000" stroke="none" d="M63.8 38.9Q63.8 21.05 60.65 13.5L53.8 16.5Q52.75 16.85 52.25 17.1L51.05 17.75Q50 18.35 48 18.9 45.75 19.5 44.9 19.9 42.9 21 41.9 21.5 40.9 22.05 40.05 22.25 40.1 22.9 40.1 23.65 40.3 35.1 40.1 47.4L39.25 53.85Q37.85 60.65 35.15 62.45 34.45 62.9 39.35 62.55 44.6 62.2 49.2 60.45 63.8 54.9 63.8 38.9Z"/><animate attributeName="display" repeatCount="indefinite" dur="3.325s" keyTimes="0;.068;.075;1" values="none;inline;none;none"/></g><g display="none" id="Layer104_0_FILL"><path fill="#000" stroke="none" d="M63.8 38.9Q63.8 20.4 60.4 12.95 60.25 12.6 60.1 12.3 60 12.3 59.9 12.35 59.85 12.4 58.6 13.2 58.5 13.3 56.25 14.4 53.95 15.65 52.7 16.15L50.3 16.9Q48.4 17.5 45.2 18.7 41.5 20.1 40.15 20.55L39.8 20.65Q40.05 22 40.1 23.65 40.3 35.1 40.1 47.4L39.25 53.85Q37.85 60.65 35.15 62.45 34.45 62.9 39.35 62.55 44.6 62.2 49.2 60.45 63.8 54.9 63.8 38.9Z"/><animate attributeName="display" repeatCount="indefinite" dur="3.325s" keyTimes="0;.06;.068;1" values="none;inline;none;none"/></g><g display="none" id="Layer103_0_FILL"><path fill="#000" stroke="none" d="M63.8 38.95Q63.8 20.45 60.4 13 59.206 10.370 57.35 8.4 55.206 10.626 52.5 12.3 51.25 13.05 48.6 14.3 45.95 15.55 44.7 16.3 42.25 17.85 41 18.45 40.157 18.871 39.35 19.1 40.044 21.044 40.1 23.7 40.3 35.15 40.1 47.45L39.25 53.9Q37.85 60.7 35.15 62.5 34.45 62.95 39.35 62.6 44.6 62.25 49.2 60.5 63.8 54.95 63.8 38.95Z"/><animate attributeName="display" repeatCount="indefinite" dur="3.325s" keyTimes="0;.053;.06;1" values="none;inline;none;none"/></g><g display="none" id="Layer102_0_FILL"><path fill="#000" stroke="none" d="M63.8 38.95Q63.8 20.45 60.4 13 57.631 6.903 51.45 4.4 51.266 4.716 51.05 5.15L50.05 6.45Q49 7.8 48.15 8.5L47.4 9.15 46.75 10Q45.15 12.2 43.05 13.85L40.35 15.75Q39.4 16.35 39.1 16.45L38.1 16.8Q40.007 19.233 40.1 23.7 40.3 35.15 40.1 47.45L39.25 53.9Q37.85 60.7 35.15 62.5 34.45 62.95 39.35 62.6 44.6 62.25 49.2 60.5 63.8 54.95 63.8 38.95Z"/><animate attributeName="display" repeatCount="indefinite" dur="3.325s" keyTimes="0;.045;.053;1" values="none;inline;none;none"/></g><g display="none" id="Layer101_0_FILL"><path fill="#000" stroke="none" d="M63.8 39Q63.8 20.5 60.4 13.05 57 5.6 48.5 3.55 48.35 3.9 48.15 4.25L47.35 5.65 46.55 6.4Q46.25 6.7 46 7.2L44.45 9.1Q41.6 12.4 37.75 14.5 36.75 15 36.2 15.15L36.15 15.15Q39.95 17.4 40.1 23.75 40.3 35.2 40.1 47.5L39.25 53.95Q37.85 60.75 35.15 62.55 34.45 63 39.35 62.65 44.6 62.3 49.2 60.55 63.8 55 63.8 39Z"/><animate attributeName="display" repeatCount="indefinite" dur="3.325s" keyTimes="0;.038;.045;1" values="none;inline;none;none"/></g><g display="none" id="Layer100_0_FILL"><path fill="#000" stroke="none" d="M63.8 39Q63.8 20.5 60.4 13.05 56.2 3.8 44.15 2.9 42.05 2.55 39.95 2.9 39.85 4.45 39.35 6.4 38.9 8.1 37.75 11.55 37.25 13.15 37.05 13.5 36.7 14.2 35.85 15 39.95 17.1 40.1 23.75 40.3 35.2 40.1 47.5L39.25 53.95Q37.85 60.75 35.15 62.55 34.45 63 39.35 62.65 44.6 62.3 49.2 60.55 63.8 55 63.8 39Z"/><animate attributeName="display" repeatCount="indefinite" dur="3.325s" keyTimes="0;.03;.038;1" values="none;inline;none;none"/></g><g display="none" id="Layer99_0_FILL"><path fill="#000" stroke="none" d="M63.8 39Q63.8 20.5 60.4 13.05 56.2 3.8 44.15 2.9 40.75 2.35 37.3 3.5 36.8 3.65 36.3 3.9 36.45 6.95 36.3 8.2 36.15 10.05 35.5 12.3 35.05 13.6 34.55 14.45 34.85 14.55 35.1 14.65 39.95 16.55 40.1 23.75 40.3 35.2 40.1 47.5L39.25 53.95Q37.85 60.75 35.15 62.55 34.45 63 39.35 62.65 44.6 62.3 49.2 60.55 63.8 55 63.8 39Z"/><animate attributeName="display" repeatCount="indefinite" dur="3.325s" keyTimes="0;.023;.03;1" values="none;inline;none;none"/></g><g display="none" id="Layer98_0_FILL"><path fill="#000" stroke="none" d="M63.8 39Q63.8 20.5 60.4 13.05 56.2 3.8 44.15 2.9 40.75 2.35 37.3 3.5 34.55 4.4 32.9 6.3L33.85 10.05 33.85 13.65 33.75 14.25Q34.45 14.4 35.1 14.65 39.95 16.55 40.1 23.75 40.3 35.2 40.1 47.5L39.25 53.95Q37.85 60.75 35.15 62.55 34.45 63 39.35 62.65 44.6 62.3 49.2 60.55 63.8 55 63.8 39Z"/><animate attributeName="display" repeatCount="indefinite" dur="3.325s" keyTimes="0;.015;.023;1" values="none;inline;none;none"/></g><g display="none" id="Layer97_0_FILL"><path fill="#000" stroke="none" d="M63.8 39Q63.8 20.5 60.4 13.05 56.2 3.8 44.15 2.9 40.75 2.35 37.3 3.5 33.15 4.85 31.5 8.45L31.5 8.5Q31.9 9.2 32 9.6L32.45 11.5 32.65 14.1Q33.95 14.2 35.1 14.65 39.95 16.55 40.1 23.75 40.3 35.2 40.1 47.5L39.25 53.95Q37.85 60.75 35.15 62.55 34.45 63 39.35 62.65 44.6 62.3 49.2 60.55 63.8 55 63.8 39Z"/><animate attributeName="display" repeatCount="indefinite" dur="3.325s" keyTimes="0;.008;.015;1" values="none;inline;none;none"/></g><g display="none" id="Layer96_0_FILL"><path fill="#000" stroke="none" d="M60.4 13.05Q56.2 3.8 44.15 2.9 40.75 2.35 37.3 3.5 30.45 5.75 30.3 14.15L31.8 14.05Q33.6 14.05 35.1 14.65 39.95 16.55 40.1 23.75 40.3 35.2 40.1 47.5L39.25 53.95Q37.85 60.75 35.15 62.55 34.45 63 39.35 62.65 44.6 62.3 49.2 60.55 63.8 55 63.8 39 63.8 20.5 60.4 13.05Z"/><animate attributeName="display" repeatCount="indefinite" dur="3.325s" keyTimes="0;.008;1" values="inline;none;none"/></g><g display="none" id="Layer95_0_FILL"><path fill="#000" stroke="none" d="M28.95 2.5Q29.65 2.05 24.75 2.4 21.6 2.6 18.7 3.3 19 3.55 19.25 3.85L19.55 4.2Q19.75 4.35 20.1 4.35 20.65 4.4 21.5 4.6 22.55 4.5 23.9 4.5 25.65 4.45 27.15 4.45 27.95 3.15 28.95 2.5Z"/><animate attributeName="display" repeatCount="indefinite" dur="3.325s" keyTimes="0;.451;.459;1" values="none;inline;none;none"/></g><g display="none" id="Layer94_0_FILL"><path fill="#000" stroke="none" d="M29 2.5Q29.7 2.05 24.8 2.4 19.55 2.75 14.95 4.5 12.15 5.55 9.9 7 12.5 6.35 15.4 5.85 17.4 5.55 18.35 5.3L20.1 4.8Q21.6 4.5 23.95 4.5 25.7 4.45 27.2 4.45 28 3.15 29 2.5Z"/><animate attributeName="display" repeatCount="indefinite" dur="3.325s" keyTimes="0;.444;.451;1" values="none;inline;none;none"/></g><g display="none" id="Layer93_0_FILL"><path fill="#000" stroke="none" d="M29 2.5Q29.7 2.05 24.8 2.4 19.55 2.75 14.95 4.5 10.05 6.35 6.75 9.4 8.35 8.85 10.55 8.35L15 7.25Q20.85 6 26.75 5.3 27.7 3.35 29 2.5Z"/><animate attributeName="display" repeatCount="indefinite" dur="3.325s" keyTimes="0;.436;.444;1" values="none;inline;none;none"/></g><g display="none" id="Layer92_0_FILL"><path fill="#000" stroke="none" d="M26.1 6.8Q27.3 3.65 29 2.5 29.7 2.05 24.8 2.4 19.55 2.75 14.95 4.5 8.15 7.1 4.5 11.9 4.75 11.8 5.05 11.7 6.8 10.9 8.15 10.65L10.25 10.35Q11.15 10.2 13.5 9.3 18.75 7.3 25.9 6.8 26 6.8 26.1 6.8Z"/><animate attributeName="display" repeatCount="indefinite" dur="3.325s" keyTimes="0;.429;.436;1" values="none;inline;none;none"/></g><g display="none" id="Layer91_0_FILL"><path fill="#000" stroke="none" d="M29 2.5Q29.7 2.05 24.8 2.4 19.55 2.75 14.95 4.5 5.65 8.05 2.25 15.8 3.65 14.75 5.75 14 6.65 13.7 10.95 12.7 14.95 11.7 19.95 10.2L23.8 8.95Q24.8 8.55 25.55 8.4 26.85 3.9 29 2.5Z"/><animate attributeName="display" repeatCount="indefinite" dur="3.325s" keyTimes="0;.421;.429;1" values="none;inline;none;none"/></g><g display="none" id="Layer90_0_FILL"><path fill="#000" stroke="none" d="M24.8 11.8L24.9 11.1Q26.3 4.3 29 2.5 29.7 2.05 24.8 2.4 19.55 2.75 14.95 4.5 3.8 8.75 1.15 19.05 4.1 17.15 7.65 16.35L11.3 15.25Q11.4 15.2 13.15 14.95L14.85 14.45Q19.4 12.9 21.45 12.4 23.2 11.9 24.8 11.8Z"/><animate attributeName="display" repeatCount="indefinite" dur="3.325s" keyTimes="0;.414;.421;1" values="none;inline;none;none"/></g><g display="none" id="Layer89_0_FILL"><path fill="#000" stroke="none" d="M24.55 13.65L24.9 11.1Q26.3 4.3 29 2.5 29.7 2.05 24.8 2.4 19.55 2.75 14.95 4.5 2.25 9.35 .6 22.1 .85 22 1.25 21.9 2.6 21.55 4.45 20.75 6.55 19.8 7.6 19.35 9.55 18.5 13.05 17.35 17.1 16 18.55 15.45 21.95 14.2 22.3 14.1 23.5 13.75 24.55 13.65Z"/><animate attributeName="display" repeatCount="indefinite" dur="3.325s" keyTimes="0;.406;.414;1" values="none;inline;none;none"/></g><g display="none" id="Layer88_0_FILL"><path fill="#000" stroke="none" d="M24.85 11.1Q26.25 4.3 28.95 2.5 29.65 2.05 24.75 2.4 19.5 2.75 14.9 4.5 .75 9.85 .3 25.05 2.1 23.95 3.2 23.6L21.3 17.3Q22.95 16.75 24.1 16.6L24.85 11.1Z"/><animate attributeName="display" repeatCount="indefinite" dur="3.325s" keyTimes="0;.398;.406;1" values="none;inline;none;none"/></g><g display="none" id="Layer87_0_FILL"><path fill="#000" stroke="none" d="M23.95 18.95Q24 18.25 24 17.55L24.85 11.1Q26.25 4.3 28.95 2.5 29.65 2.05 24.75 2.4 19.5 2.75 14.9 4.5 .3 10.05 .3 26.05L.3 26.1Q.4 26.05 .55 25.95L1.6 25.35Q2.2 25.1 3.5 24.8 7.95 23.7 11.85 22.2 14.85 21.15 15.4 21.05L17.35 20.6Q20.1 19.8 21.5 19.4 22.9 19.05 23.95 18.95Z"/><animate attributeName="display" repeatCount="indefinite" dur="3.325s" keyTimes="0;.391;.398;1" values="none;inline;none;none"/></g><g display="none" id="Layer86_0_FILL"><path fill="#000" stroke="none" d="M23.95 21.35Q23.95 19.45 24 17.55L24.85 11.1Q26.25 4.3 28.95 2.5 29.65 2.05 24.75 2.4 19.5 2.75 14.9 4.5 .3 10.05 .3 26.05 .3 27.25 .3 28.4 .5 28.35 .7 28.3L1.9 27.95Q2.15 27.9 3.65 27.05 5.5 25.95 8.8 25.1 13.3 23.95 14.2 23.65L17.35 22.45 18.7 22.1Q21.7 21.4 23.95 21.35Z"/><animate attributeName="display" repeatCount="indefinite" dur="3.325s" keyTimes="0;.383;.391;1" values="none;inline;none;none"/></g><g display="none" id="Layer85_0_FILL"><path fill="#000" stroke="none" d="M23.9 23.4Q23.95 20.5 24 17.55L24.85 11.1Q26.25 4.3 28.95 2.5 29.65 2.05 24.75 2.4 19.5 2.75 14.9 4.5 .3 10.05 .3 26.05 .3 29.25 .4 32.1 3.15 30.6 4.85 29.95L6.65 29.25Q6.85 29.15 8.5 28.35 10.15 27.55 12.8 26.75 15.75 25.9 17.2 25.45 20 24.4 21.4 24 22.75 23.6 23.9 23.4Z"/><animate attributeName="display" repeatCount="indefinite" dur="3.325s" keyTimes="0;.376;.383;1" values="none;inline;none;none"/></g><g display="none" id="Layer84_0_FILL"><path fill="#000" stroke="none" d="M24 17.55L24.85 11.1Q26.25 4.3 28.95 2.5 29.65 2.05 24.75 2.4 19.5 2.75 14.9 4.5 .3 10.05 .3 26.05 .3 29.55 .4 32.7 .7 32.55 1 32.45 1.2 32.4 2.9 32.25 3.65 32.15 5.3 31.5 11.6 28.9 14.85 27.9 16.9 27.25 23.05 25.8 23.5 25.7 23.9 25.6 23.95 21.6 24 17.55Z"/><animate attributeName="display" repeatCount="indefinite" dur="3.325s" keyTimes="0;.368;.376;1" values="none;inline;none;none"/></g><g display="none" id="Layer83_0_FILL"><path fill="#000" stroke="none" d="M24 17.55L24.85 11.1Q26.25 4.3 28.95 2.5 29.65 2.05 24.75 2.4 19.5 2.75 14.9 4.5 .3 10.05 .3 26.05 .3 31.25 .55 35.6 .85 35.45 1.35 35.15 2.6 34.35 3.55 34.1 5.9 33.7 7 33.35L8.2 32.9Q10.5 32.5 11.6 32.2 13.55 31.5 14.5 31.2 14.95 31.05 17.2 30.55L22.9 28.75Q23.45 28.55 23.9 28.45 23.9 23.1 24 17.55Z"/><animate attributeName="display" repeatCount="indefinite" dur="3.325s" keyTimes="0;.361;.368;1" values="none;inline;none;none"/></g><g display="none" id="Layer82_0_FILL"><path fill="#000" stroke="none" d="M24 17.55L24.85 11.1Q26.25 4.3 28.95 2.5 29.65 2.05 24.75 2.4 19.5 2.75 14.9 4.5 .3 10.05 .3 26.05 .3 31.9 .6 36.6L.85 36.4Q1.35 35.95 2.35 35.7 3.5 35.5 4.1 35.4 5.85 34.95 6.7 34.75L20.2 32.25Q22.55 31.9 23.9 31.75 23.9 24.8 24 17.55Z"/><animate attributeName="display" repeatCount="indefinite" dur="3.325s" keyTimes="0;.353;.361;1" values="none;inline;none;none"/></g><g display="none" id="Layer81_0_FILL"><path fill="#000" stroke="none" d="M24 17.55L24.85 11.1Q26.25 4.3 28.95 2.5 29.65 2.05 24.75 2.4 19.5 2.75 14.9 4.5 .3 10.05 .3 26.05 .3 34.2 .95 40.2 2.55 39 5.45 38 6.45 37.6 7.25 37.45L9.05 37.1Q10.2 36.85 12 36.3 13.55 35.8 16.15 35.15L18.85 34.5Q21.45 34 23.9 33.75 23.85 25.85 24 17.55Z"/><animate attributeName="display" repeatCount="indefinite" dur="3.325s" keyTimes="0;.346;.353;1" values="none;inline;none;none"/></g><g display="none" id="Layer80_0_FILL"><path fill="#000" stroke="none" d="M24 17.6L24.85 11.15Q26.25 4.35 28.95 2.55 29.65 2.1 24.75 2.45 19.5 2.8 14.9 4.55 .3 10.1 .3 26.1 .3 36.55 1.35 43.5 5.45 41.6 7.55 41.05 8.1 40.9 11.3 40.3 13.55 39.85 14.9 39.25L17.2 38.15 19.75 37.35Q22.2 36.5 23.45 36.15 23.7 36.1 23.9 36 23.85 27.05 24 17.6Z"/><animate attributeName="display" repeatCount="indefinite" dur="3.325s" keyTimes="0;.338;.346;1" values="none;inline;none;none"/></g><g display="none" id="Layer79_0_FILL"><path fill="#000" stroke="none" d="M24 17.55L24.85 11.1Q26.25 4.3 28.95 2.5 29.65 2.05 24.75 2.4 19.5 2.75 14.9 4.5 .3 10.05 .3 26.05 .3 38.35 1.8 45.75 2.45 45.5 3.3 45.3 4.9 45 5.7 44.8 6.4 44.6 9.8 43.25 15.15 41.55 17.7 40.45 19.9 39.35 21.05 38.8 22.7 38 23.95 37.6 23.85 27.9 24 17.55Z"/><animate attributeName="display" repeatCount="indefinite" dur="3.325s" keyTimes="0;.331;.338;1" values="none;inline;none;none"/></g><g display="none" id="Layer78_0_FILL"><path fill="#000" stroke="none" d="M24 17.55L24.85 11.1Q26.25 4.3 28.95 2.5 29.65 2.05 24.75 2.4 19.5 2.75 14.9 4.5 .3 10.05 .3 26.05 .3 40.1 2.25 47.75 2.3 47.75 2.35 47.7 2.8 47.45 3.9 47.25 5.55 46.9 6.95 46.5 10.45 45.5 15.55 43.25 22.95 40 23.95 39.6 23.8 28.95 24 17.55Z"/><animate attributeName="display" repeatCount="indefinite" dur="3.325s" keyTimes="0;.323;.331;1" values="none;inline;none;none"/></g><g display="none" id="Layer77_0_FILL"><path fill="#000" stroke="none" d="M24 17.55L24.85 11.1Q26.25 4.3 28.95 2.5 29.65 2.05 24.75 2.4 19.5 2.75 14.9 4.5 .3 10.05 .3 26.05 .3 41.45 2.65 49.2L7.1 47.45 8.5 47.15Q10.4 46.75 12.5 46L16.05 44.65Q18.6 43.6 21.55 42.55 23 42.05 24 41.85 24 41.6 24 41.3 23.8 29.85 24 17.55Z"/><animate attributeName="display" repeatCount="indefinite" dur="3.325s" keyTimes="0;.316;.323;1" values="none;inline;none;none"/></g><g display="none" id="Layer76_0_FILL"><path fill="#000" stroke="none" d="M24 17.6L24.85 11.15Q26.25 4.35 28.95 2.55 29.65 2.1 24.75 2.45 19.5 2.8 14.9 4.55 .3 10.1 .3 26.1 .3 43.95 3.45 51.5L10.3 48.5Q11.35 48.15 11.85 47.9L13.05 47.25Q14.1 46.65 16.1 46.1 18.35 45.5 19.2 45.1 21.2 44 22.2 43.5 23.2 42.95 24.05 42.75 24 42.1 24 41.35 23.8 29.9 24 17.6Z"/><animate attributeName="display" repeatCount="indefinite" dur="3.325s" keyTimes="0;.308;.316;1" values="none;inline;none;none"/></g><g display="none" id="Layer75_0_FILL"><path fill="#000" stroke="none" d="M24 17.55L24.85 11.1Q26.25 4.3 28.95 2.5 29.65 2.05 24.75 2.4 19.5 2.75 14.9 4.5 .3 10.05 .3 26.05 .3 44.55 3.7 52 3.85 52.35 4 52.65 4.1 52.65 4.2 52.6 4.25 52.55 5.5 51.75 5.6 51.65 7.85 50.55 10.15 49.3 11.4 48.8L13.8 48.05Q15.7 47.45 18.9 46.25 22.6 44.85 23.95 44.4L24.3 44.3Q24.05 42.95 24 41.3 23.8 29.85 24 17.55Z"/><animate attributeName="display" repeatCount="indefinite" dur="3.325s" keyTimes="0;.301;.308;1" values="none;inline;none;none"/></g><g display="none" id="Layer74_0_FILL"><path fill="#000" stroke="none" d="M24 17.55L24.85 11.1Q26.25 4.3 28.95 2.5 29.65 2.05 24.75 2.4 19.5 2.75 14.9 4.5 .3 10.05 .3 26.05 .3 44.55 3.7 52 4.9 54.65 6.7 56.55 8.9 54.35 11.6 52.7 12.85 51.95 15.5 50.7 18.15 49.45 19.4 48.7 21.85 47.15 23.1 46.55 23.95 46.15 24.75 45.9 24.05 43.95 24 41.3 23.8 29.85 24 17.55Z"/><animate attributeName="display" repeatCount="indefinite" dur="3.325s" keyTimes="0;.293;.301;1" values="none;inline;none;none"/></g><g display="none" id="Layer73_0_FILL"><path fill="#000" stroke="none" d="M24 17.55L24.85 11.1Q26.25 4.3 28.95 2.5 29.65 2.05 24.75 2.4 19.5 2.75 14.9 4.5 .3 10.05 .3 26.05 .3 44.55 3.7 52 6.45 58.1 12.65 60.55 12.85 60.3 13.05 59.85L14.05 58.55Q15.1 57.2 15.95 56.5L16.7 55.85 17.35 55Q18.95 52.8 21.05 51.15L23.75 49.25Q24.7 48.65 25 48.55L26 48.2Q24.1 45.75 24 41.3 23.8 29.85 24 17.55Z"/><animate attributeName="display" repeatCount="indefinite" dur="3.325s" keyTimes="0;.286;.293;1" values="none;inline;none;none"/></g><g display="none" id="Layer72_0_FILL"><path fill="#000" stroke="none" d="M24 41.35Q23.8 29.9 24 17.6L24.85 11.15Q26.25 4.35 28.95 2.55 29.65 2.1 24.75 2.45 19.5 2.8 14.9 4.55 .3 10.1 .3 26.1 .3 44.6 3.7 52.05 7.1 59.5 15.6 61.55 15.75 61.2 15.95 60.85L16.75 59.45 17.55 58.7Q17.85 58.4 18.1 57.9L19.65 56Q22.5 52.7 26.35 50.6 27.35 50.1 27.9 49.95L27.95 49.95Q24.15 47.7 24 41.35Z"/><animate attributeName="display" repeatCount="indefinite" dur="3.325s" keyTimes="0;.278;.286;1" values="none;inline;none;none"/></g><g display="none" id="Layer71_0_FILL"><path fill="#000" stroke="none" d="M24 41.3Q23.8 29.85 24 17.55L24.85 11.1Q26.25 4.3 28.95 2.5 29.65 2.05 24.75 2.4 19.5 2.75 14.9 4.5 .3 10.05 .3 26.05 .3 44.55 3.7 52 7.9 61.25 19.95 62.15 22.05 62.5 24.15 62.15 24.25 60.6 24.75 58.65 25.2 56.95 26.35 53.5 26.85 51.9 27.05 51.55 27.4 50.85 28.25 50.05 24.15 47.95 24 41.3Z"/><animate attributeName="display" repeatCount="indefinite" dur="3.325s" keyTimes="0;.271;.278;1" values="none;inline;none;none"/></g><g display="none" id="Layer70_0_FILL"><path fill="#000" stroke="none" d="M24 41.3Q23.8 29.85 24 17.55L24.85 11.1Q26.25 4.3 28.95 2.5 29.65 2.05 24.75 2.4 19.5 2.75 14.9 4.5 .3 10.05 .3 26.05 .3 44.55 3.7 52 7.9 61.25 19.95 62.15 23.35 62.7 26.8 61.55 27.3 61.4 27.8 61.15 27.65 58.1 27.8 56.85 27.95 55 28.6 52.75 29.05 51.45 29.55 50.6 29.25 50.5 29 50.4 24.15 48.5 24 41.3Z"/><animate attributeName="display" repeatCount="indefinite" dur="3.325s" keyTimes="0;.263;.271;1" values="none;inline;none;none"/></g><g display="none" id="Layer69_0_FILL"><path fill="#000" stroke="none" d="M24.05 41.3Q23.85 29.85 24.05 17.55L24.9 11.1Q26.3 4.3 29 2.5 29.7 2.05 24.8 2.4 19.55 2.75 14.95 4.5 .35 10.05 .35 26.05 .35 44.55 3.75 52 7.95 61.25 20 62.15 23.4 62.7 26.85 61.55 29.6 60.65 31.25 58.75L30.3 55 30.3 51.4 30.4 50.8Q29.7 50.65 29.05 50.4 24.2 48.5 24.05 41.3Z"/><animate attributeName="display" repeatCount="indefinite" dur="3.325s" keyTimes="0;.256;.263;1" values="none;inline;none;none"/></g><g display="none" id="Layer68_0_FILL"><path fill="#000" stroke="none" d="M24.05 41.3Q23.85 29.85 24.05 17.55L24.9 11.1Q26.3 4.3 29 2.5 29.7 2.05 24.8 2.4 19.55 2.75 14.95 4.5 .35 10.05 .35 26.05 .35 44.55 3.75 52 7.95 61.25 20 62.15 23.4 62.7 26.85 61.55 31 60.2 32.65 56.6L32.65 56.55Q32.25 55.85 32.15 55.45L31.7 53.55 31.5 50.95Q30.2 50.85 29.05 50.4 24.2 48.5 24.05 41.3Z"/><animate attributeName="display" repeatCount="indefinite" dur="3.325s" keyTimes="0;.248;.256;1" values="none;inline;none;none"/></g><g display="none" id="Layer67_0_FILL"><path fill="#000" stroke="none" d="M24 41.3Q23.8 29.85 24 17.55L24.85 11.1Q26.25 4.3 28.95 2.5 29.65 2.05 24.75 2.4 19.5 2.75 14.9 4.5 .3 10.05 .3 26.05 .3 44.55 3.7 52 7.9 61.25 19.95 62.15 23.35 62.7 26.8 61.55 32.5 59.7 33.55 53.6L32.8 52.95 32.45 52.55 31.85 51.55 31.75 51.2Q31.7 51.1 31.65 50.95 30.25 50.9 29 50.4 24.15 48.5 24 41.3Z"/><animate attributeName="display" repeatCount="indefinite" dur="3.325s" keyTimes="0;.241;.248;1" values="none;inline;none;none"/></g><g display="none" id="Layer64_0_FILL"><path fill="#000" stroke="none" d="M24.05 41.3Q23.85 29.85 24.05 17.55L24.9 11.1Q26.3 4.3 29 2.5 29.7 2.05 24.8 2.4 19.55 2.75 14.95 4.5 .35 10.05 .35 26.05 .35 44.55 3.75 52 7.95 61.25 20 62.15 23.4 62.7 26.85 61.55 33.7 59.3 33.85 50.9L32.35 51Q30.55 51 29.05 50.4 24.2 48.5 24.05 41.3Z"/><animate attributeName="display" repeatCount="indefinite" dur="3.325s" keyTimes="0;.241;1" values="inline;none;none"/></g><g id="Layer63_0_FILL"><path fill="#000" stroke="none" d="M63.8 39Q63.8 20.5 60.4 13.05 56.2 3.8 44.15 2.9 40.75 2.35 37.3 3.5 30.45 5.75 30.3 14.15L31.8 14.05Q33.6 14.05 35.1 14.65 39.95 16.55 40.1 23.75 40.3 35.2 40.1 47.5L39.25 53.95Q37.85 60.75 35.15 62.55 34.45 63 39.35 62.65 44.6 62.3 49.2 60.55 63.8 55 63.8 39Z"/><animate attributeName="display" repeatCount="indefinite" dur="3.325s" keyTimes="0;.992;1" values="none;inline;inline"/></g><g display="none" id="Layer62_0_FILL"><path fill="#000" stroke="none" d="M63.8 38.95Q63.8 20.45 60.4 13 56.2 3.75 44.15 2.85 40.75 2.3 37.3 3.45 30.45 5.7 30.3 14.1L31.8 14Q33.6 14 35.1 14.6 39.95 16.5 40.1 23.7 40.3 35.15 40.1 47.45L39.25 53.9Q37.85 60.7 35.15 62.5 34.45 62.95 39.35 62.6 44.6 62.25 49.2 60.5 63.8 54.95 63.8 38.95Z"/><animate attributeName="display" repeatCount="indefinite" dur="3.325s" keyTimes="0;.752;.992;1" values="none;inline;none;none"/></g><g display="none" id="Layer61_0_FILL"><path fill="#000" stroke="none" d="M63.8 39Q63.8 20.5 60.4 13.05 56.2 3.8 44.15 2.9 40.75 2.35 37.3 3.5 30.45 5.75 30.3 14.15L31.8 14.05Q33.6 14.05 35.1 14.65 39.95 16.55 40.1 23.75 40.3 35.2 40.1 47.5L39.25 53.95Q38.55 57.3 37.55 59.45 37.65 59.5 37.75 59.8 37.9 60.1 38.65 60.55L42.2 62.35Q45.85 61.8 49.2 60.55 63.8 55 63.8 39Z"/><animate attributeName="display" repeatCount="indefinite" dur="3.325s" keyTimes="0;.744;.752;1" values="none;inline;none;none"/></g><g display="none" id="Layer60_0_FILL"><path fill="#000" stroke="none" d="M63.8 39Q63.8 20.5 60.4 13.05 56.2 3.8 44.15 2.9 40.75 2.35 37.3 3.5 30.45 5.75 30.3 14.15L31.8 14.05Q33.6 14.05 35.1 14.65 39.95 16.55 40.1 23.75 40.3 35.2 40.1 47.5L39.25 53.95Q38.8 56.15 38.2 57.85 38.4 57.95 38.55 58.05 38.75 58.25 38.9 58.3 39.15 58.5 40.2 59.1L40.95 59.45 44.9 61.85Q47.1 61.35 49.2 60.55 63.8 55 63.8 39Z"/><animate attributeName="display" repeatCount="indefinite" dur="3.325s" keyTimes="0;.737;.744;1" values="none;inline;none;none"/></g><g display="none" id="Layer59_0_FILL"><path fill="#000" stroke="none" d="M63.8 38.95Q63.8 20.45 60.4 13 56.2 3.75 44.15 2.85 40.75 2.3 37.3 3.45 30.45 5.7 30.3 14.1L31.8 14Q33.6 14 35.1 14.6 39.95 16.5 40.1 23.7 40.3 35.15 40.1 47.45L39.25 53.9Q39.067 54.788 38.85 55.6L39.55 56.05Q40.5 56.8 42.5 58.1L45.75 60Q46.4 60.5 46.7 61.25 46.714 61.288 46.7 61.3 47.986 60.961 49.2 60.5 63.8 54.95 63.8 38.95Z"/><animate attributeName="display" repeatCount="indefinite" dur="3.325s" keyTimes="0;.729;.737;1" values="none;inline;none;none"/></g><g display="none" id="Layer58_0_FILL"><path fill="#000" stroke="none" d="M63.8 39Q63.8 20.5 60.4 13.05 56.2 3.8 44.15 2.9 40.75 2.35 37.3 3.5 30.45 5.75 30.3 14.15L31.8 14.05Q33.6 14.05 35.1 14.65 39.95 16.55 40.1 23.75 40.3 35.2 40.1 47.5L39.35 53.25Q39.6 53.35 40.3 53.75 41.2 54.35 42.25 54.8 46.25 56.55 50.7 57.85 52.4 58.3 53.55 58.5 63.8 52.4 63.8 39Z"/><animate attributeName="display" repeatCount="indefinite" dur="3.325s" keyTimes="0;.722;.729;1" values="none;inline;none;none"/></g><g display="none" id="Layer57_0_FILL"><path fill="#000" stroke="none" d="M63.8 38.95Q63.8 20.45 60.4 13 56.2 3.75 44.15 2.85 40.75 2.3 37.3 3.45 30.45 5.7 30.3 14.1L31.8 14Q33.6 14 35.1 14.6 39.95 16.5 40.1 23.7 40.3 35.15 40.1 47.45L39.85 49.4Q40.468 49.574 41.3 50.05 44.2 51.7 46.1 52.4L47.75 52.9Q48.4 53.05 52.25 53.7 53.45 53.95 55.75 54.5 57.056 54.748 58.1 54.85 63.8 48.947 63.8 38.95Z"/><animate attributeName="display" repeatCount="indefinite" dur="3.325s" keyTimes="0;.714;.722;1" values="none;inline;none;none"/></g><g display="none" id="Layer56_0_FILL"><path fill="#000" stroke="none" d="M63.8 39Q63.8 20.5 60.4 13.05 56.2 3.8 44.15 2.9 40.75 2.35 37.3 3.5 30.45 5.75 30.3 14.15L31.8 14.05Q33.6 14.05 35.1 14.65 39.95 16.55 40.1 23.75 40.3 35.2 40.1 47.5L40 48.3Q41.3 48.4 43.45 49.1 46.75 50.1 55.15 51.8 58 52.3 59.5 53.05 59.6 53 59.7 53 63.8 47.45 63.8 39Z"/><animate attributeName="display" repeatCount="indefinite" dur="3.325s" keyTimes="0;.707;.714;1" values="none;inline;none;none"/></g><g display="none" id="Layer55_0_FILL"><path fill="#000" stroke="none" d="M48.3 46.8L55.8 47.85Q59.701 48.407 62 48.85 63.8 44.529 63.8 38.95 63.8 20.45 60.4 13 56.2 3.75 44.15 2.85 40.75 2.3 37.3 3.45 30.45 5.7 30.3 14.1L31.8 14Q33.6 14 35.1 14.6 39.95 16.5 40.1 23.7 40.288 34.495 40.1 46.05 42.991 46.105 48.3 46.8Z"/><animate attributeName="display" repeatCount="indefinite" dur="3.325s" keyTimes="0;.699;.707;1" values="none;inline;none;none"/></g><g display="none" id="Layer54_0_FILL"><path fill="#000" stroke="none" d="M60.4 13.05Q56.2 3.8 44.15 2.9 40.75 2.35 37.3 3.5 30.45 5.75 30.3 14.15L31.8 14.05Q33.6 14.05 35.1 14.65 39.95 16.55 40.1 23.75 40.25 33.55 40.15 43.95 42.15 44 44.85 44.35 49.95 45 51.25 45.1 52 45.2 53.55 45.35 53.65 45.35 55.25 45.65L60.35 46.85Q61.35 47.15 62.35 47.6 62.4 47.65 62.5 47.65 63.8 43.8 63.8 39 63.8 20.5 60.4 13.05Z"/><animate attributeName="display" repeatCount="indefinite" dur="3.325s" keyTimes="0;.692;.699;1" values="none;inline;none;none"/></g><g display="none" id="Layer53_0_FILL"><path fill="#000" stroke="none" d="M49.75 42.2L56.35 43.15Q60.9 43.95 63.2 45.1 63.8 42.25 63.8 39 63.8 20.5 60.4 13.05 56.2 3.8 44.15 2.9 40.75 2.35 37.3 3.5 30.45 5.75 30.3 14.15L31.8 14.05Q33.6 14.05 35.1 14.65 39.95 16.55 40.1 23.75 40.25 32.45 40.2 41.6 46.65 42 49.75 42.2Z"/><animate attributeName="display" repeatCount="indefinite" dur="3.325s" keyTimes="0;.684;.692;1" values="none;inline;none;none"/></g><g display="none" id="Layer52_0_FILL"><path fill="#000" stroke="none" d="M41.5 41Q42.6 40.95 44.8 40.9L54.15 41.75Q60.2 42.35 63.25 43.55 63.35 43.6 63.5 43.65 63.8 41.45 63.8 39 63.8 20.5 60.4 13.05 56.2 3.8 44.15 2.9 40.75 2.35 37.3 3.5 30.45 5.75 30.3 14.15L31.8 14.05Q33.6 14.05 35.1 14.65 39.95 16.55 40.1 23.75 40.25 32.15 40.2 41 40.8 41 41.5 41Z"/><animate attributeName="display" repeatCount="indefinite" dur="3.325s" keyTimes="0;.677;.684;1" values="none;inline;none;none"/></g><g display="none" id="Layer51_0_FILL"><path fill="#000" stroke="none" d="M43.5 39.65L56.85 40.75Q61.65 41.5 63.5 42.1 63.577 42.136 63.65 42.15 63.8 40.615 63.8 38.95 63.8 20.45 60.4 13 56.2 3.75 44.15 2.85 40.75 2.3 37.3 3.45 30.45 5.7 30.3 14.1L31.8 14Q33.6 14 35.1 14.6 39.95 16.5 40.1 23.7 40.236 31.513 40.15 39.7 41.565 39.488 43.5 39.65Z"/><animate attributeName="display" repeatCount="indefinite" dur="3.325s" keyTimes="0;.669;.677;1" values="none;inline;none;none"/></g><g display="none" id="Layer50_0_FILL"><path fill="#000" stroke="none" d="M47.25 38.8Q49.85 38.9 55.9 39.5L58.75 39.85Q60.953 40.225 63.7 41.2 63.8 40.108 63.8 38.95 63.8 20.45 60.4 13 56.2 3.75 44.15 2.85 40.75 2.3 37.3 3.45 30.45 5.7 30.3 14.1L31.8 14Q33.6 14 35.1 14.6 39.95 16.5 40.1 23.7 40.228 31.027 40.15 38.7 43.412 38.560 47.25 38.8Z"/><animate attributeName="display" repeatCount="indefinite" dur="3.325s" keyTimes="0;.662;.669;1" values="none;inline;none;none"/></g><g display="none" id="Layer49_0_FILL"><path fill="#000" stroke="none" d="M47.75 36.2L61.6 38.2Q63 38.45 63.8 38.6 63.75 20.4 60.4 13.05 56.2 3.8 44.15 2.9 40.75 2.35 37.3 3.5 30.45 5.75 30.3 14.15L31.8 14.05Q33.6 14.05 35.1 14.65 39.95 16.55 40.1 23.75 40.2 29.55 40.2 35.6 43.8 35.7 47.75 36.2Z"/><animate attributeName="display" repeatCount="indefinite" dur="3.325s" keyTimes="0;.654;.662;1" values="none;inline;none;none"/></g><g display="none" id="Layer48_0_FILL"><path fill="#000" stroke="none" d="M63.8 37.6Q63.65 20.2 60.4 13.05 56.2 3.8 44.15 2.9 40.75 2.35 37.3 3.5 30.45 5.75 30.3 14.15L31.8 14.05Q33.6 14.05 35.1 14.65 39.95 16.55 40.1 23.75 40.2 28.8 40.2 34.05 52.15 34.75 63.8 37.6Z"/><animate attributeName="display" repeatCount="indefinite" dur="3.325s" keyTimes="0;.647;.654;1" values="none;inline;none;none"/></g><g display="none" id="Layer47_0_FILL"><path fill="#000" stroke="none" d="M42.1 31.5Q54.55 32.85 59.65 33.75 61.945 34.142 63.75 34.55 63.380 19.530 60.4 13 56.2 3.75 44.15 2.85 40.75 2.3 37.3 3.45 30.45 5.7 30.3 14.1L31.8 14Q33.6 14 35.1 14.6 39.95 16.5 40.1 23.7 40.165 27.453 40.15 31.3L42.1 31.5Z"/><animate attributeName="display" repeatCount="indefinite" dur="3.325s" keyTimes="0;.639;.647;1" values="none;inline;none;none"/></g><g display="none" id="Layer46_0_FILL"><path fill="#000" stroke="none" d="M43.1 29.55Q47.5 29.5 50.4 29.85L57.65 31Q60.65 31.55 61.9 31.95 62.774 32.241 63.7 32.65 63.189 19.111 60.4 13 56.2 3.75 44.15 2.85 40.75 2.3 37.3 3.45 30.45 5.7 30.3 14.1L31.8 14Q33.6 14 35.1 14.6 39.95 16.5 40.1 23.7 40.150 26.607 40.15 29.55 41.449 29.561 43.1 29.55Z"/><animate attributeName="display" repeatCount="indefinite" dur="3.325s" keyTimes="0;.632;.639;1" values="none;inline;none;none"/></g><g display="none" id="Layer45_0_FILL"><path fill="#000" stroke="none" d="M49.15 28.05Q52.75 28.4 60.05 29.65 61.8 29.95 62.5 30.2 63.164 30.441 63.6 30.65 62.978 18.650 60.4 13 56.2 3.75 44.15 2.85 40.75 2.3 37.3 3.45 30.45 5.7 30.3 14.1L31.8 14Q33.6 14 35.1 14.6 39.95 16.5 40.1 23.7 40.135 25.754 40.15 27.85 44.256 27.528 49.15 28.05Z"/><animate attributeName="display" repeatCount="indefinite" dur="3.325s" keyTimes="0;.624;.632;1" values="none;inline;none;none"/></g><g display="none" id="Layer44_0_FILL"><path fill="#000" stroke="none" d="M43.25 26.45Q44.4 26.4 46.6 26.5 55.85 26.7 60.85 27.65 62.494 27.963 63.45 28.4 62.733 18.114 60.4 13 56.2 3.75 44.15 2.85 40.75 2.3 37.3 3.45 30.45 5.7 30.3 14.1L31.8 14Q33.6 14 35.1 14.6 39.95 16.5 40.1 23.7 40.126 25.209 40.15 26.75 41.686 26.506 43.25 26.45Z"/><animate attributeName="display" repeatCount="indefinite" dur="3.325s" keyTimes="0;.617;.624;1" values="none;inline;none;none"/></g><g display="none" id="Layer43_0_FILL"><path fill="#000" stroke="none" d="M41.15 24.55Q42.3 24.45 43.45 24.55L49.25 24.65Q56.35 24.9 58.3 25.05 61.242 25.257 63.25 25.85 62.431 17.450 60.4 13 56.2 3.75 44.15 2.85 40.75 2.3 37.3 3.45 30.45 5.7 30.3 14.1L31.8 14Q33.6 14 35.1 14.6 39.95 16.5 40.1 23.7 40.108 24.189 40.1 24.65 40.623 24.591 41.15 24.55Z"/><animate attributeName="display" repeatCount="indefinite" dur="3.325s" keyTimes="0;.609;.617;1" values="none;inline;none;none"/></g><g display="none" id="Layer42_0_FILL"><path fill="#000" stroke="none" d="M50.55 23.35L61.35 23.95Q62.308 23.95 63.05 24 62.197 16.939 60.4 13 56.2 3.75 44.15 2.85 40.75 2.3 37.3 3.45 30.45 5.7 30.3 14.1L31.8 14Q33.6 14 35.1 14.6 39.823 16.450 40.1 23.3 45.523 22.993 50.55 23.35Z"/><animate attributeName="display" repeatCount="indefinite" dur="3.325s" keyTimes="0;.602;.609;1" values="none;inline;none;none"/></g><g display="none" id="Layer41_0_FILL"><path fill="#000" stroke="none" d="M45.15 21.85Q52.95 21.75 56.8 21.9L58.75 22Q61.15 22.1 62.8 22.4 61.95 16.5 60.35 13 56.15 3.75 44.1 2.85 40.7 2.3 37.25 3.45 30.4 5.7 30.25 14.1L31.75 14Q33.55 14 35.05 14.6 39.35 16.3 39.95 22.15 42 21.9 45.15 21.85Z"/><animate attributeName="display" repeatCount="indefinite" dur="3.325s" keyTimes="0;.594;.602;1" values="none;inline;none;none"/></g><g display="none" id="Layer40_0_FILL"><path fill="#000" stroke="none" d="M41.95 20.4Q45.1 20.25 49.05 20.35 49.15 20.35 56.15 20.65L62.6 21Q61.799 16.066 60.4 13 56.2 3.75 44.15 2.85 40.75 2.3 37.3 3.45 30.45 5.7 30.3 14.1L31.8 14Q33.6 14 35.1 14.6 38.801 16.050 39.75 20.6 40.703 20.441 41.95 20.4Z"/><animate attributeName="display" repeatCount="indefinite" dur="3.325s" keyTimes="0;.586;.594;1" values="none;inline;none;none"/></g><g display="none" id="Layer39_0_FILL"><path fill="#000" stroke="none" d="M47.2 18.05Q50.8 18 58.05 18.3 60.589 18.3 62.15 18.55 61.437 15.273 60.4 13 56.2 3.75 44.15 2.85 40.75 2.3 37.3 3.45 30.45 5.7 30.3 14.1L31.8 14Q33.6 14 35.1 14.6 38.173 15.803 39.3 19.1 42.772 18.120 47.2 18.05Z"/><animate attributeName="display" repeatCount="indefinite" dur="3.325s" keyTimes="0;.579;.586;1" values="none;inline;none;none"/></g><g display="none" id="Layer38_0_FILL"><path fill="#000" stroke="none" d="M41.95 17.35Q43.7 17.15 48.8 17.05 57.25 16.95 61.8 17.35 61.2 14.85 60.35 13 56.15 3.75 44.1 2.85 40.7 2.3 37.25 3.45 30.4 5.7 30.25 14.1L31.75 14Q33.55 14 35.05 14.6 37.5 15.55 38.75 17.9 40.15 17.5 41.95 17.35Z"/><animate attributeName="display" repeatCount="indefinite" dur="3.325s" keyTimes="0;.571;.579;1" values="none;inline;none;none"/></g><g display="none" id="Layer37_0_FILL"><path fill="#000" stroke="none" d="M43.55 14.6L53.95 13.15 56.2 13.05Q58.319 13.014 60.4 13L60.4 13Q56.2 3.75 44.15 2.85 40.75 2.3 37.3 3.45 30.45 5.7 30.3 14.1L31.8 14Q33.6 14 35.1 14.6 36.296 15.068 37.2 15.85L37.2 15.8Q40.2 15.15 43.55 14.6Z"/><animate attributeName="display" repeatCount="indefinite" dur="3.325s" keyTimes="0;.564;.571;1" values="none;inline;none;none"/></g><g display="none" id="Layer36_0_FILL"><path fill="#000" stroke="none" d="M42.05 13.7L42.4 13.7Q42.45 13.65 42.5 13.6 42.8 13.45 43.55 13.35 43.85 13.3 45.55 12.65L53.7 10.65Q54.5 10.55 56.15 10.35 56.4 10.3 58.5 9.85 53.9 3.6 44.1 2.85 40.7 2.3 37.25 3.45 30.4 5.7 30.25 14.1L31.75 14Q33.55 14 35.05 14.6 36.1 15 36.95 15.65L36.95 15.6Q37 15.55 37.25 15.25 37.55 15.05 38.25 14.85L39.75 14.35Q41.25 13.85 42.05 13.7Z"/><animate attributeName="display" repeatCount="indefinite" dur="3.325s" keyTimes="0;.556;.564;1" values="none;inline;none;none"/></g><g display="none" id="Layer35_0_FILL"><path fill="#000" stroke="none" d="M43.45 11.05Q45.95 10 49.25 8.25 49.95 7.85 50.35 7.5 51.15 6.75 51.3 6.6L51.9 6.15Q52.3 5.85 52.2 5.5 52.55 5.25 52.95 5.15 49.25 3.25 44.1 2.85 40.7 2.3 37.25 3.45 30.4 5.7 30.25 14.1L31.75 14Q33.55 14 35.05 14.6 35.6 14.8 36.1 15.1 36.25 14.9 36.65 14.65 37.7 14 38.7 13.65 38.75 13.5 38.8 13.4 39.1 13.05 39.4 12.9 40.6 12.2 43.45 11.05Z"/><animate attributeName="display" repeatCount="indefinite" dur="3.325s" keyTimes="0;.549;.556;1" values="none;inline;none;none"/></g><g display="none" id="Layer34_0_FILL"><path fill="#000" stroke="none" d="M41.75 9.05Q42.35 8.5 43.3 8L47.25 5.5Q48.8 4.6 50.25 4 47.5 3.1 44.1 2.85 40.7 2.3 37.25 3.45 30.4 5.7 30.25 14.1L31.75 14Q33.35 14 34.75 14.5 34.8 14.35 34.9 14.25 35.1 14.05 35.6 13.85 37.9 12.65 38.6 12.1 39.1 11.7 40.15 10.55 41.15 9.55 41.75 9.05Z"/><animate attributeName="display" repeatCount="indefinite" dur="3.325s" keyTimes="0;.541;.549;1" values="none;inline;none;none"/></g><g display="none" id="Layer33_0_FILL"><path fill="#000" stroke="none" d="M41.6 4.05Q42.15 3.15 42.45 2.7 39.85 2.6 37.25 3.45 30.4 5.7 30.25 14.1L31.75 14Q33.35 14 34.75 14.5 34.8 14.35 34.9 14.25 35.1 14.05 35.6 13.85 36.4 13.45 37.05 13.1 37.1 12.2 37.35 11.45 37.55 10.8 38.25 9.6 40.15 6.35 41.6 4.05Z"/><animate attributeName="display" repeatCount="indefinite" dur="3.325s" keyTimes="0;.534;.541;1" values="none;inline;none;none"/></g><g display="none" id="Layer32_0_FILL"><path fill="#000" stroke="none" d="M30.25 14.1L31.75 14Q33.35 14 34.75 14.5L34.8 14.45Q34.35 10.2 34.5 6 34.55 5.25 34.65 4.7 30.35 7.5 30.25 14.1Z"/><animate attributeName="display" repeatCount="indefinite" dur="3.325s" keyTimes="0;.526;.534;1" values="none;inline;none;none"/></g><g id="Layer31_0_FILL"><path fill="#000" stroke="none" d="M24 41.3Q23.8 29.85 24 17.55L24.85 11.1Q26.25 4.3 28.95 2.5 29.65 2.05 24.75 2.4 19.5 2.75 14.9 4.5 .3 10.05 .3 26.05 .3 44.55 3.7 52 7.9 61.25 19.95 62.15 23.35 62.7 26.8 61.55 33.65 59.3 33.8 50.9L32.3 51Q30.5 51 29 50.4 24.15 48.5 24 41.3Z"/><animate attributeName="display" repeatCount="indefinite" dur="3.325s" keyTimes="0;.992;1" values="none;inline;inline"/></g><g display="none" id="Layer30_0_FILL"><path fill="#000" stroke="none" d="M24 41.3Q23.8 29.85 24 17.55L24.85 11.1Q25.55 7.75 26.55 5.6 26.45 5.55 26.35 5.25 26.2 4.95 25.45 4.5L21.9 2.7Q18.25 3.25 14.9 4.5 .3 10.05 .3 26.05 .3 44.55 3.7 52 7.9 61.25 19.95 62.15 23.35 62.7 26.8 61.55 33.65 59.3 33.8 50.9L32.3 51Q30.5 51 29 50.4 24.15 48.5 24 41.3Z"/><animate attributeName="display" repeatCount="indefinite" dur="3.325s" keyTimes="0;.985;.992;1" values="none;inline;none;none"/></g><g display="none" id="Layer29_0_FILL"><path fill="#000" stroke="none" d="M24 17.55L24.85 11.1Q25.3 8.9 25.9 7.2 25.7 7.1 25.55 7 25.35 6.8 25.2 6.75 24.95 6.55 23.9 5.95L23.15 5.6 19.2 3.2Q17 3.7 14.9 4.5 .3 10.05 .3 26.05 .3 44.55 3.7 52 7.9 61.25 19.95 62.15 23.35 62.7 26.8 61.55 33.65 59.3 33.8 50.9L32.3 51Q30.5 51 29 50.4 24.15 48.5 24 41.3 23.8 29.85 24 17.55Z"/><animate attributeName="display" repeatCount="indefinite" dur="3.325s" keyTimes="0;.977;.985;1" values="none;inline;none;none"/></g><g display="none" id="Layer28_0_FILL"><path fill="#000" stroke="none" d="M24 17.55L24.85 11.1Q25.05 10.2 25.25 9.4L24.55 8.95Q23.6 8.2 21.6 6.9L18.35 5Q17.7 4.5 17.4 3.75 17.4 3.7 17.35 3.65 16.1 4.05 14.9 4.5 .3 10.05 .3 26.05 .3 44.55 3.7 52 7.9 61.25 19.95 62.15 23.35 62.7 26.8 61.55 33.65 59.3 33.8 50.9L32.3 51Q30.5 51 29 50.4 24.15 48.5 24 41.3 23.8 29.85 24 17.55Z"/><animate attributeName="display" repeatCount="indefinite" dur="3.325s" keyTimes="0;.97;.977;1" values="none;inline;none;none"/></g><g display="none" id="Layer27_0_FILL"><path fill="#000" stroke="none" d="M24 41.35Q23.8 29.9 24 17.6L24.75 11.85Q24.5 11.75 23.8 11.35 22.9 10.75 21.85 10.3 17.85 8.55 13.4 7.25 11.7 6.8 10.55 6.6 .3 12.7 .3 26.1 .3 44.6 3.7 52.05 7.9 61.3 19.95 62.2 23.35 62.75 26.8 61.6 33.65 59.35 33.8 50.95L32.3 51.05Q30.5 51.05 29 50.45 24.15 48.55 24 41.35Z"/><animate attributeName="display" repeatCount="indefinite" dur="3.325s" keyTimes="0;.962;.97;1" values="none;inline;none;none"/></g><g display="none" id="Layer26_0_FILL"><path fill="#000" stroke="none" d="M24 17.6L24.25 15.6Q23.65 15.5 22.8 15 19.9 13.35 18 12.65L16.35 12.15Q15.7 12 11.85 11.35 10.65 11.1 8.35 10.55 7.05 10.3 6 10.15 .3 16.1 .3 26.1 .3 44.6 3.7 52.05 7.9 61.3 19.95 62.2 23.35 62.75 26.8 61.6 33.65 59.35 33.8 50.95L32.3 51.05Q30.5 51.05 29 50.45 24.15 48.55 24 41.35 23.8 29.9 24 17.6Z"/><animate attributeName="display" repeatCount="indefinite" dur="3.325s" keyTimes="0;.955;.962;1" values="none;inline;none;none"/></g><g display="none" id="Layer25_0_FILL"><path fill="#000" stroke="none" d="M24 41.3Q23.8 29.85 24 17.55L24.1 16.75Q22.8 16.65 20.65 15.95 17.35 14.95 8.95 13.25 6.1 12.75 4.6 12 4.5 12.05 4.4 12.05 .3 17.6 .3 26.05 .3 44.55 3.7 52 7.9 61.25 19.95 62.15 23.35 62.7 26.8 61.55 33.65 59.3 33.8 50.9L32.3 51Q30.5 51 29 50.4 24.15 48.5 24 41.3Z"/><animate attributeName="display" repeatCount="indefinite" dur="3.325s" keyTimes="0;.947;.955;1" values="none;inline;none;none"/></g><g display="none" id="Layer24_0_FILL"><path fill="#000" stroke="none" d="M24 41.3Q23.8 30.5 23.95 18.95 21.1 18.9 15.8 18.2L8.3 17.15Q4.4 16.6 2.05 16.15 .3 20.45 .3 26.05 .3 44.55 3.7 52 7.9 61.25 19.95 62.15 23.35 62.7 26.8 61.55 33.65 59.3 33.8 50.9L32.3 51Q30.5 51 29 50.4 24.15 48.5 24 41.3Z"/><animate attributeName="display" repeatCount="indefinite" dur="3.325s" keyTimes="0;.94;.947;1" values="none;inline;none;none"/></g><g display="none" id="Layer23_0_FILL"><path fill="#000" stroke="none" d="M19.25 20.75Q14.15 20.1 12.85 20 12.1 19.9 10.55 19.75 10.45 19.75 8.85 19.45L3.75 18.25Q2.75 17.95 1.75 17.5 1.7 17.45 1.6 17.45 .3 21.3 .3 26.1 .3 44.6 3.7 52.05 7.9 61.3 19.95 62.2 23.35 62.75 26.8 61.6 33.65 59.35 33.8 50.95L32.3 51.05Q30.5 51.05 29 50.45 24.15 48.55 24 41.35 23.85 31.55 23.95 21.15 21.95 21.1 19.25 20.75Z"/><animate attributeName="display" repeatCount="indefinite" dur="3.325s" keyTimes="0;.932;.94;1" values="none;inline;none;none"/></g><g display="none" id="Layer22_0_FILL"><path fill="#000" stroke="none" d="M24 41.3Q23.85 32.6 23.9 23.45 17.45 23.05 14.35 22.85L7.75 21.9Q3.2 21.1 .9 19.95 .3 22.8 .3 26.05 .3 44.55 3.7 52 7.9 61.25 19.95 62.15 23.35 62.7 26.8 61.55 33.65 59.3 33.8 50.9L32.3 51Q30.5 51 29 50.4 24.15 48.5 24 41.3Z"/><animate attributeName="display" repeatCount="indefinite" dur="3.325s" keyTimes="0;.925;.932;1" values="none;inline;none;none"/></g><g display="none" id="Layer21_0_FILL"><path fill="#000" stroke="none" d="M24 41.35Q23.85 32.95 23.9 24.1 23.3 24.1 22.6 24.1 21.5 24.15 19.3 24.2L9.95 23.35Q3.9 22.75 .85 21.55 .75 21.5 .6 21.45 .3 23.65 .3 26.1 .3 44.6 3.7 52.05 7.9 61.3 19.95 62.2 23.35 62.75 26.8 61.6 33.65 59.35 33.8 50.95L32.3 51.05Q30.5 51.05 29 50.45 24.15 48.55 24 41.35Z"/><animate attributeName="display" repeatCount="indefinite" dur="3.325s" keyTimes="0;.917;.925;1" values="none;inline;none;none"/></g><g display="none" id="Layer20_0_FILL"><path fill="#000" stroke="none" d="M24 41.3Q23.85 33.5 23.9 25.25 22.55 25.5 20.6 25.35L7.25 24.25Q2.45 23.5 .6 22.9 .5 22.85 .45 22.8 .3 24.4 .3 26.05 .3 44.55 3.7 52 7.9 61.25 19.95 62.15 23.35 62.7 26.8 61.55 33.65 59.3 33.8 50.9L32.3 51Q30.5 51 29 50.4 24.15 48.5 24 41.3Z"/><animate attributeName="display" repeatCount="indefinite" dur="3.325s" keyTimes="0;.91;.917;1" values="none;inline;none;none"/></g><g display="none" id="Layer19_0_FILL"><path fill="#000" stroke="none" d="M24 41.3Q23.85 33.95 23.9 26.3 20.7 26.45 16.85 26.2 14.25 26.1 8.2 25.5L5.35 25.15Q3.15 24.75 .35 23.75 .3 24.9 .3 26.05 .3 44.55 3.7 52 7.9 61.25 19.95 62.15 23.35 62.7 26.8 61.55 33.65 59.3 33.8 50.9L32.3 51Q30.5 51 29 50.4 24.15 48.5 24 41.3Z"/><animate attributeName="display" repeatCount="indefinite" dur="3.325s" keyTimes="0;.902;.91;1" values="none;inline;none;none"/></g><g display="none" id="Layer18_0_FILL"><path fill="#000" stroke="none" d="M24 41.3Q23.9 35.5 23.9 29.45 20.3 29.35 16.35 28.85L2.5 26.85Q1.1 26.6 .3 26.45 .35 44.65 3.7 52 7.9 61.25 19.95 62.15 23.35 62.7 26.8 61.55 33.65 59.3 33.8 50.9L32.3 51Q30.5 51 29 50.4 24.15 48.5 24 41.3Z"/><animate attributeName="display" repeatCount="indefinite" dur="3.325s" keyTimes="0;.895;.902;1" values="none;inline;none;none"/></g><g display="none" id="Layer17_0_FILL"><path fill="#000" stroke="none" d="M24 41.3Q23.9 36.25 23.9 31 11.95 30.3 .3 27.45 .45 44.85 3.7 52 7.9 61.25 19.95 62.15 23.35 62.7 26.8 61.55 33.65 59.3 33.8 50.9L32.3 51Q30.5 51 29 50.4 24.15 48.5 24 41.3Z"/><animate attributeName="display" repeatCount="indefinite" dur="3.325s" keyTimes="0;.887;.895;1" values="none;inline;none;none"/></g><g display="none" id="Layer16_0_FILL"><path fill="#000" stroke="none" d="M24 41.3Q23.95 37.55 23.9 33.7L22 33.5Q9.55 32.15 4.45 31.25 2.15 30.85 .35 30.45 .7 45.45 3.7 52 7.9 61.25 19.95 62.15 23.35 62.7 26.8 61.55 33.65 59.3 33.8 50.9L32.3 51Q30.5 51 29 50.4 24.15 48.5 24 41.3Z"/><animate attributeName="display" repeatCount="indefinite" dur="3.325s" keyTimes="0;.88;.887;1" values="none;inline;none;none"/></g><g display="none" id="Layer15_0_FILL"><path fill="#000" stroke="none" d="M24 41.35Q23.95 38.45 23.9 35.45 22.65 35.5 21 35.5 16.6 35.55 13.7 35.2L6.45 34.05Q3.45 33.5 2.2 33.1 1.35 32.8 .4 32.4 .9 45.95 3.7 52.05 7.9 61.3 19.95 62.2 23.35 62.75 26.8 61.6 33.65 59.35 33.8 50.95L32.3 51.05Q30.5 51.05 29 50.45 24.15 48.55 24 41.35Z"/><animate attributeName="display" repeatCount="indefinite" dur="3.325s" keyTimes="0;.872;.88;1" values="none;inline;none;none"/></g><g display="none" id="Layer14_0_FILL"><path fill="#000" stroke="none" d="M23.95 41.35Q23.9 39.3 23.85 37.2 19.8 37.5 14.9 37 11.3 36.65 4 35.4 2.25 35.1 1.55 34.85 .9 34.6 .45 34.4 1.05 46.4 3.65 52.05 7.85 61.3 19.9 62.2 23.3 62.75 26.75 61.6 33.6 59.35 33.75 50.95L32.25 51.05Q30.45 51.05 28.95 50.45 24.1 48.55 23.95 41.35Z"/><animate attributeName="display" repeatCount="indefinite" dur="3.325s" keyTimes="0;.865;.872;1" values="none;inline;none;none"/></g><g display="none" id="Layer13_0_FILL"><path fill="#000" stroke="none" d="M23.95 41.35Q23.9 39.85 23.9 38.3 22.35 38.55 20.8 38.6 19.65 38.65 17.45 38.55 8.2 38.35 3.2 37.4 1.55 37.1 .55 36.6 1.3 46.95 3.65 52.05 7.85 61.3 19.9 62.2 23.3 62.75 26.75 61.6 33.6 59.35 33.75 50.95L32.25 51.05Q30.45 51.05 28.95 50.45 24.1 48.55 23.95 41.35Z"/><animate attributeName="display" repeatCount="indefinite" dur="3.325s" keyTimes="0;.857;.865;1" values="none;inline;none;none"/></g><g display="none" id="Layer12_0_FILL"><path fill="#000" stroke="none" d="M24 41.3Q24 40.8 23.95 40.3 23.5 40.4 22.95 40.45 21.8 40.55 20.65 40.45L14.85 40.35Q7.75 40.1 5.8 39.95 2.85 39.75 .85 39.15 1.65 47.55 3.7 52 7.9 61.25 19.95 62.15 23.35 62.7 26.8 61.55 33.65 59.3 33.8 50.9L32.3 51Q30.5 51 29 50.4 24.15 48.5 24 41.3Z"/><animate attributeName="display" repeatCount="indefinite" dur="3.325s" keyTimes="0;.85;.857;1" values="none;inline;none;none"/></g><g display="none" id="Layer11_0_FILL"><path fill="#000" stroke="none" d="M24 41.65Q18.6 42 13.55 41.65L2.75 41.05Q1.8 41.05 1.05 41 1.9 48.05 3.7 52 7.9 61.25 19.95 62.15 23.35 62.7 26.8 61.55 33.65 59.3 33.8 50.9L32.3 51Q30.5 51 29 50.4 24.3 48.55 24 41.65Z"/><animate attributeName="display" repeatCount="indefinite" dur="3.325s" keyTimes="0;.842;.85;1" values="none;inline;none;none"/></g><g display="none" id="Layer10_0_FILL"><path fill="#000" stroke="none" d="M24.1 42.9Q22.05 43.15 18.9 43.2 11.1 43.3 7.25 43.15L5.3 43.05Q2.9 42.95 1.25 42.65 2.1 48.55 3.7 52.05 7.9 61.3 19.95 62.2 23.35 62.75 26.8 61.6 33.65 59.35 33.8 50.95L32.3 51.05Q30.5 51.05 29 50.45 24.7 48.75 24.1 42.9Z"/><animate attributeName="display" repeatCount="indefinite" dur="3.325s" keyTimes="0;.835;.842;1" values="none;inline;none;none"/></g><g display="none" id="Layer9_0_FILL"><path fill="#000" stroke="none" d="M24.35 44.4Q23.4 44.55 22.15 44.6 19 44.75 15.05 44.65 14.95 44.65 7.95 44.35L1.5 44Q2.3 48.95 3.7 52 7.9 61.25 19.95 62.15 23.35 62.7 26.8 61.55 33.65 59.3 33.8 50.9L32.3 51Q30.5 51 29 50.4 25.3 48.95 24.35 44.4Z"/><animate attributeName="display" repeatCount="indefinite" dur="3.325s" keyTimes="0;.827;.835;1" values="none;inline;none;none"/></g><g display="none" id="Layer8_0_FILL"><path fill="#000" stroke="none" d="M24.8 45.9Q21.4 46.95 16.95 47 13.35 47.05 6.1 46.75 3.55 46.75 2 46.45 2.7 49.8 3.75 52.05 7.95 61.3 20 62.2 23.4 62.75 26.85 61.6 33.7 59.35 33.85 50.95L32.35 51.05Q30.55 51.05 29.05 50.45 26 49.25 24.8 45.9Z"/><animate attributeName="display" repeatCount="indefinite" dur="3.325s" keyTimes="0;.82;.827;1" values="none;inline;none;none"/></g><g display="none" id="Layer7_0_FILL"><path fill="#000" stroke="none" d="M25.3 47.15Q23.9 47.55 22.1 47.7 20.35 47.9 15.25 48 6.8 48.1 2.25 47.7 2.85 50.2 3.7 52.05 7.9 61.3 19.95 62.2 23.35 62.75 26.8 61.6 33.65 59.35 33.8 50.95L32.3 51.05Q30.5 51.05 29 50.45 26.55 49.5 25.3 47.15Z"/><animate attributeName="display" repeatCount="indefinite" dur="3.325s" keyTimes="0;.812;.82;1" values="none;inline;none;none"/></g><g display="none" id="Layer6_0_FILL"><path fill="#000" stroke="none" d="M26.9 49.15L26.9 49.2Q23.9 49.85 20.55 50.4L10.15 51.85 7.9 51.95Q5.8 52 3.65 51.95L3.7 52Q7.9 61.25 19.95 62.15 23.35 62.7 26.8 61.55 33.65 59.3 33.8 50.9L32.3 51Q30.5 51 29 50.4 27.8 49.95 26.9 49.15Z"/><animate attributeName="display" repeatCount="indefinite" dur="3.325s" keyTimes="0;.805;.812;1" values="none;inline;none;none"/></g><g display="none" id="Layer5_0_FILL"><path fill="#000" stroke="none" d="M27.1 49.4L27.1 49.45Q27.05 49.5 26.8 49.8 26.5 50 25.8 50.2L24.3 50.7Q22.8 51.2 22 51.35L21.65 51.35Q21.6 51.4 21.55 51.45 21.25 51.6 20.5 51.7 20.2 51.75 18.5 52.4L10.35 54.4Q9.55 54.5 7.9 54.7 7.65 54.75 5.55 55.2 10.15 61.45 19.95 62.2 23.35 62.75 26.8 61.6 33.65 59.35 33.8 50.95L32.3 51.05Q30.5 51.05 29 50.45 27.95 50.05 27.1 49.4Z"/><animate attributeName="display" repeatCount="indefinite" dur="3.325s" keyTimes="0;.797;.805;1" values="none;inline;none;none"/></g><g display="none" id="Layer4_0_FILL"><path fill="#000" stroke="none" d="M33.8 50.95L32.3 51.05Q30.5 51.05 29 50.45 28.45 50.25 27.95 49.95 27.8 50.15 27.4 50.4 26.35 51.05 25.35 51.4 25.3 51.55 25.25 51.65 24.95 52 24.65 52.15 23.45 52.85 20.6 54 18.1 55.05 14.8 56.8 14.1 57.2 13.7 57.55 12.9 58.3 12.75 58.45L12.15 58.9Q11.75 59.2 11.85 59.55 11.5 59.8 11.1 59.9 14.8 61.8 19.95 62.2 23.35 62.75 26.8 61.6 33.65 59.35 33.8 50.95Z"/><animate attributeName="display" repeatCount="indefinite" dur="3.325s" keyTimes="0;.789;.797;1" values="none;inline;none;none"/></g><g display="none" id="Layer3_0_FILL"><path fill="#000" stroke="none" d="M33.8 50.9L32.3 51Q30.7 51 29.3 50.5 29.25 50.65 29.15 50.75 28.95 50.95 28.45 51.15 26.15 52.35 25.45 52.9 24.95 53.3 23.9 54.45 22.9 55.45 22.3 55.95 21.7 56.5 20.75 57L16.8 59.5Q15.25 60.4 13.8 61 16.55 61.9 19.95 62.15 23.35 62.7 26.8 61.55 33.65 59.3 33.8 50.9Z"/><animate attributeName="display" repeatCount="indefinite" dur="3.325s" keyTimes="0;.782;.789;1" values="none;inline;none;none"/></g><g display="none" id="Layer2_0_FILL"><path fill="#000" stroke="none" d="M33.85 50.85L32.35 50.95Q30.75 50.95 29.35 50.45 29.3 50.6 29.2 50.7 29 50.9 28.5 51.1 27.7 51.5 27.05 51.85 27 52.75 26.75 53.5 26.55 54.15 25.85 55.35 23.95 58.6 22.5 60.9 21.95 61.8 21.65 62.25 24.25 62.35 26.85 61.5 33.7 59.25 33.85 50.85Z"/><animate attributeName="display" repeatCount="indefinite" dur="3.325s" keyTimes="0;.774;.782;1" values="none;inline;none;none"/></g><g display="none" id="Layer1_0_FILL"><path fill="#000" stroke="none" d="M33.8 50.95L32.3 51.05Q30.7 51.05 29.3 50.55L29.25 50.6Q29.7 54.85 29.55 59.05 29.5 59.8 29.4 60.35 33.7 57.55 33.8 50.95Z"/><animate attributeName="display" repeatCount="indefinite" dur="3.325s" keyTimes="0;.767;.774;1" values="none;inline;none;none"/></g></g></svg>