<?xml version="1.0" encoding="utf-8"?>
<!-- Generator: Adobe Illustrator 21.1.0, SVG Export Plug-In . SVG Version: 6.00 Build 0)  -->
<svg version="1.1" id="Layer_1" xmlns="http://www.w3.org/2000/svg" xmlns:xlink="http://www.w3.org/1999/xlink" x="0px" y="0px"
	 viewBox="0 0 100 110" style="enable-background:new 0 0 100 110;" xml:space="preserve">
<style type="text/css">
	.st0{fill:#528444;}
	.st1{clip-path:url(#SVGID_2_);fill:#528444;}
	.st2{clip-path:url(#SVGID_2_);fill:#78B771;}
</style>
<g>
	<path class="st0" d="M2.7,109.1c-1,0-2-0.2-2.5-0.4v-7c0.6-0.1,1.4-0.3,2.4-0.3c1.6,0,2.7,0.7,2.7,1.8c0,0.8-0.7,1.5-1.3,1.8
		c1.1,0.2,1.7,0.9,1.7,1.9C5.7,108.2,4.4,109.1,2.7,109.1z M2.2,102.4H1.5v2.4h1.8c0.4-0.2,0.8-0.7,0.8-1.3
		C4.1,102.6,3.4,102.4,2.2,102.4z M2.5,105.7h-1v2.2c0.3,0.1,0.6,0.2,1.1,0.2c1.1,0,1.8-0.4,1.8-1.3C4.4,106,3.6,105.7,2.5,105.7z"
		/>
	<path class="st0" d="M10.8,109c-2.1,0-3.6-1.6-3.6-3.8c0-2.2,1.5-3.8,3.6-3.8c2.1,0,3.6,1.6,3.6,3.8C14.5,107.5,13,109,10.8,109z
		 M10.8,102.4c-1.5,0-2.3,1.2-2.3,2.8c0,1.6,0.9,2.8,2.3,2.8c1.5,0,2.3-1.2,2.3-2.8C13.2,103.6,12.3,102.4,10.8,102.4z"/>
	<path class="st0" d="M20.6,102.6h-2v6.3h-1.2v-6.3h-2v-1H21L20.6,102.6z"/>
	<path class="st0" d="M26.2,108.9l-0.7-1.7h-3l-0.7,1.7h-1.2l2.9-6.5l-0.3-0.8h1.3l3,7.3H26.2z M24.1,103.6l-1.2,2.7h2.3L24.1,103.6
		z"/>
	<path class="st0" d="M34.7,108.9l-4.3-5.1v5.1h-1.1v-6.5l-0.7-0.8h1.6l4.1,4.9v-4.9h1.1v7.3H34.7z"/>
	<path class="st0" d="M38.1,108.9v-7.3h1.2v7.3H38.1z"/>
	<path class="st0" d="M45.3,109c-2.5,0-3.9-1.6-3.9-3.7c0-2.2,1.6-3.9,3.9-3.9c1,0,1.8,0.3,2.3,0.6v1.3c-0.6-0.4-1.4-0.8-2.4-0.8
		c-1.5,0-2.6,1-2.6,2.7c0,1.5,1.1,2.8,2.6,2.8c1,0,1.7-0.3,2.4-0.8v1.3C47.1,108.7,46.3,109,45.3,109z"/>
	<path class="st0" d="M56.3,109c-1,0-1.7-0.2-2.3-0.4v-7c0.7-0.1,1.3-0.2,2.3-0.2c2.6,0,4.1,1.5,4.1,3.8
		C60.4,107.5,58.9,109,56.3,109z M56,102.4h-0.8v5.6c0.4,0.1,0.7,0.2,1.1,0.2c1.9,0,2.8-1.4,2.8-2.9C59.2,103.5,58.1,102.4,56,102.4
		z"/>
	<path class="st0" d="M66.8,108.9h-4.2v-7.3H67l-0.3,1h-2.9v2.1h2.7l-0.3,1h-2.4v2.2h3.5L66.8,108.9z"/>
	<path class="st0" d="M70.9,109c-0.8,0-1.4-0.1-2-0.3l-0.2-1.4c0.7,0.5,1.3,0.8,2.2,0.8c0.7,0,1.5-0.4,1.5-1c0-0.5-0.5-0.9-0.8-1
		l-1.1-0.5c-1.1-0.5-1.5-1.2-1.5-1.9c0-1.3,1.1-2.1,2.8-2.1c0.7,0,1.5,0.3,1.8,0.5v1.3c-0.5-0.5-1.1-0.8-1.8-0.8
		c-0.8,0-1.6,0.4-1.6,1c0,0.5,0.4,0.7,0.8,0.9l1.2,0.6c0.6,0.3,1.4,0.8,1.4,2C73.6,108.2,72.4,109,70.9,109z"/>
	<path class="st0" d="M75.8,108.9v-7.3H77v7.3H75.8z"/>
	<path class="st0" d="M85.1,108.7c-0.5,0.2-1.2,0.3-1.9,0.3c-2.6,0-4.1-1.5-4.1-3.7s1.6-3.9,4.1-3.9c1,0,2,0.3,2.5,0.6v1.3
		c-0.6-0.4-1.6-0.8-2.5-0.8c-1.7,0-2.8,1-2.8,2.7c0,1.6,1.1,2.8,2.8,2.8c0.5,0,0.9,0,1.4-0.1V106H83l0.4-1h2.3v4L85.1,108.7z"/>
	<path class="st0" d="M93.9,108.9l-4.3-5.1v5.1h-1.1v-6.5l-0.7-0.8h1.6l4.1,4.9v-4.9h1.1v7.3H93.9z"/>
</g>
<g>
	<defs>
		<rect id="SVGID_1_" x="-11.9" y="1.8" width="125" height="112.9"/>
	</defs>
	<clipPath id="SVGID_2_">
		<use xlink:href="#SVGID_1_"  style="overflow:visible;"/>
	</clipPath>
	<path class="st1" d="M26,35.5c-4.9,0-4.9-3.1-4.9-3.1V1.8H1.3v7.8c5,0,4.5,3.7,4.5,3.7v19c0,3.5-4.6,3.2-4.6,3.2v8.2H26V35.5z"/>
	<path class="st1" d="M71.7,32.4v-7.3h3.9c2.2,0,2.2,2.2,2.2,2.2v4.6h5V13.6h-5v4.7c0,2.2-2.1,2.1-2.1,2.1h-4V1.8H51.9v7.8
		c5,0,4.4,3.7,4.4,3.7v19c0,3.5-4.6,3.2-4.6,3.2v8.2h19.9L71.7,32.4z"/>
	<path class="st1" d="M21.1,81.3V50.7H1.3v7.8c5,0,4.4,3.7,4.4,3.7v19c0,3.5-4.6,3.2-4.6,3.2v8.2H26v-8.2
		C21.1,84.4,21.1,81.3,21.1,81.3"/>
	<path class="st1" d="M69.2,77.5c-0.2-8.4,0-17.4,0-17.4s0.4-8.8,3.6-11c0.5-0.3-20.9-1.5-20.9,17.2c0,16.3,1.8,25.4,14.3,26.3
		c0,0,10,1.6,10.1-8.2C76.3,84.5,69.4,85.9,69.2,77.5"/>
	<path class="st2" d="M86.1,15.1v2.7h8.3V1.8l-18.7,0v7.9h5C80.6,9.6,86.1,10,86.1,15.1"/>
	<path class="st2" d="M86.1,30.5c0,5.1-5.5,5.5-5.5,5.5h-5v7.9l18.7,0V26.5h-8.3V30.5z"/>
	<path class="st2" d="M83.9,49.5c0,0-10-1.6-10.1,8.2c0,0,7-1.4,7.1,7s0,17.4,0,17.4s-0.4,8.8-3.6,11c-0.5,0.3,20.9,1.5,20.9-17.2
		C98.2,59.5,96.4,50.4,83.9,49.5"/>
	<path class="st2" d="M33.9,50.7H25v8.7c0,0,6.1-0.9,6.1,5.5c0,8.8-6.1,7.9-6.1,7.9v6.7h8.8c5.5,0,13-4.3,13-15.8
		C46.8,51,33.9,50.7,33.9,50.7"/>
	<path class="st2" d="M33.9,1.8H25v8.7c0,0,6.1-0.9,6.1,5.5c0,8.8-6.1,7.9-6.1,7.9v6.7h8.8c5.5,0,13-4.3,13-15.9
		C46.8,2.1,33.9,1.8,33.9,1.8"/>
</g>
</svg>
